G04 #@! TF.FileFunction,Copper,L2,Bot,Signal*
%FSLAX46Y46*%
G04 Gerber Fmt 4.6, Leading zero omitted, Abs format (unit mm)*
G04 Created by KiCad (PCBNEW 4.0.4+dfsg1-stable) date Sun Apr 30 12:20:09 2017*
%MOMM*%
%LPD*%
G01*
G04 APERTURE LIST*
%ADD10C,0.150000*%
%ADD11C,1.524000*%
%ADD12C,2.540000*%
%ADD13C,6.350000*%
%ADD14O,0.900000X1.600000*%
%ADD15C,0.685800*%
%ADD16C,0.203200*%
%ADD17C,0.508000*%
%ADD18C,4.826000*%
%ADD19C,3.302000*%
%ADD20C,0.762000*%
%ADD21C,0.254000*%
G04 APERTURE END LIST*
D10*
D11*
X97230000Y-99520000D03*
X97230000Y-102060000D03*
X104215000Y-75390000D03*
X101675000Y-75390000D03*
D12*
X61625000Y-42100000D03*
X58125000Y-42100000D03*
X54625000Y-42100000D03*
X51125000Y-42100000D03*
X47625000Y-42100000D03*
X44125000Y-42100000D03*
X61625000Y-38100000D03*
X58125000Y-38100000D03*
X54625000Y-38100000D03*
X51125000Y-38100000D03*
X47625000Y-38100000D03*
X44125000Y-38100000D03*
X110875000Y-42100000D03*
X107375000Y-42100000D03*
X103875000Y-42100000D03*
X100375000Y-42100000D03*
X96875000Y-42100000D03*
X93375000Y-42100000D03*
X110875000Y-38100000D03*
X107375000Y-38100000D03*
X103875000Y-38100000D03*
X100375000Y-38100000D03*
X96875000Y-38100000D03*
X93375000Y-38100000D03*
D13*
X77500000Y-38100000D03*
D14*
X71451000Y-127841000D03*
X65351000Y-127841000D03*
D15*
X83260000Y-34750000D03*
X84530000Y-34750000D03*
X85800000Y-34750000D03*
X87070000Y-34750000D03*
X87705000Y-35385000D03*
X86435000Y-35385000D03*
X85165000Y-35385000D03*
X83895000Y-35385000D03*
X82625000Y-35385000D03*
X83260000Y-36020000D03*
X84530000Y-36020000D03*
X85800000Y-36020000D03*
X87070000Y-36020000D03*
X88340000Y-36020000D03*
X87705000Y-36655000D03*
X86435000Y-36655000D03*
X85165000Y-36655000D03*
X83895000Y-36655000D03*
X82625000Y-36655000D03*
X92785000Y-111585000D03*
X92785000Y-103330000D03*
X110565000Y-103330000D03*
X110565000Y-112855000D03*
X92785000Y-73485000D03*
X86435000Y-115395000D03*
X86435000Y-74755000D03*
X54685000Y-124285000D03*
X54685000Y-128730000D03*
X48335000Y-128730000D03*
X48335000Y-126825000D03*
X86435000Y-62055000D03*
X86435000Y-68405000D03*
X86435000Y-97615000D03*
X86435000Y-91900000D03*
X86435000Y-86185000D03*
X86435000Y-107775000D03*
X86435000Y-58880000D03*
X105485000Y-58880000D03*
X105485000Y-60785000D03*
X92785000Y-58880000D03*
X92785000Y-48720000D03*
X64845000Y-38560000D03*
X65480000Y-39195000D03*
X65480000Y-37925000D03*
X65480000Y-36655000D03*
X65480000Y-35385000D03*
X66750000Y-35385000D03*
X68020000Y-35385000D03*
X67385000Y-36020000D03*
X68655000Y-36020000D03*
X69290000Y-36655000D03*
X68020000Y-36655000D03*
X66750000Y-36655000D03*
X66115000Y-36020000D03*
X66115000Y-37290000D03*
X66115000Y-38560000D03*
X66115000Y-39830000D03*
X64845000Y-37290000D03*
X64845000Y-36020000D03*
X69925000Y-40465000D03*
X102945000Y-72215000D03*
X102310000Y-53800000D03*
X113105000Y-71580000D03*
X113105000Y-87455000D03*
X103580000Y-71580000D03*
X103580000Y-57610000D03*
X45795000Y-125555000D03*
X52780000Y-125555000D03*
X79450000Y-113490000D03*
X59765000Y-121745000D03*
X93420000Y-113490000D03*
X104215000Y-69040000D03*
X104215000Y-70945000D03*
X93420000Y-70945000D03*
X80720000Y-114760000D03*
X61035000Y-123015000D03*
X95325000Y-98250000D03*
X95325000Y-65865000D03*
X95325000Y-114760000D03*
X59130000Y-121110000D03*
X78815000Y-112855000D03*
X92150000Y-112855000D03*
X92150000Y-65230000D03*
X60400000Y-107775000D03*
X60400000Y-106505000D03*
X60400000Y-105235000D03*
X61035000Y-105870000D03*
X61035000Y-107140000D03*
X61035000Y-108410000D03*
X61670000Y-119205000D03*
X62940000Y-119205000D03*
X62305000Y-119840000D03*
X61035000Y-119840000D03*
X61035000Y-118570000D03*
X62305000Y-118570000D03*
X60400000Y-119205000D03*
X60400000Y-109045000D03*
X80085000Y-114125000D03*
X60400000Y-122380000D03*
X94690000Y-114125000D03*
X94690000Y-64595000D03*
X94055000Y-70310000D03*
X94055000Y-79200000D03*
X92785000Y-67135000D03*
X92785000Y-70310000D03*
X92785000Y-63325000D03*
X93420000Y-69675000D03*
X93420000Y-63960000D03*
X93420000Y-62690000D03*
X93420000Y-60785000D03*
X67385000Y-74120000D03*
X66750000Y-74755000D03*
X66115000Y-74120000D03*
X65480000Y-73485000D03*
X64845000Y-74120000D03*
X65480000Y-74755000D03*
X78180000Y-74755000D03*
X77545000Y-74120000D03*
X77545000Y-72850000D03*
X76910000Y-73485000D03*
X76910000Y-74755000D03*
X77545000Y-75390000D03*
X78180000Y-73485000D03*
X66750000Y-73485000D03*
X65480000Y-55705000D03*
X66115000Y-55070000D03*
X67385000Y-55070000D03*
X66750000Y-54435000D03*
X65480000Y-54435000D03*
X64845000Y-55070000D03*
X78180000Y-54435000D03*
X77545000Y-55070000D03*
X77545000Y-56340000D03*
X78815000Y-56340000D03*
X78815000Y-55070000D03*
X78180000Y-55705000D03*
X66750000Y-55705000D03*
X94055000Y-62055000D03*
X94055000Y-65865000D03*
X88975000Y-87455000D03*
X88975000Y-72850000D03*
X88975000Y-83010000D03*
X101675000Y-72850000D03*
X101675000Y-69040000D03*
X91515000Y-93805000D03*
X91515000Y-61420000D03*
X90245000Y-60150000D03*
X90245000Y-84915000D03*
X66750000Y-97615000D03*
X65480000Y-97615000D03*
X64210000Y-97615000D03*
X64845000Y-98250000D03*
X66115000Y-98250000D03*
X67385000Y-98250000D03*
X78180000Y-98885000D03*
X78815000Y-98250000D03*
X78815000Y-96980000D03*
X78180000Y-96345000D03*
X77545000Y-96980000D03*
X77545000Y-98250000D03*
X78180000Y-97615000D03*
X68020000Y-97615000D03*
X65480000Y-79200000D03*
X64210000Y-79200000D03*
X62940000Y-79200000D03*
X63575000Y-78565000D03*
X64845000Y-78565000D03*
X66115000Y-78565000D03*
X67385000Y-78565000D03*
X78180000Y-80470000D03*
X78815000Y-79835000D03*
X78815000Y-78565000D03*
X78180000Y-77930000D03*
X77545000Y-78565000D03*
X77545000Y-79835000D03*
X78180000Y-79200000D03*
X66750000Y-79200000D03*
X88340000Y-89995000D03*
X88340000Y-59515000D03*
X104850000Y-51260000D03*
X104850000Y-65865000D03*
X104215000Y-49990000D03*
X104215000Y-64595000D03*
X106120000Y-57610000D03*
X105485000Y-77295000D03*
X114375000Y-101425000D03*
X114375000Y-77295000D03*
X99770000Y-73485000D03*
X98500000Y-49355000D03*
X104850000Y-69675000D03*
X104850000Y-73485000D03*
X96595000Y-49355000D03*
X96595000Y-53165000D03*
X100405000Y-53165000D03*
X101675000Y-60150000D03*
X101040000Y-49990000D03*
X102310000Y-59515000D03*
X71830000Y-119840000D03*
X73735000Y-124285000D03*
X41985000Y-127460000D03*
X42620000Y-120475000D03*
X113740000Y-86185000D03*
X95960000Y-83645000D03*
X96595000Y-91265000D03*
X96495000Y-88625000D03*
X85165000Y-94440000D03*
X87070000Y-54435000D03*
X85800000Y-51895000D03*
X85800000Y-53165000D03*
X85800000Y-54435000D03*
X85800000Y-55705000D03*
X85800000Y-56975000D03*
X86435000Y-57610000D03*
X87070000Y-56975000D03*
X86435000Y-56340000D03*
X87070000Y-55705000D03*
X86435000Y-55070000D03*
X86435000Y-53800000D03*
X86435000Y-52530000D03*
X87070000Y-51895000D03*
X87070000Y-53165000D03*
X85165000Y-101425000D03*
X84530000Y-102060000D03*
X84530000Y-103330000D03*
X84530000Y-104600000D03*
X85165000Y-103965000D03*
X85165000Y-102695000D03*
X83260000Y-103330000D03*
X83260000Y-104600000D03*
X83895000Y-105235000D03*
X83895000Y-103965000D03*
X83895000Y-102695000D03*
X64210000Y-104600000D03*
X64210000Y-103330000D03*
X64210000Y-102060000D03*
X64845000Y-102695000D03*
X64845000Y-103965000D03*
X65480000Y-104600000D03*
X65480000Y-103330000D03*
X65480000Y-102060000D03*
X66750000Y-102060000D03*
X66115000Y-102695000D03*
X66115000Y-103965000D03*
X66750000Y-103330000D03*
X67385000Y-102695000D03*
X67385000Y-103965000D03*
X85165000Y-76025000D03*
X97230000Y-74755000D03*
X113740000Y-84915000D03*
X113740000Y-67135000D03*
X106755000Y-69040000D03*
X95960000Y-84915000D03*
X95960000Y-91900000D03*
X45795000Y-98250000D03*
X47065000Y-98250000D03*
X48335000Y-98250000D03*
X49605000Y-98250000D03*
X50875000Y-98250000D03*
X52145000Y-98250000D03*
X52780000Y-98885000D03*
X51510000Y-98885000D03*
X52145000Y-99520000D03*
X50875000Y-99520000D03*
X50240000Y-98885000D03*
X48970000Y-98885000D03*
X49605000Y-99520000D03*
X48335000Y-99520000D03*
X47700000Y-98885000D03*
X46430000Y-98885000D03*
X45160000Y-98885000D03*
X45795000Y-99520000D03*
X47065000Y-99520000D03*
X58495000Y-122380000D03*
X83895000Y-88725000D03*
X82625000Y-81740000D03*
X83895000Y-81740000D03*
X85165000Y-79200000D03*
X106755000Y-76025000D03*
X94055000Y-128730000D03*
X94055000Y-127460000D03*
X111200000Y-128730000D03*
X111200000Y-127460000D03*
X97865000Y-105870000D03*
X113740000Y-62055000D03*
X83895000Y-64595000D03*
X83895000Y-67135000D03*
X113105000Y-120475000D03*
X113105000Y-118570000D03*
X96595000Y-80470000D03*
X64210000Y-46180000D03*
X64845000Y-46815000D03*
X64210000Y-47450000D03*
X64845000Y-48085000D03*
X64210000Y-48720000D03*
X64210000Y-49990000D03*
X64210000Y-51260000D03*
X64845000Y-51895000D03*
X66115000Y-51895000D03*
X65480000Y-51260000D03*
X64845000Y-50625000D03*
X64845000Y-49355000D03*
X66115000Y-49355000D03*
X65480000Y-49990000D03*
X65480000Y-48720000D03*
X65480000Y-47450000D03*
X65480000Y-46180000D03*
X66115000Y-50625000D03*
X105485000Y-54435000D03*
X111835000Y-46180000D03*
X111835000Y-50625000D03*
X110565000Y-46180000D03*
X49605000Y-123650000D03*
X52145000Y-123650000D03*
X101040000Y-58245000D03*
X79450000Y-51260000D03*
X48970000Y-102695000D03*
X48970000Y-103965000D03*
X48335000Y-103330000D03*
X47700000Y-102695000D03*
X47700000Y-103965000D03*
X47065000Y-103330000D03*
X46430000Y-102695000D03*
X46430000Y-103965000D03*
X55320000Y-102695000D03*
X55320000Y-103965000D03*
X55955000Y-103330000D03*
X56590000Y-102695000D03*
X56590000Y-103965000D03*
X57225000Y-103330000D03*
X57860000Y-102695000D03*
X57860000Y-103965000D03*
X58495000Y-72850000D03*
X57860000Y-72215000D03*
X57225000Y-71580000D03*
X58495000Y-71580000D03*
X57860000Y-70945000D03*
X57225000Y-70310000D03*
X58495000Y-70310000D03*
X57860000Y-69675000D03*
X57225000Y-69040000D03*
X58495000Y-69040000D03*
X57860000Y-68405000D03*
X57225000Y-67770000D03*
X58495000Y-67770000D03*
X57860000Y-67135000D03*
X57225000Y-66500000D03*
X58495000Y-66500000D03*
X57860000Y-65865000D03*
X57225000Y-65230000D03*
X58495000Y-65230000D03*
X57860000Y-64595000D03*
X57225000Y-63960000D03*
X58495000Y-63960000D03*
X57860000Y-63325000D03*
X57225000Y-62690000D03*
X58495000Y-62690000D03*
X57860000Y-62055000D03*
X57225000Y-61420000D03*
X58495000Y-61420000D03*
X57860000Y-60785000D03*
X57225000Y-60150000D03*
X58495000Y-60150000D03*
X57860000Y-59515000D03*
X57225000Y-58880000D03*
X58495000Y-58880000D03*
X57860000Y-58245000D03*
X57225000Y-57610000D03*
X58495000Y-57610000D03*
X57860000Y-56975000D03*
X57225000Y-56340000D03*
X58495000Y-56340000D03*
X57860000Y-55705000D03*
X61670000Y-61420000D03*
X62940000Y-61420000D03*
X62305000Y-60785000D03*
X62940000Y-60150000D03*
X61670000Y-60150000D03*
X62305000Y-59515000D03*
X61670000Y-58880000D03*
X62940000Y-58880000D03*
X61670000Y-70310000D03*
X62940000Y-70310000D03*
X62305000Y-69675000D03*
X62940000Y-69040000D03*
X61670000Y-69040000D03*
X62305000Y-68405000D03*
X62940000Y-67770000D03*
X61670000Y-67770000D03*
X57860000Y-89995000D03*
X57860000Y-86185000D03*
X58495000Y-86820000D03*
X57860000Y-87455000D03*
X58495000Y-88090000D03*
X57860000Y-88725000D03*
X58495000Y-89360000D03*
X58495000Y-93170000D03*
X58495000Y-91900000D03*
X58495000Y-90630000D03*
X57860000Y-91265000D03*
X57860000Y-92535000D03*
X61670000Y-91900000D03*
X62305000Y-92535000D03*
X61670000Y-93170000D03*
X62305000Y-93805000D03*
X61670000Y-94440000D03*
X62940000Y-94440000D03*
X62940000Y-93170000D03*
X62940000Y-91900000D03*
X58495000Y-83010000D03*
X58495000Y-84280000D03*
X58495000Y-85550000D03*
X57860000Y-84915000D03*
X57860000Y-83645000D03*
X57860000Y-82375000D03*
X61670000Y-83645000D03*
X62305000Y-84280000D03*
X61670000Y-84915000D03*
X62305000Y-85550000D03*
X62940000Y-84915000D03*
X62940000Y-83645000D03*
X62305000Y-83010000D03*
X87705000Y-116665000D03*
X101040000Y-72215000D03*
X102310000Y-61420000D03*
X87705000Y-72215000D03*
X87070000Y-116030000D03*
X101675000Y-62055000D03*
X87070000Y-71580000D03*
X100405000Y-71580000D03*
X89610000Y-58245000D03*
X89610000Y-109680000D03*
X90880000Y-110950000D03*
X90880000Y-57610000D03*
X90880000Y-102060000D03*
X94055000Y-104600000D03*
X94055000Y-117300000D03*
X99135000Y-106505000D03*
X99135000Y-103965000D03*
X91515000Y-117935000D03*
X91515000Y-103965000D03*
X95960000Y-109680000D03*
X112470000Y-86185000D03*
X112470000Y-75390000D03*
X113740000Y-37925000D03*
X113740000Y-60150000D03*
X113105000Y-36020000D03*
X113105000Y-58245000D03*
X109930000Y-55070000D03*
X112470000Y-35385000D03*
D16*
X85165000Y-39830000D02*
X85165000Y-39195000D01*
X84530000Y-34750000D02*
X83260000Y-34750000D01*
X87070000Y-34750000D02*
X85800000Y-34750000D01*
X86435000Y-35385000D02*
X87705000Y-35385000D01*
X83895000Y-35385000D02*
X85165000Y-35385000D01*
X83260000Y-36020000D02*
X82625000Y-35385000D01*
X85800000Y-36020000D02*
X84530000Y-36020000D01*
X88340000Y-36020000D02*
X87070000Y-36020000D01*
X86435000Y-36655000D02*
X87705000Y-36655000D01*
X83895000Y-36655000D02*
X85165000Y-36655000D01*
X85165000Y-39195000D02*
X82625000Y-36655000D01*
X92785000Y-111585000D02*
X92785000Y-103330000D01*
X110565000Y-103330000D02*
X110565000Y-112855000D01*
X92785000Y-73485000D02*
X92785000Y-103330000D01*
X86435000Y-107775000D02*
X86435000Y-115395000D01*
D17*
X93375000Y-38100000D02*
X96875000Y-38100000D01*
X90880000Y-43640000D02*
X90880000Y-40595000D01*
X92785000Y-45545000D02*
X90880000Y-43640000D01*
X92785000Y-48720000D02*
X92785000Y-45545000D01*
X90880000Y-40595000D02*
X93375000Y-38100000D01*
D16*
X54685000Y-124285000D02*
X54685000Y-128730000D01*
X48335000Y-128730000D02*
X48335000Y-126825000D01*
X86435000Y-107775000D02*
X86435000Y-97615000D01*
X86435000Y-97615000D02*
X86435000Y-91900000D01*
X86435000Y-91900000D02*
X86435000Y-86185000D01*
X86435000Y-86185000D02*
X86435000Y-74755000D01*
X86435000Y-74755000D02*
X86435000Y-68405000D01*
X86435000Y-68405000D02*
X86435000Y-62055000D01*
X86435000Y-62055000D02*
X86435000Y-58880000D01*
X105485000Y-58880000D02*
X105485000Y-60785000D01*
D17*
X92785000Y-48720000D02*
X92785000Y-58880000D01*
D16*
X69925000Y-40465000D02*
X66750000Y-40465000D01*
X64845000Y-38560000D02*
X64845000Y-37290000D01*
X65480000Y-37925000D02*
X65480000Y-39195000D01*
X65480000Y-35385000D02*
X65480000Y-36655000D01*
X68020000Y-35385000D02*
X66750000Y-35385000D01*
X68655000Y-36020000D02*
X67385000Y-36020000D01*
X68020000Y-36655000D02*
X69290000Y-36655000D01*
X66115000Y-36020000D02*
X66750000Y-36655000D01*
X66115000Y-38560000D02*
X66115000Y-37290000D01*
X66750000Y-40465000D02*
X66115000Y-39830000D01*
X64845000Y-36020000D02*
X64845000Y-37290000D01*
D18*
X64845000Y-37290000D02*
X58495000Y-37290000D01*
D16*
X102310000Y-53800000D02*
X102945000Y-54435000D01*
X102945000Y-72215000D02*
X102945000Y-54435000D01*
X113105000Y-87455000D02*
X113105000Y-71580000D01*
X103580000Y-71580000D02*
X103580000Y-73485000D01*
X103580000Y-73485000D02*
X101675000Y-75390000D01*
X103580000Y-71580000D02*
X103580000Y-57610000D01*
X52780000Y-125555000D02*
X45795000Y-125555000D01*
X79450000Y-121110000D02*
X79450000Y-113490000D01*
X78815000Y-121745000D02*
X79450000Y-121110000D01*
X59765000Y-121745000D02*
X78815000Y-121745000D01*
X104215000Y-70945000D02*
X104215000Y-69040000D01*
X93420000Y-113490000D02*
X93420000Y-70945000D01*
X80720000Y-122380000D02*
X80720000Y-114760000D01*
X80085000Y-123015000D02*
X80720000Y-122380000D01*
X61035000Y-123015000D02*
X80085000Y-123015000D01*
X95325000Y-65865000D02*
X95325000Y-98250000D01*
X95325000Y-98250000D02*
X95325000Y-114760000D01*
X59130000Y-121110000D02*
X78180000Y-121110000D01*
X78180000Y-121110000D02*
X78815000Y-120475000D01*
X78815000Y-120475000D02*
X78815000Y-112855000D01*
X92150000Y-112855000D02*
X92150000Y-65230000D01*
D19*
X61035000Y-118570000D02*
X61035000Y-105870000D01*
D20*
X60400000Y-107775000D02*
X60400000Y-106505000D01*
X60400000Y-105235000D02*
X61035000Y-105870000D01*
X61035000Y-107140000D02*
X61035000Y-108410000D01*
X60400000Y-119205000D02*
X61670000Y-119205000D01*
X62940000Y-119205000D02*
X62305000Y-119840000D01*
X61035000Y-119840000D02*
X61035000Y-118570000D01*
X60400000Y-119205000D02*
X60400000Y-109045000D01*
D16*
X80085000Y-121745000D02*
X80085000Y-114125000D01*
X79450000Y-122380000D02*
X80085000Y-121745000D01*
X60400000Y-122380000D02*
X79450000Y-122380000D01*
X94690000Y-114125000D02*
X94690000Y-64595000D01*
X94055000Y-79200000D02*
X94055000Y-70310000D01*
X92785000Y-70310000D02*
X92785000Y-67135000D01*
X92785000Y-67135000D02*
X92785000Y-63325000D01*
X93420000Y-69675000D02*
X93420000Y-63960000D01*
X93420000Y-60785000D02*
X93420000Y-62690000D01*
D19*
X77545000Y-74120000D02*
X66115000Y-74120000D01*
D20*
X67385000Y-74120000D02*
X66750000Y-74755000D01*
X66115000Y-74120000D02*
X65480000Y-73485000D01*
X64845000Y-74120000D02*
X65480000Y-74755000D01*
X78180000Y-74755000D02*
X77545000Y-74120000D01*
X77545000Y-72850000D02*
X76910000Y-73485000D01*
X76910000Y-74755000D02*
X77545000Y-75390000D01*
X78180000Y-73485000D02*
X66750000Y-73485000D01*
D19*
X78180000Y-55705000D02*
X65480000Y-55705000D01*
D20*
X66750000Y-55705000D02*
X65480000Y-55705000D01*
X66115000Y-55070000D02*
X67385000Y-55070000D01*
X66750000Y-54435000D02*
X65480000Y-54435000D01*
X78180000Y-54435000D02*
X77545000Y-55070000D01*
X77545000Y-56340000D02*
X78815000Y-56340000D01*
X78180000Y-55705000D02*
X66750000Y-55705000D01*
D16*
X94055000Y-65865000D02*
X94055000Y-62055000D01*
X88975000Y-83010000D02*
X88975000Y-87455000D01*
X88975000Y-83010000D02*
X88975000Y-72850000D01*
X101675000Y-72850000D02*
X101675000Y-69040000D01*
X91515000Y-61420000D02*
X91515000Y-93805000D01*
X90245000Y-84915000D02*
X90245000Y-60150000D01*
D19*
X78180000Y-97615000D02*
X65480000Y-97615000D01*
D20*
X68020000Y-97615000D02*
X66750000Y-97615000D01*
X65480000Y-97615000D02*
X64210000Y-97615000D01*
X64845000Y-98250000D02*
X66115000Y-98250000D01*
X78180000Y-98885000D02*
X78815000Y-98250000D01*
X78815000Y-96980000D02*
X78180000Y-96345000D01*
X77545000Y-96980000D02*
X77545000Y-98250000D01*
X78180000Y-97615000D02*
X68020000Y-97615000D01*
D19*
X78180000Y-79200000D02*
X64210000Y-79200000D01*
D20*
X66750000Y-79200000D02*
X65480000Y-79200000D01*
X64210000Y-79200000D02*
X62940000Y-79200000D01*
X63575000Y-78565000D02*
X64845000Y-78565000D01*
X66115000Y-78565000D02*
X67385000Y-78565000D01*
X78180000Y-79200000D02*
X78180000Y-80470000D01*
X78815000Y-79835000D02*
X78815000Y-78565000D01*
X78180000Y-77930000D02*
X77545000Y-78565000D01*
X78180000Y-79200000D02*
X66750000Y-79200000D01*
D16*
X88340000Y-59515000D02*
X88340000Y-89995000D01*
X107375000Y-43655000D02*
X104850000Y-46180000D01*
X104850000Y-46180000D02*
X104850000Y-51260000D01*
X104850000Y-51260000D02*
X104850000Y-65865000D01*
X107375000Y-43655000D02*
X107375000Y-42100000D01*
X103875000Y-42100000D02*
X103875000Y-43935000D01*
X104215000Y-44275000D02*
X104215000Y-49990000D01*
X104215000Y-49990000D02*
X104215000Y-64595000D01*
X103875000Y-43935000D02*
X104215000Y-44275000D01*
X106120000Y-57610000D02*
X106120000Y-61420000D01*
X106120000Y-61420000D02*
X105485000Y-62055000D01*
X105485000Y-62055000D02*
X105485000Y-77295000D01*
X114375000Y-77295000D02*
X114375000Y-101425000D01*
X98500000Y-49355000D02*
X99770000Y-50625000D01*
X99770000Y-50625000D02*
X99770000Y-73485000D01*
X104850000Y-73485000D02*
X104850000Y-69675000D01*
X96595000Y-53165000D02*
X96595000Y-49355000D01*
X100405000Y-56340000D02*
X100405000Y-53165000D01*
X101675000Y-57610000D02*
X100405000Y-56340000D01*
X101675000Y-60150000D02*
X101675000Y-57610000D01*
X101040000Y-55705000D02*
X101040000Y-49990000D01*
X102310000Y-56975000D02*
X101040000Y-55705000D01*
X102310000Y-59515000D02*
X102310000Y-56975000D01*
X96495000Y-88625000D02*
X96595000Y-88725000D01*
X87070000Y-54435000D02*
X87070000Y-53165000D01*
X85800000Y-54435000D02*
X85800000Y-53165000D01*
X85800000Y-56975000D02*
X85800000Y-55705000D01*
X87070000Y-56975000D02*
X86435000Y-57610000D01*
X87070000Y-55705000D02*
X86435000Y-56340000D01*
X86435000Y-53800000D02*
X86435000Y-55070000D01*
X87070000Y-51895000D02*
X86435000Y-52530000D01*
X84530000Y-102060000D02*
X85165000Y-101425000D01*
X84530000Y-104600000D02*
X84530000Y-103330000D01*
X85165000Y-102695000D02*
X85165000Y-103965000D01*
X83895000Y-105235000D02*
X83260000Y-104600000D01*
X83895000Y-102695000D02*
X83895000Y-103965000D01*
X64210000Y-103330000D02*
X64210000Y-104600000D01*
X64845000Y-102695000D02*
X64210000Y-102060000D01*
X65480000Y-104600000D02*
X64845000Y-103965000D01*
X65480000Y-102060000D02*
X65480000Y-103330000D01*
X66115000Y-102695000D02*
X66750000Y-102060000D01*
X66750000Y-103330000D02*
X66115000Y-103965000D01*
X67385000Y-103965000D02*
X67385000Y-102695000D01*
X113740000Y-67135000D02*
X113740000Y-84915000D01*
X48335000Y-98250000D02*
X47065000Y-98250000D01*
X50875000Y-98250000D02*
X49605000Y-98250000D01*
X52780000Y-98885000D02*
X52145000Y-98250000D01*
X52145000Y-99520000D02*
X51510000Y-98885000D01*
X50240000Y-98885000D02*
X50875000Y-99520000D01*
X49605000Y-99520000D02*
X48970000Y-98885000D01*
X47700000Y-98885000D02*
X48335000Y-99520000D01*
X45160000Y-98885000D02*
X46430000Y-98885000D01*
X47065000Y-99520000D02*
X45795000Y-99520000D01*
X64210000Y-47450000D02*
X64845000Y-46815000D01*
X64210000Y-48720000D02*
X64845000Y-48085000D01*
X64210000Y-51260000D02*
X64210000Y-49990000D01*
X66115000Y-51895000D02*
X64845000Y-51895000D01*
X64845000Y-50625000D02*
X65480000Y-51260000D01*
X66115000Y-49355000D02*
X64845000Y-49355000D01*
X65480000Y-48720000D02*
X65480000Y-49990000D01*
X65480000Y-46180000D02*
X65480000Y-47450000D01*
X48970000Y-102695000D02*
X48970000Y-103965000D01*
X48335000Y-103330000D02*
X47700000Y-102695000D01*
X47700000Y-103965000D02*
X47065000Y-103330000D01*
X46430000Y-102695000D02*
X46430000Y-103965000D01*
X55320000Y-102695000D02*
X55320000Y-103965000D01*
X55955000Y-103330000D02*
X56590000Y-102695000D01*
X56590000Y-103965000D02*
X57225000Y-103330000D01*
X57860000Y-102695000D02*
X57860000Y-103965000D01*
X58495000Y-72850000D02*
X57860000Y-72215000D01*
X57225000Y-71580000D02*
X58495000Y-71580000D01*
X57860000Y-70945000D02*
X57225000Y-70310000D01*
X58495000Y-70310000D02*
X57860000Y-69675000D01*
X57225000Y-69040000D02*
X58495000Y-69040000D01*
X57860000Y-68405000D02*
X57225000Y-67770000D01*
X58495000Y-67770000D02*
X57860000Y-67135000D01*
X57225000Y-66500000D02*
X58495000Y-66500000D01*
X57860000Y-65865000D02*
X57225000Y-65230000D01*
X58495000Y-65230000D02*
X57860000Y-64595000D01*
X57225000Y-63960000D02*
X58495000Y-63960000D01*
X57860000Y-63325000D02*
X57225000Y-62690000D01*
X58495000Y-62690000D02*
X57860000Y-62055000D01*
X57225000Y-61420000D02*
X58495000Y-61420000D01*
X57860000Y-60785000D02*
X57225000Y-60150000D01*
X58495000Y-60150000D02*
X57860000Y-59515000D01*
X57225000Y-58880000D02*
X58495000Y-58880000D01*
X57860000Y-58245000D02*
X57225000Y-57610000D01*
X58495000Y-57610000D02*
X57860000Y-56975000D01*
X57225000Y-56340000D02*
X58495000Y-56340000D01*
X61670000Y-61420000D02*
X62940000Y-61420000D01*
X62305000Y-60785000D02*
X62940000Y-60150000D01*
X61670000Y-60150000D02*
X62305000Y-59515000D01*
X61670000Y-58880000D02*
X62940000Y-58880000D01*
X61670000Y-70310000D02*
X62940000Y-70310000D01*
X62305000Y-69675000D02*
X62940000Y-69040000D01*
X61670000Y-69040000D02*
X62305000Y-68405000D01*
X62940000Y-67770000D02*
X61670000Y-67770000D01*
X58495000Y-85550000D02*
X57860000Y-86185000D01*
X58495000Y-86820000D02*
X57860000Y-87455000D01*
X58495000Y-88090000D02*
X57860000Y-88725000D01*
X58495000Y-89360000D02*
X57860000Y-89995000D01*
X58495000Y-93170000D02*
X58495000Y-91900000D01*
X58495000Y-90630000D02*
X57860000Y-91265000D01*
X61670000Y-91900000D02*
X62305000Y-92535000D01*
X61670000Y-93170000D02*
X62305000Y-93805000D01*
X61670000Y-94440000D02*
X62940000Y-94440000D01*
X62940000Y-93170000D02*
X62940000Y-91900000D01*
X58495000Y-83010000D02*
X58495000Y-84280000D01*
X58495000Y-85550000D02*
X57860000Y-84915000D01*
X57860000Y-83645000D02*
X57860000Y-82375000D01*
X61670000Y-83645000D02*
X62305000Y-84280000D01*
X61670000Y-84915000D02*
X62305000Y-85550000D01*
X62940000Y-84915000D02*
X62940000Y-83645000D01*
X102310000Y-67135000D02*
X101040000Y-68405000D01*
X101040000Y-68405000D02*
X101040000Y-72215000D01*
X102310000Y-61420000D02*
X102310000Y-67135000D01*
X87705000Y-72215000D02*
X87705000Y-116665000D01*
X101675000Y-62055000D02*
X101675000Y-66500000D01*
X87070000Y-71580000D02*
X87070000Y-116030000D01*
X100405000Y-67770000D02*
X100405000Y-71580000D01*
X101675000Y-66500000D02*
X100405000Y-67770000D01*
X89610000Y-58245000D02*
X89610000Y-109680000D01*
X90880000Y-110950000D02*
X90880000Y-102060000D01*
X90880000Y-102060000D02*
X90880000Y-57610000D01*
X94055000Y-117300000D02*
X94055000Y-104600000D01*
X99135000Y-103965000D02*
X99135000Y-106505000D01*
X91515000Y-103965000D02*
X91515000Y-117935000D01*
X95960000Y-100155000D02*
X96595000Y-99520000D01*
X95960000Y-109680000D02*
X95960000Y-100155000D01*
X96595000Y-99520000D02*
X97230000Y-99520000D01*
X112470000Y-75390000D02*
X112470000Y-86185000D01*
X113740000Y-60150000D02*
X113740000Y-37925000D01*
X113105000Y-58245000D02*
X113105000Y-36020000D01*
X112470000Y-35385000D02*
X112470000Y-52530000D01*
X109930000Y-55070000D02*
X112470000Y-52530000D01*
D21*
G36*
X113892400Y-100883901D02*
X113761665Y-101014408D01*
X113651226Y-101280376D01*
X113650975Y-101568361D01*
X113760950Y-101834521D01*
X113964408Y-102038335D01*
X114230376Y-102148774D01*
X114518361Y-102149025D01*
X114784521Y-102039050D01*
X114873000Y-101950726D01*
X114873000Y-126190000D01*
X114883000Y-126239380D01*
X114883000Y-128934000D01*
X110057000Y-128934000D01*
X110057000Y-125555000D01*
X110046994Y-125505590D01*
X110018553Y-125463965D01*
X109976159Y-125436685D01*
X109930000Y-125428000D01*
X95325000Y-125428000D01*
X95275590Y-125438006D01*
X95233965Y-125466447D01*
X95206685Y-125508841D01*
X95198000Y-125555000D01*
X95198000Y-128934000D01*
X81482000Y-128934000D01*
X81482000Y-114887000D01*
X85919243Y-114887000D01*
X85821665Y-114984408D01*
X85711226Y-115250376D01*
X85710975Y-115538361D01*
X85820950Y-115804521D01*
X86024408Y-116008335D01*
X86290376Y-116118774D01*
X86346023Y-116118823D01*
X86345975Y-116173361D01*
X86455950Y-116439521D01*
X86659408Y-116643335D01*
X86925376Y-116753774D01*
X86981023Y-116753823D01*
X86980975Y-116808361D01*
X87090950Y-117074521D01*
X87294408Y-117278335D01*
X87560376Y-117388774D01*
X87848361Y-117389025D01*
X88114521Y-117279050D01*
X88318335Y-117075592D01*
X88428774Y-116809624D01*
X88429025Y-116521639D01*
X88319050Y-116255479D01*
X88187600Y-116123799D01*
X88187600Y-114887000D01*
X91032400Y-114887000D01*
X91032400Y-117393901D01*
X90901665Y-117524408D01*
X90791226Y-117790376D01*
X90790975Y-118078361D01*
X90900950Y-118344521D01*
X91104408Y-118548335D01*
X91370376Y-118658774D01*
X91658361Y-118659025D01*
X91924521Y-118549050D01*
X92128335Y-118345592D01*
X92238774Y-118079624D01*
X92239025Y-117791639D01*
X92129050Y-117525479D01*
X91997600Y-117393799D01*
X91997600Y-114887000D01*
X93572400Y-114887000D01*
X93572400Y-116758901D01*
X93441665Y-116889408D01*
X93331226Y-117155376D01*
X93330975Y-117443361D01*
X93440950Y-117709521D01*
X93644408Y-117913335D01*
X93910376Y-118023774D01*
X94198361Y-118024025D01*
X94464521Y-117914050D01*
X94668335Y-117710592D01*
X94778774Y-117444624D01*
X94779025Y-117156639D01*
X94669050Y-116890479D01*
X94537600Y-116758799D01*
X94537600Y-114845545D01*
X94545376Y-114848774D01*
X94601023Y-114848823D01*
X94600975Y-114903361D01*
X94710950Y-115169521D01*
X94914408Y-115373335D01*
X95180376Y-115483774D01*
X95468361Y-115484025D01*
X95734521Y-115374050D01*
X95938335Y-115170592D01*
X96048774Y-114904624D01*
X96049025Y-114616639D01*
X95939050Y-114350479D01*
X95807600Y-114218799D01*
X95807600Y-110400545D01*
X95815376Y-110403774D01*
X96103361Y-110404025D01*
X96369521Y-110294050D01*
X96573335Y-110090592D01*
X96683774Y-109824624D01*
X96684025Y-109536639D01*
X96574050Y-109270479D01*
X96442600Y-109138799D01*
X96442600Y-104108361D01*
X98410975Y-104108361D01*
X98520950Y-104374521D01*
X98652400Y-104506201D01*
X98652400Y-105963901D01*
X98521665Y-106094408D01*
X98411226Y-106360376D01*
X98410975Y-106648361D01*
X98520950Y-106914521D01*
X98724408Y-107118335D01*
X98990376Y-107228774D01*
X99278361Y-107229025D01*
X99544521Y-107119050D01*
X99748335Y-106915592D01*
X99858774Y-106649624D01*
X99859025Y-106361639D01*
X99749050Y-106095479D01*
X99617600Y-105963799D01*
X99617600Y-104506099D01*
X99748335Y-104375592D01*
X99858774Y-104109624D01*
X99859025Y-103821639D01*
X99749050Y-103555479D01*
X99667076Y-103473361D01*
X109840975Y-103473361D01*
X109950950Y-103739521D01*
X110082400Y-103871201D01*
X110082400Y-112313901D01*
X109951665Y-112444408D01*
X109841226Y-112710376D01*
X109840975Y-112998361D01*
X109950950Y-113264521D01*
X110154408Y-113468335D01*
X110420376Y-113578774D01*
X110708361Y-113579025D01*
X110974521Y-113469050D01*
X111178335Y-113265592D01*
X111288774Y-112999624D01*
X111289025Y-112711639D01*
X111179050Y-112445479D01*
X111047600Y-112313799D01*
X111047600Y-103871099D01*
X111178335Y-103740592D01*
X111288774Y-103474624D01*
X111289025Y-103186639D01*
X111179050Y-102920479D01*
X110975592Y-102716665D01*
X110709624Y-102606226D01*
X110421639Y-102605975D01*
X110155479Y-102715950D01*
X109951665Y-102919408D01*
X109841226Y-103185376D01*
X109840975Y-103473361D01*
X99667076Y-103473361D01*
X99545592Y-103351665D01*
X99279624Y-103241226D01*
X98991639Y-103240975D01*
X98725479Y-103350950D01*
X98521665Y-103554408D01*
X98411226Y-103820376D01*
X98410975Y-104108361D01*
X96442600Y-104108361D01*
X96442600Y-102889084D01*
X96581697Y-103028423D01*
X97001646Y-103202801D01*
X97456359Y-103203198D01*
X97876612Y-103029554D01*
X98198423Y-102708303D01*
X98372801Y-102288354D01*
X98373198Y-101833641D01*
X98199554Y-101413388D01*
X97878303Y-101091577D01*
X97458354Y-100917199D01*
X97003641Y-100916802D01*
X96583388Y-101090446D01*
X96442600Y-101230989D01*
X96442600Y-100354900D01*
X96445506Y-100351994D01*
X96581697Y-100488423D01*
X97001646Y-100662801D01*
X97456359Y-100663198D01*
X97876612Y-100489554D01*
X98198423Y-100168303D01*
X98372801Y-99748354D01*
X98373198Y-99293641D01*
X98199554Y-98873388D01*
X97878303Y-98551577D01*
X97458354Y-98377199D01*
X97003641Y-98376802D01*
X96583388Y-98550446D01*
X96261577Y-98871697D01*
X96087199Y-99291646D01*
X96087152Y-99345349D01*
X95807600Y-99624900D01*
X95807600Y-98791099D01*
X95938335Y-98660592D01*
X96048774Y-98394624D01*
X96049025Y-98106639D01*
X95939050Y-97840479D01*
X95807600Y-97708799D01*
X95807600Y-93932000D01*
X113892400Y-93932000D01*
X113892400Y-100883901D01*
X113892400Y-100883901D01*
G37*
X113892400Y-100883901D02*
X113761665Y-101014408D01*
X113651226Y-101280376D01*
X113650975Y-101568361D01*
X113760950Y-101834521D01*
X113964408Y-102038335D01*
X114230376Y-102148774D01*
X114518361Y-102149025D01*
X114784521Y-102039050D01*
X114873000Y-101950726D01*
X114873000Y-126190000D01*
X114883000Y-126239380D01*
X114883000Y-128934000D01*
X110057000Y-128934000D01*
X110057000Y-125555000D01*
X110046994Y-125505590D01*
X110018553Y-125463965D01*
X109976159Y-125436685D01*
X109930000Y-125428000D01*
X95325000Y-125428000D01*
X95275590Y-125438006D01*
X95233965Y-125466447D01*
X95206685Y-125508841D01*
X95198000Y-125555000D01*
X95198000Y-128934000D01*
X81482000Y-128934000D01*
X81482000Y-114887000D01*
X85919243Y-114887000D01*
X85821665Y-114984408D01*
X85711226Y-115250376D01*
X85710975Y-115538361D01*
X85820950Y-115804521D01*
X86024408Y-116008335D01*
X86290376Y-116118774D01*
X86346023Y-116118823D01*
X86345975Y-116173361D01*
X86455950Y-116439521D01*
X86659408Y-116643335D01*
X86925376Y-116753774D01*
X86981023Y-116753823D01*
X86980975Y-116808361D01*
X87090950Y-117074521D01*
X87294408Y-117278335D01*
X87560376Y-117388774D01*
X87848361Y-117389025D01*
X88114521Y-117279050D01*
X88318335Y-117075592D01*
X88428774Y-116809624D01*
X88429025Y-116521639D01*
X88319050Y-116255479D01*
X88187600Y-116123799D01*
X88187600Y-114887000D01*
X91032400Y-114887000D01*
X91032400Y-117393901D01*
X90901665Y-117524408D01*
X90791226Y-117790376D01*
X90790975Y-118078361D01*
X90900950Y-118344521D01*
X91104408Y-118548335D01*
X91370376Y-118658774D01*
X91658361Y-118659025D01*
X91924521Y-118549050D01*
X92128335Y-118345592D01*
X92238774Y-118079624D01*
X92239025Y-117791639D01*
X92129050Y-117525479D01*
X91997600Y-117393799D01*
X91997600Y-114887000D01*
X93572400Y-114887000D01*
X93572400Y-116758901D01*
X93441665Y-116889408D01*
X93331226Y-117155376D01*
X93330975Y-117443361D01*
X93440950Y-117709521D01*
X93644408Y-117913335D01*
X93910376Y-118023774D01*
X94198361Y-118024025D01*
X94464521Y-117914050D01*
X94668335Y-117710592D01*
X94778774Y-117444624D01*
X94779025Y-117156639D01*
X94669050Y-116890479D01*
X94537600Y-116758799D01*
X94537600Y-114845545D01*
X94545376Y-114848774D01*
X94601023Y-114848823D01*
X94600975Y-114903361D01*
X94710950Y-115169521D01*
X94914408Y-115373335D01*
X95180376Y-115483774D01*
X95468361Y-115484025D01*
X95734521Y-115374050D01*
X95938335Y-115170592D01*
X96048774Y-114904624D01*
X96049025Y-114616639D01*
X95939050Y-114350479D01*
X95807600Y-114218799D01*
X95807600Y-110400545D01*
X95815376Y-110403774D01*
X96103361Y-110404025D01*
X96369521Y-110294050D01*
X96573335Y-110090592D01*
X96683774Y-109824624D01*
X96684025Y-109536639D01*
X96574050Y-109270479D01*
X96442600Y-109138799D01*
X96442600Y-104108361D01*
X98410975Y-104108361D01*
X98520950Y-104374521D01*
X98652400Y-104506201D01*
X98652400Y-105963901D01*
X98521665Y-106094408D01*
X98411226Y-106360376D01*
X98410975Y-106648361D01*
X98520950Y-106914521D01*
X98724408Y-107118335D01*
X98990376Y-107228774D01*
X99278361Y-107229025D01*
X99544521Y-107119050D01*
X99748335Y-106915592D01*
X99858774Y-106649624D01*
X99859025Y-106361639D01*
X99749050Y-106095479D01*
X99617600Y-105963799D01*
X99617600Y-104506099D01*
X99748335Y-104375592D01*
X99858774Y-104109624D01*
X99859025Y-103821639D01*
X99749050Y-103555479D01*
X99667076Y-103473361D01*
X109840975Y-103473361D01*
X109950950Y-103739521D01*
X110082400Y-103871201D01*
X110082400Y-112313901D01*
X109951665Y-112444408D01*
X109841226Y-112710376D01*
X109840975Y-112998361D01*
X109950950Y-113264521D01*
X110154408Y-113468335D01*
X110420376Y-113578774D01*
X110708361Y-113579025D01*
X110974521Y-113469050D01*
X111178335Y-113265592D01*
X111288774Y-112999624D01*
X111289025Y-112711639D01*
X111179050Y-112445479D01*
X111047600Y-112313799D01*
X111047600Y-103871099D01*
X111178335Y-103740592D01*
X111288774Y-103474624D01*
X111289025Y-103186639D01*
X111179050Y-102920479D01*
X110975592Y-102716665D01*
X110709624Y-102606226D01*
X110421639Y-102605975D01*
X110155479Y-102715950D01*
X109951665Y-102919408D01*
X109841226Y-103185376D01*
X109840975Y-103473361D01*
X99667076Y-103473361D01*
X99545592Y-103351665D01*
X99279624Y-103241226D01*
X98991639Y-103240975D01*
X98725479Y-103350950D01*
X98521665Y-103554408D01*
X98411226Y-103820376D01*
X98410975Y-104108361D01*
X96442600Y-104108361D01*
X96442600Y-102889084D01*
X96581697Y-103028423D01*
X97001646Y-103202801D01*
X97456359Y-103203198D01*
X97876612Y-103029554D01*
X98198423Y-102708303D01*
X98372801Y-102288354D01*
X98373198Y-101833641D01*
X98199554Y-101413388D01*
X97878303Y-101091577D01*
X97458354Y-100917199D01*
X97003641Y-100916802D01*
X96583388Y-101090446D01*
X96442600Y-101230989D01*
X96442600Y-100354900D01*
X96445506Y-100351994D01*
X96581697Y-100488423D01*
X97001646Y-100662801D01*
X97456359Y-100663198D01*
X97876612Y-100489554D01*
X98198423Y-100168303D01*
X98372801Y-99748354D01*
X98373198Y-99293641D01*
X98199554Y-98873388D01*
X97878303Y-98551577D01*
X97458354Y-98377199D01*
X97003641Y-98376802D01*
X96583388Y-98550446D01*
X96261577Y-98871697D01*
X96087199Y-99291646D01*
X96087152Y-99345349D01*
X95807600Y-99624900D01*
X95807600Y-98791099D01*
X95938335Y-98660592D01*
X96048774Y-98394624D01*
X96049025Y-98106639D01*
X95939050Y-97840479D01*
X95807600Y-97708799D01*
X95807600Y-93932000D01*
X113892400Y-93932000D01*
X113892400Y-100883901D01*
G36*
X101028388Y-74420446D02*
X100706577Y-74741697D01*
X100532199Y-75161646D01*
X100531802Y-75616359D01*
X100705446Y-76036612D01*
X101026697Y-76358423D01*
X101446646Y-76532801D01*
X101901359Y-76533198D01*
X102321612Y-76359554D01*
X102643423Y-76038303D01*
X102817801Y-75618354D01*
X102818198Y-75163641D01*
X102749682Y-74997818D01*
X103500500Y-74247000D01*
X103988162Y-74247000D01*
X103568388Y-74420446D01*
X103246577Y-74741697D01*
X103072199Y-75161646D01*
X103071802Y-75616359D01*
X103245446Y-76036612D01*
X103566697Y-76358423D01*
X103986646Y-76532801D01*
X104441359Y-76533198D01*
X104861612Y-76359554D01*
X105002400Y-76219011D01*
X105002400Y-76753901D01*
X104871665Y-76884408D01*
X104761226Y-77150376D01*
X104760975Y-77438361D01*
X104870950Y-77704521D01*
X105074408Y-77908335D01*
X105340376Y-78018774D01*
X105628361Y-78019025D01*
X105894521Y-77909050D01*
X106098335Y-77705592D01*
X106208774Y-77439624D01*
X106209025Y-77151639D01*
X106099050Y-76885479D01*
X105967600Y-76753799D01*
X105967600Y-74247000D01*
X112622400Y-74247000D01*
X112622400Y-74669455D01*
X112614624Y-74666226D01*
X112326639Y-74665975D01*
X112060479Y-74775950D01*
X111856665Y-74979408D01*
X111746226Y-75245376D01*
X111745975Y-75533361D01*
X111855950Y-75799521D01*
X111987400Y-75931201D01*
X111987400Y-85643901D01*
X111856665Y-85774408D01*
X111746226Y-86040376D01*
X111745975Y-86328361D01*
X111855950Y-86594521D01*
X112059408Y-86798335D01*
X112325376Y-86908774D01*
X112613361Y-86909025D01*
X112622400Y-86905290D01*
X112622400Y-86913901D01*
X112491665Y-87044408D01*
X112381226Y-87310376D01*
X112380975Y-87598361D01*
X112490950Y-87864521D01*
X112694408Y-88068335D01*
X112960376Y-88178774D01*
X113248361Y-88179025D01*
X113514521Y-88069050D01*
X113718335Y-87865592D01*
X113828774Y-87599624D01*
X113829025Y-87311639D01*
X113719050Y-87045479D01*
X113587600Y-86913799D01*
X113587600Y-74247000D01*
X114873000Y-74247000D01*
X114873000Y-76769226D01*
X114785592Y-76681665D01*
X114519624Y-76571226D01*
X114231639Y-76570975D01*
X113965479Y-76680950D01*
X113761665Y-76884408D01*
X113651226Y-77150376D01*
X113650975Y-77438361D01*
X113760950Y-77704521D01*
X113892400Y-77836201D01*
X113892400Y-93043000D01*
X95807600Y-93043000D01*
X95807600Y-74247000D01*
X101448162Y-74247000D01*
X101028388Y-74420446D01*
X101028388Y-74420446D01*
G37*
X101028388Y-74420446D02*
X100706577Y-74741697D01*
X100532199Y-75161646D01*
X100531802Y-75616359D01*
X100705446Y-76036612D01*
X101026697Y-76358423D01*
X101446646Y-76532801D01*
X101901359Y-76533198D01*
X102321612Y-76359554D01*
X102643423Y-76038303D01*
X102817801Y-75618354D01*
X102818198Y-75163641D01*
X102749682Y-74997818D01*
X103500500Y-74247000D01*
X103988162Y-74247000D01*
X103568388Y-74420446D01*
X103246577Y-74741697D01*
X103072199Y-75161646D01*
X103071802Y-75616359D01*
X103245446Y-76036612D01*
X103566697Y-76358423D01*
X103986646Y-76532801D01*
X104441359Y-76533198D01*
X104861612Y-76359554D01*
X105002400Y-76219011D01*
X105002400Y-76753901D01*
X104871665Y-76884408D01*
X104761226Y-77150376D01*
X104760975Y-77438361D01*
X104870950Y-77704521D01*
X105074408Y-77908335D01*
X105340376Y-78018774D01*
X105628361Y-78019025D01*
X105894521Y-77909050D01*
X106098335Y-77705592D01*
X106208774Y-77439624D01*
X106209025Y-77151639D01*
X106099050Y-76885479D01*
X105967600Y-76753799D01*
X105967600Y-74247000D01*
X112622400Y-74247000D01*
X112622400Y-74669455D01*
X112614624Y-74666226D01*
X112326639Y-74665975D01*
X112060479Y-74775950D01*
X111856665Y-74979408D01*
X111746226Y-75245376D01*
X111745975Y-75533361D01*
X111855950Y-75799521D01*
X111987400Y-75931201D01*
X111987400Y-85643901D01*
X111856665Y-85774408D01*
X111746226Y-86040376D01*
X111745975Y-86328361D01*
X111855950Y-86594521D01*
X112059408Y-86798335D01*
X112325376Y-86908774D01*
X112613361Y-86909025D01*
X112622400Y-86905290D01*
X112622400Y-86913901D01*
X112491665Y-87044408D01*
X112381226Y-87310376D01*
X112380975Y-87598361D01*
X112490950Y-87864521D01*
X112694408Y-88068335D01*
X112960376Y-88178774D01*
X113248361Y-88179025D01*
X113514521Y-88069050D01*
X113718335Y-87865592D01*
X113828774Y-87599624D01*
X113829025Y-87311639D01*
X113719050Y-87045479D01*
X113587600Y-86913799D01*
X113587600Y-74247000D01*
X114873000Y-74247000D01*
X114873000Y-76769226D01*
X114785592Y-76681665D01*
X114519624Y-76571226D01*
X114231639Y-76570975D01*
X113965479Y-76680950D01*
X113761665Y-76884408D01*
X113651226Y-77150376D01*
X113650975Y-77438361D01*
X113760950Y-77704521D01*
X113892400Y-77836201D01*
X113892400Y-93043000D01*
X95807600Y-93043000D01*
X95807600Y-74247000D01*
X101448162Y-74247000D01*
X101028388Y-74420446D01*
G36*
X72338000Y-43005000D02*
X72348006Y-43054410D01*
X72376447Y-43096035D01*
X72418841Y-43123315D01*
X72465000Y-43132000D01*
X82625000Y-43132000D01*
X82674410Y-43121994D01*
X82716035Y-43093553D01*
X82743315Y-43051159D01*
X82752000Y-43005000D01*
X82752000Y-40595000D01*
X90245000Y-40595000D01*
X90245000Y-43640000D01*
X90293336Y-43883004D01*
X90430987Y-44089013D01*
X92150000Y-45808026D01*
X92150000Y-48361583D01*
X92061226Y-48575376D01*
X92060975Y-48863361D01*
X92150000Y-49078818D01*
X92150000Y-58521583D01*
X92061226Y-58735376D01*
X92060975Y-59023361D01*
X92170950Y-59289521D01*
X92374408Y-59493335D01*
X92640376Y-59603774D01*
X92928361Y-59604025D01*
X93194521Y-59494050D01*
X93398335Y-59290592D01*
X93508774Y-59024624D01*
X93509025Y-58736639D01*
X93420000Y-58521182D01*
X93420000Y-49498361D01*
X95870975Y-49498361D01*
X95980950Y-49764521D01*
X96112400Y-49896201D01*
X96112400Y-52623901D01*
X95981665Y-52754408D01*
X95871226Y-53020376D01*
X95870975Y-53308361D01*
X95980950Y-53574521D01*
X96184408Y-53778335D01*
X96450376Y-53888774D01*
X96738361Y-53889025D01*
X97004521Y-53779050D01*
X97208335Y-53575592D01*
X97318774Y-53309624D01*
X97319025Y-53021639D01*
X97209050Y-52755479D01*
X97077600Y-52623799D01*
X97077600Y-49896099D01*
X97208335Y-49765592D01*
X97318774Y-49499624D01*
X97319025Y-49211639D01*
X97209050Y-48945479D01*
X97005592Y-48741665D01*
X96739624Y-48631226D01*
X96451639Y-48630975D01*
X96185479Y-48740950D01*
X95981665Y-48944408D01*
X95871226Y-49210376D01*
X95870975Y-49498361D01*
X93420000Y-49498361D01*
X93420000Y-49078417D01*
X93508774Y-48864624D01*
X93509025Y-48576639D01*
X93420000Y-48361182D01*
X93420000Y-45545000D01*
X93371664Y-45301996D01*
X93234013Y-45095987D01*
X91515000Y-43376974D01*
X91515000Y-42426963D01*
X91723714Y-42426963D01*
X91974534Y-43033995D01*
X92438563Y-43498834D01*
X93045155Y-43750713D01*
X93701963Y-43751286D01*
X94308995Y-43500466D01*
X94773834Y-43036437D01*
X95025713Y-42429845D01*
X95025715Y-42426963D01*
X95223714Y-42426963D01*
X95474534Y-43033995D01*
X95938563Y-43498834D01*
X96545155Y-43750713D01*
X97201963Y-43751286D01*
X97808995Y-43500466D01*
X98273834Y-43036437D01*
X98525713Y-42429845D01*
X98525715Y-42426963D01*
X98723714Y-42426963D01*
X98974534Y-43033995D01*
X99438563Y-43498834D01*
X100045155Y-43750713D01*
X100701963Y-43751286D01*
X101308995Y-43500466D01*
X101773834Y-43036437D01*
X102025713Y-42429845D01*
X102026286Y-41773037D01*
X101775466Y-41166005D01*
X101311437Y-40701166D01*
X100704845Y-40449287D01*
X100048037Y-40448714D01*
X99441005Y-40699534D01*
X98976166Y-41163563D01*
X98724287Y-41770155D01*
X98723714Y-42426963D01*
X98525715Y-42426963D01*
X98526286Y-41773037D01*
X98275466Y-41166005D01*
X97811437Y-40701166D01*
X97204845Y-40449287D01*
X96548037Y-40448714D01*
X95941005Y-40699534D01*
X95476166Y-41163563D01*
X95224287Y-41770155D01*
X95223714Y-42426963D01*
X95025715Y-42426963D01*
X95026286Y-41773037D01*
X94775466Y-41166005D01*
X94311437Y-40701166D01*
X93704845Y-40449287D01*
X93048037Y-40448714D01*
X92441005Y-40699534D01*
X91976166Y-41163563D01*
X91724287Y-41770155D01*
X91723714Y-42426963D01*
X91515000Y-42426963D01*
X91515000Y-40858026D01*
X92746377Y-39626649D01*
X93045155Y-39750713D01*
X93701963Y-39751286D01*
X94308995Y-39500466D01*
X94773834Y-39036437D01*
X94899002Y-38735000D01*
X95350992Y-38735000D01*
X95474534Y-39033995D01*
X95938563Y-39498834D01*
X96545155Y-39750713D01*
X97201963Y-39751286D01*
X97808995Y-39500466D01*
X97861775Y-39447777D01*
X99206828Y-39447777D01*
X99338520Y-39742657D01*
X100046036Y-40014261D01*
X100803632Y-39994436D01*
X101411480Y-39742657D01*
X101543172Y-39447777D01*
X100375000Y-38279605D01*
X99206828Y-39447777D01*
X97861775Y-39447777D01*
X98273834Y-39036437D01*
X98482626Y-38533610D01*
X98732343Y-39136480D01*
X99027223Y-39268172D01*
X100195395Y-38100000D01*
X100554605Y-38100000D01*
X101722777Y-39268172D01*
X102017657Y-39136480D01*
X102258091Y-38510161D01*
X102474534Y-39033995D01*
X102938563Y-39498834D01*
X103545155Y-39750713D01*
X104201963Y-39751286D01*
X104808995Y-39500466D01*
X105273834Y-39036437D01*
X105525713Y-38429845D01*
X105525715Y-38426963D01*
X105723714Y-38426963D01*
X105974534Y-39033995D01*
X106438563Y-39498834D01*
X107045155Y-39750713D01*
X107701963Y-39751286D01*
X108308995Y-39500466D01*
X108773834Y-39036437D01*
X109025713Y-38429845D01*
X109026286Y-37773037D01*
X108775466Y-37166005D01*
X108311437Y-36701166D01*
X107704845Y-36449287D01*
X107048037Y-36448714D01*
X106441005Y-36699534D01*
X105976166Y-37163563D01*
X105724287Y-37770155D01*
X105723714Y-38426963D01*
X105525715Y-38426963D01*
X105526286Y-37773037D01*
X105275466Y-37166005D01*
X104811437Y-36701166D01*
X104204845Y-36449287D01*
X103548037Y-36448714D01*
X102941005Y-36699534D01*
X102476166Y-37163563D01*
X102267374Y-37666390D01*
X102017657Y-37063520D01*
X101722777Y-36931828D01*
X100554605Y-38100000D01*
X100195395Y-38100000D01*
X99027223Y-36931828D01*
X98732343Y-37063520D01*
X98491909Y-37689839D01*
X98275466Y-37166005D01*
X97862406Y-36752223D01*
X99206828Y-36752223D01*
X100375000Y-37920395D01*
X101543172Y-36752223D01*
X101411480Y-36457343D01*
X100703964Y-36185739D01*
X99946368Y-36205564D01*
X99338520Y-36457343D01*
X99206828Y-36752223D01*
X97862406Y-36752223D01*
X97811437Y-36701166D01*
X97204845Y-36449287D01*
X96548037Y-36448714D01*
X95941005Y-36699534D01*
X95476166Y-37163563D01*
X95350998Y-37465000D01*
X94899008Y-37465000D01*
X94775466Y-37166005D01*
X94311437Y-36701166D01*
X93704845Y-36449287D01*
X93048037Y-36448714D01*
X92441005Y-36699534D01*
X91976166Y-37163563D01*
X91724287Y-37770155D01*
X91723714Y-38426963D01*
X91848355Y-38728619D01*
X90430987Y-40145987D01*
X90293336Y-40351996D01*
X90245000Y-40595000D01*
X82752000Y-40595000D01*
X82752000Y-37464500D01*
X84682400Y-39394899D01*
X84682400Y-39830000D01*
X84719136Y-40014683D01*
X84823750Y-40171250D01*
X84980317Y-40275864D01*
X85165000Y-40312600D01*
X85349683Y-40275864D01*
X85506250Y-40171250D01*
X85610864Y-40014683D01*
X85647600Y-39830000D01*
X85647600Y-39195000D01*
X85610864Y-39010317D01*
X85506250Y-38853750D01*
X85506247Y-38853748D01*
X84031519Y-37379019D01*
X84038361Y-37379025D01*
X84304521Y-37269050D01*
X84436201Y-37137600D01*
X84623901Y-37137600D01*
X84754408Y-37268335D01*
X85020376Y-37378774D01*
X85308361Y-37379025D01*
X85574521Y-37269050D01*
X85778335Y-37065592D01*
X85799917Y-37013617D01*
X85820950Y-37064521D01*
X86024408Y-37268335D01*
X86290376Y-37378774D01*
X86578361Y-37379025D01*
X86844521Y-37269050D01*
X86976201Y-37137600D01*
X87163901Y-37137600D01*
X87294408Y-37268335D01*
X87560376Y-37378774D01*
X87848361Y-37379025D01*
X88114521Y-37269050D01*
X88318335Y-37065592D01*
X88428774Y-36799624D01*
X88428823Y-36743977D01*
X88483361Y-36744025D01*
X88749521Y-36634050D01*
X88953335Y-36430592D01*
X89063774Y-36164624D01*
X89064025Y-35876639D01*
X88954050Y-35610479D01*
X88750592Y-35406665D01*
X88484624Y-35296226D01*
X88428977Y-35296177D01*
X88429025Y-35241639D01*
X88319050Y-34975479D01*
X88115592Y-34771665D01*
X87849624Y-34661226D01*
X87793977Y-34661177D01*
X87794025Y-34606639D01*
X87684050Y-34340479D01*
X87480592Y-34136665D01*
X87214624Y-34026226D01*
X86926639Y-34025975D01*
X86660479Y-34135950D01*
X86528799Y-34267400D01*
X86341099Y-34267400D01*
X86210592Y-34136665D01*
X85944624Y-34026226D01*
X85656639Y-34025975D01*
X85390479Y-34135950D01*
X85186665Y-34339408D01*
X85165083Y-34391383D01*
X85144050Y-34340479D01*
X84940592Y-34136665D01*
X84674624Y-34026226D01*
X84386639Y-34025975D01*
X84120479Y-34135950D01*
X83988799Y-34267400D01*
X83801099Y-34267400D01*
X83670592Y-34136665D01*
X83404624Y-34026226D01*
X83116639Y-34025975D01*
X82850479Y-34135950D01*
X82752000Y-34234257D01*
X82752000Y-30736000D01*
X114873000Y-30736000D01*
X114873000Y-73358000D01*
X113587600Y-73358000D01*
X113587600Y-72121099D01*
X113718335Y-71990592D01*
X113828774Y-71724624D01*
X113829025Y-71436639D01*
X113719050Y-71170479D01*
X113515592Y-70966665D01*
X113249624Y-70856226D01*
X112961639Y-70855975D01*
X112695479Y-70965950D01*
X112491665Y-71169408D01*
X112381226Y-71435376D01*
X112380975Y-71723361D01*
X112490950Y-71989521D01*
X112622400Y-72121201D01*
X112622400Y-73358000D01*
X105967600Y-73358000D01*
X105967600Y-62254900D01*
X106461247Y-61761252D01*
X106461250Y-61761250D01*
X106565864Y-61604683D01*
X106572286Y-61572400D01*
X106602601Y-61420000D01*
X106602600Y-61419995D01*
X106602600Y-58151099D01*
X106733335Y-58020592D01*
X106843774Y-57754624D01*
X106844025Y-57466639D01*
X106734050Y-57200479D01*
X106530592Y-56996665D01*
X106264624Y-56886226D01*
X105976639Y-56885975D01*
X105710479Y-56995950D01*
X105506665Y-57199408D01*
X105396226Y-57465376D01*
X105395975Y-57753361D01*
X105505950Y-58019521D01*
X105637400Y-58151201D01*
X105637400Y-58159455D01*
X105629624Y-58156226D01*
X105341639Y-58155975D01*
X105332600Y-58159710D01*
X105332600Y-55213361D01*
X109205975Y-55213361D01*
X109315950Y-55479521D01*
X109519408Y-55683335D01*
X109785376Y-55793774D01*
X110073361Y-55794025D01*
X110339521Y-55684050D01*
X110543335Y-55480592D01*
X110653774Y-55214624D01*
X110653936Y-55028564D01*
X112622400Y-53060099D01*
X112622400Y-57703901D01*
X112491665Y-57834408D01*
X112381226Y-58100376D01*
X112380975Y-58388361D01*
X112490950Y-58654521D01*
X112694408Y-58858335D01*
X112960376Y-58968774D01*
X113248361Y-58969025D01*
X113257400Y-58965290D01*
X113257400Y-59608901D01*
X113126665Y-59739408D01*
X113016226Y-60005376D01*
X113015975Y-60293361D01*
X113125950Y-60559521D01*
X113329408Y-60763335D01*
X113595376Y-60873774D01*
X113883361Y-60874025D01*
X114149521Y-60764050D01*
X114353335Y-60560592D01*
X114463774Y-60294624D01*
X114464025Y-60006639D01*
X114354050Y-59740479D01*
X114222600Y-59608799D01*
X114222600Y-38466099D01*
X114353335Y-38335592D01*
X114463774Y-38069624D01*
X114464025Y-37781639D01*
X114354050Y-37515479D01*
X114150592Y-37311665D01*
X113884624Y-37201226D01*
X113596639Y-37200975D01*
X113587600Y-37204710D01*
X113587600Y-36561099D01*
X113718335Y-36430592D01*
X113828774Y-36164624D01*
X113829025Y-35876639D01*
X113719050Y-35610479D01*
X113515592Y-35406665D01*
X113249624Y-35296226D01*
X113193977Y-35296177D01*
X113194025Y-35241639D01*
X113084050Y-34975479D01*
X112880592Y-34771665D01*
X112614624Y-34661226D01*
X112326639Y-34660975D01*
X112060479Y-34770950D01*
X111856665Y-34974408D01*
X111746226Y-35240376D01*
X111745975Y-35528361D01*
X111855950Y-35794521D01*
X111987400Y-35926201D01*
X111987400Y-36877436D01*
X111811437Y-36701166D01*
X111204845Y-36449287D01*
X110548037Y-36448714D01*
X109941005Y-36699534D01*
X109476166Y-37163563D01*
X109224287Y-37770155D01*
X109223714Y-38426963D01*
X109474534Y-39033995D01*
X109938563Y-39498834D01*
X110545155Y-39750713D01*
X111201963Y-39751286D01*
X111808995Y-39500466D01*
X111987400Y-39322372D01*
X111987400Y-40627340D01*
X111911480Y-40457343D01*
X111203964Y-40185739D01*
X110446368Y-40205564D01*
X109838520Y-40457343D01*
X109706828Y-40752223D01*
X110875000Y-41920395D01*
X110889143Y-41906253D01*
X111068748Y-42085858D01*
X111054605Y-42100000D01*
X111068748Y-42114143D01*
X110889143Y-42293748D01*
X110875000Y-42279605D01*
X109706828Y-43447777D01*
X109838520Y-43742657D01*
X110546036Y-44014261D01*
X111303632Y-43994436D01*
X111911480Y-43742657D01*
X111987400Y-43572660D01*
X111987400Y-52330101D01*
X109971364Y-54346136D01*
X109786639Y-54345975D01*
X109520479Y-54455950D01*
X109316665Y-54659408D01*
X109206226Y-54925376D01*
X109205975Y-55213361D01*
X105332600Y-55213361D01*
X105332600Y-51801099D01*
X105463335Y-51670592D01*
X105573774Y-51404624D01*
X105574025Y-51116639D01*
X105464050Y-50850479D01*
X105332600Y-50718799D01*
X105332600Y-46379900D01*
X107716250Y-43996250D01*
X107820864Y-43839683D01*
X107850669Y-43689842D01*
X108308995Y-43500466D01*
X108773834Y-43036437D01*
X108982626Y-42533610D01*
X109232343Y-43136480D01*
X109527223Y-43268172D01*
X110695395Y-42100000D01*
X109527223Y-40931828D01*
X109232343Y-41063520D01*
X108991909Y-41689839D01*
X108775466Y-41166005D01*
X108311437Y-40701166D01*
X107704845Y-40449287D01*
X107048037Y-40448714D01*
X106441005Y-40699534D01*
X105976166Y-41163563D01*
X105724287Y-41770155D01*
X105723714Y-42426963D01*
X105974534Y-43033995D01*
X106438563Y-43498834D01*
X106728340Y-43619160D01*
X104697600Y-45649900D01*
X104697600Y-44275005D01*
X104697601Y-44275000D01*
X104660864Y-44090317D01*
X104610045Y-44014261D01*
X104556250Y-43933750D01*
X104556247Y-43933748D01*
X104357600Y-43735100D01*
X104357600Y-43686978D01*
X104808995Y-43500466D01*
X105273834Y-43036437D01*
X105525713Y-42429845D01*
X105526286Y-41773037D01*
X105275466Y-41166005D01*
X104811437Y-40701166D01*
X104204845Y-40449287D01*
X103548037Y-40448714D01*
X102941005Y-40699534D01*
X102476166Y-41163563D01*
X102224287Y-41770155D01*
X102223714Y-42426963D01*
X102474534Y-43033995D01*
X102938563Y-43498834D01*
X103392400Y-43687284D01*
X103392400Y-43935000D01*
X103429136Y-44119683D01*
X103533750Y-44276250D01*
X103732400Y-44474899D01*
X103732400Y-49448901D01*
X103601665Y-49579408D01*
X103491226Y-49845376D01*
X103490975Y-50133361D01*
X103600950Y-50399521D01*
X103732400Y-50531201D01*
X103732400Y-56889455D01*
X103724624Y-56886226D01*
X103436639Y-56885975D01*
X103427600Y-56889710D01*
X103427600Y-54435005D01*
X103427601Y-54435000D01*
X103390864Y-54250317D01*
X103317988Y-54141250D01*
X103286250Y-54093750D01*
X103286247Y-54093748D01*
X103033864Y-53841365D01*
X103034025Y-53656639D01*
X102924050Y-53390479D01*
X102720592Y-53186665D01*
X102454624Y-53076226D01*
X102166639Y-53075975D01*
X101900479Y-53185950D01*
X101696665Y-53389408D01*
X101586226Y-53655376D01*
X101585975Y-53943361D01*
X101695950Y-54209521D01*
X101899408Y-54413335D01*
X102165376Y-54523774D01*
X102351437Y-54523936D01*
X102462400Y-54634899D01*
X102462400Y-56444900D01*
X101522600Y-55505100D01*
X101522600Y-50531099D01*
X101653335Y-50400592D01*
X101763774Y-50134624D01*
X101764025Y-49846639D01*
X101654050Y-49580479D01*
X101450592Y-49376665D01*
X101184624Y-49266226D01*
X100896639Y-49265975D01*
X100630479Y-49375950D01*
X100426665Y-49579408D01*
X100316226Y-49845376D01*
X100315975Y-50133361D01*
X100425950Y-50399521D01*
X100557400Y-50531201D01*
X100557400Y-52444455D01*
X100549624Y-52441226D01*
X100261639Y-52440975D01*
X100252600Y-52444710D01*
X100252600Y-50625000D01*
X100215864Y-50440317D01*
X100111250Y-50283750D01*
X99223864Y-49396364D01*
X99224025Y-49211639D01*
X99114050Y-48945479D01*
X98910592Y-48741665D01*
X98644624Y-48631226D01*
X98356639Y-48630975D01*
X98090479Y-48740950D01*
X97886665Y-48944408D01*
X97776226Y-49210376D01*
X97775975Y-49498361D01*
X97885950Y-49764521D01*
X98089408Y-49968335D01*
X98355376Y-50078774D01*
X98541436Y-50078936D01*
X99287400Y-50824900D01*
X99287400Y-72943901D01*
X99156665Y-73074408D01*
X99046226Y-73340376D01*
X99046211Y-73358000D01*
X95807600Y-73358000D01*
X95807600Y-66406099D01*
X95938335Y-66275592D01*
X96048774Y-66009624D01*
X96049025Y-65721639D01*
X95939050Y-65455479D01*
X95735592Y-65251665D01*
X95469624Y-65141226D01*
X95181639Y-65140975D01*
X95172600Y-65144710D01*
X95172600Y-65136099D01*
X95303335Y-65005592D01*
X95413774Y-64739624D01*
X95414025Y-64451639D01*
X95304050Y-64185479D01*
X95100592Y-63981665D01*
X94834624Y-63871226D01*
X94546639Y-63870975D01*
X94537600Y-63874710D01*
X94537600Y-62596099D01*
X94668335Y-62465592D01*
X94778774Y-62199624D01*
X94779025Y-61911639D01*
X94669050Y-61645479D01*
X94465592Y-61441665D01*
X94199624Y-61331226D01*
X93911639Y-61330975D01*
X93902600Y-61334710D01*
X93902600Y-61326099D01*
X94033335Y-61195592D01*
X94143774Y-60929624D01*
X94144025Y-60641639D01*
X94034050Y-60375479D01*
X93830592Y-60171665D01*
X93564624Y-60061226D01*
X93276639Y-60060975D01*
X93010479Y-60170950D01*
X92806665Y-60374408D01*
X92696226Y-60640376D01*
X92695975Y-60928361D01*
X92805950Y-61194521D01*
X92937400Y-61326201D01*
X92937400Y-62148901D01*
X92806665Y-62279408D01*
X92696226Y-62545376D01*
X92696177Y-62601023D01*
X92641639Y-62600975D01*
X92375479Y-62710950D01*
X92171665Y-62914408D01*
X92061226Y-63180376D01*
X92060975Y-63468361D01*
X92170950Y-63734521D01*
X92302400Y-63866201D01*
X92302400Y-64509455D01*
X92294624Y-64506226D01*
X92006639Y-64505975D01*
X91997600Y-64509710D01*
X91997600Y-61961099D01*
X92128335Y-61830592D01*
X92238774Y-61564624D01*
X92239025Y-61276639D01*
X92129050Y-61010479D01*
X91925592Y-60806665D01*
X91659624Y-60696226D01*
X91371639Y-60695975D01*
X91362600Y-60699710D01*
X91362600Y-58151099D01*
X91493335Y-58020592D01*
X91603774Y-57754624D01*
X91604025Y-57466639D01*
X91494050Y-57200479D01*
X91290592Y-56996665D01*
X91024624Y-56886226D01*
X90736639Y-56885975D01*
X90470479Y-56995950D01*
X90266665Y-57199408D01*
X90156226Y-57465376D01*
X90155975Y-57753361D01*
X90165791Y-57777118D01*
X90020592Y-57631665D01*
X89754624Y-57521226D01*
X89466639Y-57520975D01*
X89200479Y-57630950D01*
X88996665Y-57834408D01*
X88886226Y-58100376D01*
X88885975Y-58388361D01*
X88995950Y-58654521D01*
X89127400Y-58786201D01*
X89127400Y-72129455D01*
X89119624Y-72126226D01*
X88831639Y-72125975D01*
X88822600Y-72129710D01*
X88822600Y-60056099D01*
X88953335Y-59925592D01*
X89063774Y-59659624D01*
X89064025Y-59371639D01*
X88954050Y-59105479D01*
X88750592Y-58901665D01*
X88484624Y-58791226D01*
X88196639Y-58790975D01*
X87930479Y-58900950D01*
X87726665Y-59104408D01*
X87616226Y-59370376D01*
X87615975Y-59658361D01*
X87725950Y-59924521D01*
X87857400Y-60056201D01*
X87857400Y-71494455D01*
X87849624Y-71491226D01*
X87793977Y-71491177D01*
X87794025Y-71436639D01*
X87684050Y-71170479D01*
X87480592Y-70966665D01*
X87214624Y-70856226D01*
X86926639Y-70855975D01*
X86917600Y-70859710D01*
X86917600Y-68946099D01*
X87048335Y-68815592D01*
X87158774Y-68549624D01*
X87159025Y-68261639D01*
X87049050Y-67995479D01*
X86917600Y-67863799D01*
X86917600Y-62596099D01*
X87048335Y-62465592D01*
X87158774Y-62199624D01*
X87159025Y-61911639D01*
X87049050Y-61645479D01*
X86917600Y-61513799D01*
X86917600Y-59421099D01*
X87048335Y-59290592D01*
X87158774Y-59024624D01*
X87159025Y-58736639D01*
X87049050Y-58470479D01*
X86845592Y-58266665D01*
X86579624Y-58156226D01*
X86291639Y-58155975D01*
X86025479Y-58265950D01*
X85821665Y-58469408D01*
X85711226Y-58735376D01*
X85710975Y-59023361D01*
X85820950Y-59289521D01*
X85952400Y-59421201D01*
X85952400Y-61513901D01*
X85821665Y-61644408D01*
X85711226Y-61910376D01*
X85710975Y-62198361D01*
X85820950Y-62464521D01*
X85952400Y-62596201D01*
X85952400Y-67863901D01*
X85821665Y-67994408D01*
X85711226Y-68260376D01*
X85710975Y-68548361D01*
X85820950Y-68814521D01*
X85952400Y-68946201D01*
X85952400Y-74213901D01*
X85821665Y-74344408D01*
X85711226Y-74610376D01*
X85710975Y-74898361D01*
X85820950Y-75164521D01*
X85952400Y-75296201D01*
X85952400Y-85643901D01*
X85821665Y-85774408D01*
X85711226Y-86040376D01*
X85710975Y-86328361D01*
X85820950Y-86594521D01*
X85952400Y-86726201D01*
X85952400Y-91358901D01*
X85821665Y-91489408D01*
X85711226Y-91755376D01*
X85710975Y-92043361D01*
X85820950Y-92309521D01*
X85952400Y-92441201D01*
X85952400Y-97073901D01*
X85821665Y-97204408D01*
X85711226Y-97470376D01*
X85710975Y-97758361D01*
X85820950Y-98024521D01*
X85952400Y-98156201D01*
X85952400Y-107233901D01*
X85821665Y-107364408D01*
X85711226Y-107630376D01*
X85710975Y-107918361D01*
X85820950Y-108184521D01*
X85952400Y-108316201D01*
X85952400Y-113998000D01*
X80809011Y-113998000D01*
X80809025Y-113981639D01*
X80699050Y-113715479D01*
X80495592Y-113511665D01*
X80229624Y-113401226D01*
X80173977Y-113401177D01*
X80174025Y-113346639D01*
X80064050Y-113080479D01*
X79860592Y-112876665D01*
X79594624Y-112766226D01*
X79538977Y-112766177D01*
X79539025Y-112711639D01*
X79429050Y-112445479D01*
X79225592Y-112241665D01*
X78959624Y-112131226D01*
X78671639Y-112130975D01*
X78405479Y-112240950D01*
X78201665Y-112444408D01*
X78091226Y-112710376D01*
X78090975Y-112998361D01*
X78200950Y-113264521D01*
X78332400Y-113396201D01*
X78332400Y-120275101D01*
X77980100Y-120627400D01*
X59671099Y-120627400D01*
X59540592Y-120496665D01*
X59274624Y-120386226D01*
X58986639Y-120385975D01*
X58720479Y-120495950D01*
X58516665Y-120699408D01*
X58406226Y-120965376D01*
X58405975Y-121253361D01*
X58515950Y-121519521D01*
X58719408Y-121723335D01*
X58985376Y-121833774D01*
X59041023Y-121833823D01*
X59040975Y-121888361D01*
X59150950Y-122154521D01*
X59354408Y-122358335D01*
X59620376Y-122468774D01*
X59676023Y-122468823D01*
X59675975Y-122523361D01*
X59785950Y-122789521D01*
X59989408Y-122993335D01*
X60255376Y-123103774D01*
X60311023Y-123103823D01*
X60310975Y-123158361D01*
X60420950Y-123424521D01*
X60624408Y-123628335D01*
X60890376Y-123738774D01*
X61178361Y-123739025D01*
X61444521Y-123629050D01*
X61576201Y-123497600D01*
X74878000Y-123497600D01*
X74878000Y-128934000D01*
X71840669Y-128934000D01*
X72038606Y-128801743D01*
X72218744Y-128532147D01*
X72282000Y-128214137D01*
X72282000Y-127467863D01*
X72218744Y-127149853D01*
X72038606Y-126880257D01*
X71769010Y-126700119D01*
X71451000Y-126636863D01*
X71132990Y-126700119D01*
X70863394Y-126880257D01*
X70683256Y-127149853D01*
X70620000Y-127467863D01*
X70620000Y-128214137D01*
X70683256Y-128532147D01*
X70863394Y-128801743D01*
X71061331Y-128934000D01*
X65740669Y-128934000D01*
X65938606Y-128801743D01*
X66118744Y-128532147D01*
X66182000Y-128214137D01*
X66182000Y-127467863D01*
X66118744Y-127149853D01*
X65938606Y-126880257D01*
X65669010Y-126700119D01*
X65351000Y-126636863D01*
X65032990Y-126700119D01*
X64763394Y-126880257D01*
X64583256Y-127149853D01*
X64520000Y-127467863D01*
X64520000Y-128214137D01*
X64583256Y-128532147D01*
X64763394Y-128801743D01*
X64961331Y-128934000D01*
X55384119Y-128934000D01*
X55408774Y-128874624D01*
X55409025Y-128586639D01*
X55299050Y-128320479D01*
X55167600Y-128188799D01*
X55167600Y-124826099D01*
X55298335Y-124695592D01*
X55408774Y-124429624D01*
X55409025Y-124141639D01*
X55299050Y-123875479D01*
X55095592Y-123671665D01*
X54829624Y-123561226D01*
X54541639Y-123560975D01*
X54275479Y-123670950D01*
X54071665Y-123874408D01*
X53961226Y-124140376D01*
X53960975Y-124428361D01*
X54070950Y-124694521D01*
X54202400Y-124826201D01*
X54202400Y-128188901D01*
X54071665Y-128319408D01*
X53961226Y-128585376D01*
X53960975Y-128873361D01*
X53986031Y-128934000D01*
X49034119Y-128934000D01*
X49058774Y-128874624D01*
X49059025Y-128586639D01*
X48949050Y-128320479D01*
X48817600Y-128188799D01*
X48817600Y-127366099D01*
X48948335Y-127235592D01*
X49058774Y-126969624D01*
X49059025Y-126681639D01*
X48949050Y-126415479D01*
X48745592Y-126211665D01*
X48479624Y-126101226D01*
X48191639Y-126100975D01*
X47925479Y-126210950D01*
X47721665Y-126414408D01*
X47611226Y-126680376D01*
X47610975Y-126968361D01*
X47720950Y-127234521D01*
X47852400Y-127366201D01*
X47852400Y-128188901D01*
X47721665Y-128319408D01*
X47611226Y-128585376D01*
X47610975Y-128873361D01*
X47636031Y-128934000D01*
X40127000Y-128934000D01*
X40127000Y-125698361D01*
X45070975Y-125698361D01*
X45180950Y-125964521D01*
X45384408Y-126168335D01*
X45650376Y-126278774D01*
X45938361Y-126279025D01*
X46204521Y-126169050D01*
X46336201Y-126037600D01*
X52238901Y-126037600D01*
X52369408Y-126168335D01*
X52635376Y-126278774D01*
X52923361Y-126279025D01*
X53189521Y-126169050D01*
X53393335Y-125965592D01*
X53503774Y-125699624D01*
X53504025Y-125411639D01*
X53394050Y-125145479D01*
X53190592Y-124941665D01*
X52924624Y-124831226D01*
X52636639Y-124830975D01*
X52370479Y-124940950D01*
X52238799Y-125072400D01*
X46336099Y-125072400D01*
X46205592Y-124941665D01*
X45939624Y-124831226D01*
X45651639Y-124830975D01*
X45385479Y-124940950D01*
X45181665Y-125144408D01*
X45071226Y-125410376D01*
X45070975Y-125698361D01*
X40127000Y-125698361D01*
X40127000Y-105870000D01*
X59003000Y-105870000D01*
X59003000Y-118570000D01*
X59157677Y-119347613D01*
X59598159Y-120006841D01*
X60257387Y-120447323D01*
X61035000Y-120602000D01*
X61812613Y-120447323D01*
X61840664Y-120428580D01*
X62013396Y-120543996D01*
X62305000Y-120601999D01*
X62596604Y-120543996D01*
X62843815Y-120378815D01*
X63478816Y-119743815D01*
X63643996Y-119496604D01*
X63702000Y-119205000D01*
X63643996Y-118913395D01*
X63478816Y-118666184D01*
X63231605Y-118501004D01*
X63067000Y-118468262D01*
X63067000Y-105870000D01*
X62912323Y-105092387D01*
X62471841Y-104433159D01*
X61812613Y-103992677D01*
X61035000Y-103838000D01*
X60257387Y-103992677D01*
X59598159Y-104433159D01*
X59157677Y-105092387D01*
X59003000Y-105870000D01*
X40127000Y-105870000D01*
X40127000Y-97615000D01*
X63448000Y-97615000D01*
X63602677Y-98392613D01*
X64043159Y-99051841D01*
X64702387Y-99492323D01*
X65480000Y-99647000D01*
X78180000Y-99647000D01*
X78957613Y-99492323D01*
X79616841Y-99051841D01*
X80057323Y-98392613D01*
X80212000Y-97615000D01*
X80057323Y-96837387D01*
X79616841Y-96178159D01*
X78957613Y-95737677D01*
X78180000Y-95583000D01*
X65480000Y-95583000D01*
X64702387Y-95737677D01*
X64043159Y-96178159D01*
X63602677Y-96837387D01*
X63448000Y-97615000D01*
X40127000Y-97615000D01*
X40127000Y-79200000D01*
X62178000Y-79200000D01*
X62332677Y-79977613D01*
X62773159Y-80636841D01*
X63432387Y-81077323D01*
X64210000Y-81232000D01*
X78180000Y-81232000D01*
X78957613Y-81077323D01*
X79616841Y-80636841D01*
X80057323Y-79977613D01*
X80212000Y-79200000D01*
X80057323Y-78422387D01*
X79616841Y-77763159D01*
X78957613Y-77322677D01*
X78180000Y-77168000D01*
X64210000Y-77168000D01*
X63432387Y-77322677D01*
X62773159Y-77763159D01*
X62332677Y-78422387D01*
X62178000Y-79200000D01*
X40127000Y-79200000D01*
X40127000Y-74120000D01*
X64083000Y-74120000D01*
X64237677Y-74897613D01*
X64678159Y-75556841D01*
X65337387Y-75997323D01*
X66115000Y-76152000D01*
X77545000Y-76152000D01*
X78322613Y-75997323D01*
X78981841Y-75556841D01*
X79422323Y-74897613D01*
X79577000Y-74120000D01*
X79422323Y-73342387D01*
X78981841Y-72683159D01*
X78322613Y-72242677D01*
X77545000Y-72088000D01*
X66115000Y-72088000D01*
X65337387Y-72242677D01*
X64678159Y-72683159D01*
X64237677Y-73342387D01*
X64083000Y-74120000D01*
X40127000Y-74120000D01*
X40127000Y-55705000D01*
X63448000Y-55705000D01*
X63602677Y-56482613D01*
X64043159Y-57141841D01*
X64702387Y-57582323D01*
X65480000Y-57737000D01*
X78180000Y-57737000D01*
X78957613Y-57582323D01*
X79616841Y-57141841D01*
X80057323Y-56482613D01*
X80212000Y-55705000D01*
X80057323Y-54927387D01*
X79616841Y-54268159D01*
X78957613Y-53827677D01*
X78180000Y-53673000D01*
X65480000Y-53673000D01*
X64702387Y-53827677D01*
X64043159Y-54268159D01*
X63602677Y-54927387D01*
X63448000Y-55705000D01*
X40127000Y-55705000D01*
X40127000Y-42426963D01*
X42473714Y-42426963D01*
X42724534Y-43033995D01*
X43188563Y-43498834D01*
X43795155Y-43750713D01*
X44451963Y-43751286D01*
X45058995Y-43500466D01*
X45523834Y-43036437D01*
X45775713Y-42429845D01*
X45775715Y-42426963D01*
X45973714Y-42426963D01*
X46224534Y-43033995D01*
X46688563Y-43498834D01*
X47295155Y-43750713D01*
X47951963Y-43751286D01*
X48558995Y-43500466D01*
X49023834Y-43036437D01*
X49275713Y-42429845D01*
X49275715Y-42426963D01*
X49473714Y-42426963D01*
X49724534Y-43033995D01*
X50188563Y-43498834D01*
X50795155Y-43750713D01*
X51451963Y-43751286D01*
X52058995Y-43500466D01*
X52523834Y-43036437D01*
X52775713Y-42429845D01*
X52775715Y-42426963D01*
X52973714Y-42426963D01*
X53224534Y-43033995D01*
X53688563Y-43498834D01*
X54295155Y-43750713D01*
X54951963Y-43751286D01*
X55558995Y-43500466D01*
X56023834Y-43036437D01*
X56275713Y-42429845D01*
X56275715Y-42426963D01*
X56473714Y-42426963D01*
X56724534Y-43033995D01*
X57188563Y-43498834D01*
X57795155Y-43750713D01*
X58451963Y-43751286D01*
X59058995Y-43500466D01*
X59523834Y-43036437D01*
X59775713Y-42429845D01*
X59775715Y-42426963D01*
X59973714Y-42426963D01*
X60224534Y-43033995D01*
X60688563Y-43498834D01*
X61295155Y-43750713D01*
X61951963Y-43751286D01*
X62558995Y-43500466D01*
X63023834Y-43036437D01*
X63275713Y-42429845D01*
X63276286Y-41773037D01*
X63025466Y-41166005D01*
X62561437Y-40701166D01*
X61954845Y-40449287D01*
X61298037Y-40448714D01*
X60691005Y-40699534D01*
X60226166Y-41163563D01*
X59974287Y-41770155D01*
X59973714Y-42426963D01*
X59775715Y-42426963D01*
X59776286Y-41773037D01*
X59525466Y-41166005D01*
X59061437Y-40701166D01*
X58454845Y-40449287D01*
X57798037Y-40448714D01*
X57191005Y-40699534D01*
X56726166Y-41163563D01*
X56474287Y-41770155D01*
X56473714Y-42426963D01*
X56275715Y-42426963D01*
X56276286Y-41773037D01*
X56025466Y-41166005D01*
X55561437Y-40701166D01*
X54954845Y-40449287D01*
X54298037Y-40448714D01*
X53691005Y-40699534D01*
X53226166Y-41163563D01*
X52974287Y-41770155D01*
X52973714Y-42426963D01*
X52775715Y-42426963D01*
X52776286Y-41773037D01*
X52525466Y-41166005D01*
X52061437Y-40701166D01*
X51454845Y-40449287D01*
X50798037Y-40448714D01*
X50191005Y-40699534D01*
X49726166Y-41163563D01*
X49474287Y-41770155D01*
X49473714Y-42426963D01*
X49275715Y-42426963D01*
X49276286Y-41773037D01*
X49025466Y-41166005D01*
X48561437Y-40701166D01*
X47954845Y-40449287D01*
X47298037Y-40448714D01*
X46691005Y-40699534D01*
X46226166Y-41163563D01*
X45974287Y-41770155D01*
X45973714Y-42426963D01*
X45775715Y-42426963D01*
X45776286Y-41773037D01*
X45525466Y-41166005D01*
X45061437Y-40701166D01*
X44454845Y-40449287D01*
X43798037Y-40448714D01*
X43191005Y-40699534D01*
X42726166Y-41163563D01*
X42474287Y-41770155D01*
X42473714Y-42426963D01*
X40127000Y-42426963D01*
X40127000Y-39447777D01*
X42956828Y-39447777D01*
X43088520Y-39742657D01*
X43796036Y-40014261D01*
X44553632Y-39994436D01*
X45161480Y-39742657D01*
X45293172Y-39447777D01*
X46456828Y-39447777D01*
X46588520Y-39742657D01*
X47296036Y-40014261D01*
X48053632Y-39994436D01*
X48661480Y-39742657D01*
X48793172Y-39447777D01*
X49956828Y-39447777D01*
X50088520Y-39742657D01*
X50796036Y-40014261D01*
X51553632Y-39994436D01*
X52161480Y-39742657D01*
X52293172Y-39447777D01*
X53456828Y-39447777D01*
X53588520Y-39742657D01*
X54296036Y-40014261D01*
X55053632Y-39994436D01*
X55661480Y-39742657D01*
X55793172Y-39447777D01*
X54625000Y-38279605D01*
X53456828Y-39447777D01*
X52293172Y-39447777D01*
X51125000Y-38279605D01*
X49956828Y-39447777D01*
X48793172Y-39447777D01*
X47625000Y-38279605D01*
X46456828Y-39447777D01*
X45293172Y-39447777D01*
X44125000Y-38279605D01*
X42956828Y-39447777D01*
X40127000Y-39447777D01*
X40127000Y-37771036D01*
X42210739Y-37771036D01*
X42230564Y-38528632D01*
X42482343Y-39136480D01*
X42777223Y-39268172D01*
X43945395Y-38100000D01*
X44304605Y-38100000D01*
X45472777Y-39268172D01*
X45767657Y-39136480D01*
X45870921Y-38867483D01*
X45982343Y-39136480D01*
X46277223Y-39268172D01*
X47445395Y-38100000D01*
X47804605Y-38100000D01*
X48972777Y-39268172D01*
X49267657Y-39136480D01*
X49370921Y-38867483D01*
X49482343Y-39136480D01*
X49777223Y-39268172D01*
X50945395Y-38100000D01*
X51304605Y-38100000D01*
X52472777Y-39268172D01*
X52767657Y-39136480D01*
X52870921Y-38867483D01*
X52982343Y-39136480D01*
X53277223Y-39268172D01*
X54445395Y-38100000D01*
X53277223Y-36931828D01*
X52982343Y-37063520D01*
X52879079Y-37332517D01*
X52767657Y-37063520D01*
X52472777Y-36931828D01*
X51304605Y-38100000D01*
X50945395Y-38100000D01*
X49777223Y-36931828D01*
X49482343Y-37063520D01*
X49379079Y-37332517D01*
X49267657Y-37063520D01*
X48972777Y-36931828D01*
X47804605Y-38100000D01*
X47445395Y-38100000D01*
X46277223Y-36931828D01*
X45982343Y-37063520D01*
X45879079Y-37332517D01*
X45767657Y-37063520D01*
X45472777Y-36931828D01*
X44304605Y-38100000D01*
X43945395Y-38100000D01*
X42777223Y-36931828D01*
X42482343Y-37063520D01*
X42210739Y-37771036D01*
X40127000Y-37771036D01*
X40127000Y-36752223D01*
X42956828Y-36752223D01*
X44125000Y-37920395D01*
X45293172Y-36752223D01*
X46456828Y-36752223D01*
X47625000Y-37920395D01*
X48793172Y-36752223D01*
X49956828Y-36752223D01*
X51125000Y-37920395D01*
X52293172Y-36752223D01*
X53456828Y-36752223D01*
X54625000Y-37920395D01*
X54639143Y-37906253D01*
X54818748Y-38085858D01*
X54804605Y-38100000D01*
X55972777Y-39268172D01*
X56267657Y-39136480D01*
X56328000Y-38979290D01*
X56519344Y-39265656D01*
X57425782Y-39871319D01*
X58495000Y-40084000D01*
X64845000Y-40084000D01*
X65391753Y-39975244D01*
X65500950Y-40239521D01*
X65704408Y-40443335D01*
X65970376Y-40553774D01*
X66156437Y-40553936D01*
X66408748Y-40806247D01*
X66408750Y-40806250D01*
X66565317Y-40910864D01*
X66750000Y-40947601D01*
X66750005Y-40947600D01*
X69383901Y-40947600D01*
X69514408Y-41078335D01*
X69780376Y-41188774D01*
X70068361Y-41189025D01*
X70334521Y-41079050D01*
X70538335Y-40875592D01*
X70648774Y-40609624D01*
X70649025Y-40321639D01*
X70539050Y-40055479D01*
X70335592Y-39851665D01*
X70069624Y-39741226D01*
X69781639Y-39740975D01*
X69515479Y-39850950D01*
X69383799Y-39982400D01*
X66949899Y-39982400D01*
X66838864Y-39871365D01*
X66839025Y-39686639D01*
X66729050Y-39420479D01*
X66672991Y-39364322D01*
X66820656Y-39265656D01*
X67426319Y-38359218D01*
X67639000Y-37290000D01*
X67636967Y-37279778D01*
X67875376Y-37378774D01*
X68163361Y-37379025D01*
X68429521Y-37269050D01*
X68561201Y-37137600D01*
X68748901Y-37137600D01*
X68879408Y-37268335D01*
X69145376Y-37378774D01*
X69433361Y-37379025D01*
X69699521Y-37269050D01*
X69903335Y-37065592D01*
X70013774Y-36799624D01*
X70014025Y-36511639D01*
X69904050Y-36245479D01*
X69700592Y-36041665D01*
X69434624Y-35931226D01*
X69378977Y-35931177D01*
X69379025Y-35876639D01*
X69269050Y-35610479D01*
X69065592Y-35406665D01*
X68799624Y-35296226D01*
X68743977Y-35296177D01*
X68744025Y-35241639D01*
X68634050Y-34975479D01*
X68430592Y-34771665D01*
X68164624Y-34661226D01*
X67876639Y-34660975D01*
X67610479Y-34770950D01*
X67478799Y-34902400D01*
X67291099Y-34902400D01*
X67160592Y-34771665D01*
X66894624Y-34661226D01*
X66606639Y-34660975D01*
X66340479Y-34770950D01*
X66206930Y-34904265D01*
X65914218Y-34708681D01*
X64845000Y-34496000D01*
X58495000Y-34496000D01*
X57425782Y-34708681D01*
X56519344Y-35314344D01*
X55913681Y-36220782D01*
X55811646Y-36733746D01*
X55793171Y-36752221D01*
X55661480Y-36457343D01*
X54953964Y-36185739D01*
X54196368Y-36205564D01*
X53588520Y-36457343D01*
X53456828Y-36752223D01*
X52293172Y-36752223D01*
X52161480Y-36457343D01*
X51453964Y-36185739D01*
X50696368Y-36205564D01*
X50088520Y-36457343D01*
X49956828Y-36752223D01*
X48793172Y-36752223D01*
X48661480Y-36457343D01*
X47953964Y-36185739D01*
X47196368Y-36205564D01*
X46588520Y-36457343D01*
X46456828Y-36752223D01*
X45293172Y-36752223D01*
X45161480Y-36457343D01*
X44453964Y-36185739D01*
X43696368Y-36205564D01*
X43088520Y-36457343D01*
X42956828Y-36752223D01*
X40127000Y-36752223D01*
X40127000Y-30736000D01*
X72338000Y-30736000D01*
X72338000Y-43005000D01*
X72338000Y-43005000D01*
G37*
X72338000Y-43005000D02*
X72348006Y-43054410D01*
X72376447Y-43096035D01*
X72418841Y-43123315D01*
X72465000Y-43132000D01*
X82625000Y-43132000D01*
X82674410Y-43121994D01*
X82716035Y-43093553D01*
X82743315Y-43051159D01*
X82752000Y-43005000D01*
X82752000Y-40595000D01*
X90245000Y-40595000D01*
X90245000Y-43640000D01*
X90293336Y-43883004D01*
X90430987Y-44089013D01*
X92150000Y-45808026D01*
X92150000Y-48361583D01*
X92061226Y-48575376D01*
X92060975Y-48863361D01*
X92150000Y-49078818D01*
X92150000Y-58521583D01*
X92061226Y-58735376D01*
X92060975Y-59023361D01*
X92170950Y-59289521D01*
X92374408Y-59493335D01*
X92640376Y-59603774D01*
X92928361Y-59604025D01*
X93194521Y-59494050D01*
X93398335Y-59290592D01*
X93508774Y-59024624D01*
X93509025Y-58736639D01*
X93420000Y-58521182D01*
X93420000Y-49498361D01*
X95870975Y-49498361D01*
X95980950Y-49764521D01*
X96112400Y-49896201D01*
X96112400Y-52623901D01*
X95981665Y-52754408D01*
X95871226Y-53020376D01*
X95870975Y-53308361D01*
X95980950Y-53574521D01*
X96184408Y-53778335D01*
X96450376Y-53888774D01*
X96738361Y-53889025D01*
X97004521Y-53779050D01*
X97208335Y-53575592D01*
X97318774Y-53309624D01*
X97319025Y-53021639D01*
X97209050Y-52755479D01*
X97077600Y-52623799D01*
X97077600Y-49896099D01*
X97208335Y-49765592D01*
X97318774Y-49499624D01*
X97319025Y-49211639D01*
X97209050Y-48945479D01*
X97005592Y-48741665D01*
X96739624Y-48631226D01*
X96451639Y-48630975D01*
X96185479Y-48740950D01*
X95981665Y-48944408D01*
X95871226Y-49210376D01*
X95870975Y-49498361D01*
X93420000Y-49498361D01*
X93420000Y-49078417D01*
X93508774Y-48864624D01*
X93509025Y-48576639D01*
X93420000Y-48361182D01*
X93420000Y-45545000D01*
X93371664Y-45301996D01*
X93234013Y-45095987D01*
X91515000Y-43376974D01*
X91515000Y-42426963D01*
X91723714Y-42426963D01*
X91974534Y-43033995D01*
X92438563Y-43498834D01*
X93045155Y-43750713D01*
X93701963Y-43751286D01*
X94308995Y-43500466D01*
X94773834Y-43036437D01*
X95025713Y-42429845D01*
X95025715Y-42426963D01*
X95223714Y-42426963D01*
X95474534Y-43033995D01*
X95938563Y-43498834D01*
X96545155Y-43750713D01*
X97201963Y-43751286D01*
X97808995Y-43500466D01*
X98273834Y-43036437D01*
X98525713Y-42429845D01*
X98525715Y-42426963D01*
X98723714Y-42426963D01*
X98974534Y-43033995D01*
X99438563Y-43498834D01*
X100045155Y-43750713D01*
X100701963Y-43751286D01*
X101308995Y-43500466D01*
X101773834Y-43036437D01*
X102025713Y-42429845D01*
X102026286Y-41773037D01*
X101775466Y-41166005D01*
X101311437Y-40701166D01*
X100704845Y-40449287D01*
X100048037Y-40448714D01*
X99441005Y-40699534D01*
X98976166Y-41163563D01*
X98724287Y-41770155D01*
X98723714Y-42426963D01*
X98525715Y-42426963D01*
X98526286Y-41773037D01*
X98275466Y-41166005D01*
X97811437Y-40701166D01*
X97204845Y-40449287D01*
X96548037Y-40448714D01*
X95941005Y-40699534D01*
X95476166Y-41163563D01*
X95224287Y-41770155D01*
X95223714Y-42426963D01*
X95025715Y-42426963D01*
X95026286Y-41773037D01*
X94775466Y-41166005D01*
X94311437Y-40701166D01*
X93704845Y-40449287D01*
X93048037Y-40448714D01*
X92441005Y-40699534D01*
X91976166Y-41163563D01*
X91724287Y-41770155D01*
X91723714Y-42426963D01*
X91515000Y-42426963D01*
X91515000Y-40858026D01*
X92746377Y-39626649D01*
X93045155Y-39750713D01*
X93701963Y-39751286D01*
X94308995Y-39500466D01*
X94773834Y-39036437D01*
X94899002Y-38735000D01*
X95350992Y-38735000D01*
X95474534Y-39033995D01*
X95938563Y-39498834D01*
X96545155Y-39750713D01*
X97201963Y-39751286D01*
X97808995Y-39500466D01*
X97861775Y-39447777D01*
X99206828Y-39447777D01*
X99338520Y-39742657D01*
X100046036Y-40014261D01*
X100803632Y-39994436D01*
X101411480Y-39742657D01*
X101543172Y-39447777D01*
X100375000Y-38279605D01*
X99206828Y-39447777D01*
X97861775Y-39447777D01*
X98273834Y-39036437D01*
X98482626Y-38533610D01*
X98732343Y-39136480D01*
X99027223Y-39268172D01*
X100195395Y-38100000D01*
X100554605Y-38100000D01*
X101722777Y-39268172D01*
X102017657Y-39136480D01*
X102258091Y-38510161D01*
X102474534Y-39033995D01*
X102938563Y-39498834D01*
X103545155Y-39750713D01*
X104201963Y-39751286D01*
X104808995Y-39500466D01*
X105273834Y-39036437D01*
X105525713Y-38429845D01*
X105525715Y-38426963D01*
X105723714Y-38426963D01*
X105974534Y-39033995D01*
X106438563Y-39498834D01*
X107045155Y-39750713D01*
X107701963Y-39751286D01*
X108308995Y-39500466D01*
X108773834Y-39036437D01*
X109025713Y-38429845D01*
X109026286Y-37773037D01*
X108775466Y-37166005D01*
X108311437Y-36701166D01*
X107704845Y-36449287D01*
X107048037Y-36448714D01*
X106441005Y-36699534D01*
X105976166Y-37163563D01*
X105724287Y-37770155D01*
X105723714Y-38426963D01*
X105525715Y-38426963D01*
X105526286Y-37773037D01*
X105275466Y-37166005D01*
X104811437Y-36701166D01*
X104204845Y-36449287D01*
X103548037Y-36448714D01*
X102941005Y-36699534D01*
X102476166Y-37163563D01*
X102267374Y-37666390D01*
X102017657Y-37063520D01*
X101722777Y-36931828D01*
X100554605Y-38100000D01*
X100195395Y-38100000D01*
X99027223Y-36931828D01*
X98732343Y-37063520D01*
X98491909Y-37689839D01*
X98275466Y-37166005D01*
X97862406Y-36752223D01*
X99206828Y-36752223D01*
X100375000Y-37920395D01*
X101543172Y-36752223D01*
X101411480Y-36457343D01*
X100703964Y-36185739D01*
X99946368Y-36205564D01*
X99338520Y-36457343D01*
X99206828Y-36752223D01*
X97862406Y-36752223D01*
X97811437Y-36701166D01*
X97204845Y-36449287D01*
X96548037Y-36448714D01*
X95941005Y-36699534D01*
X95476166Y-37163563D01*
X95350998Y-37465000D01*
X94899008Y-37465000D01*
X94775466Y-37166005D01*
X94311437Y-36701166D01*
X93704845Y-36449287D01*
X93048037Y-36448714D01*
X92441005Y-36699534D01*
X91976166Y-37163563D01*
X91724287Y-37770155D01*
X91723714Y-38426963D01*
X91848355Y-38728619D01*
X90430987Y-40145987D01*
X90293336Y-40351996D01*
X90245000Y-40595000D01*
X82752000Y-40595000D01*
X82752000Y-37464500D01*
X84682400Y-39394899D01*
X84682400Y-39830000D01*
X84719136Y-40014683D01*
X84823750Y-40171250D01*
X84980317Y-40275864D01*
X85165000Y-40312600D01*
X85349683Y-40275864D01*
X85506250Y-40171250D01*
X85610864Y-40014683D01*
X85647600Y-39830000D01*
X85647600Y-39195000D01*
X85610864Y-39010317D01*
X85506250Y-38853750D01*
X85506247Y-38853748D01*
X84031519Y-37379019D01*
X84038361Y-37379025D01*
X84304521Y-37269050D01*
X84436201Y-37137600D01*
X84623901Y-37137600D01*
X84754408Y-37268335D01*
X85020376Y-37378774D01*
X85308361Y-37379025D01*
X85574521Y-37269050D01*
X85778335Y-37065592D01*
X85799917Y-37013617D01*
X85820950Y-37064521D01*
X86024408Y-37268335D01*
X86290376Y-37378774D01*
X86578361Y-37379025D01*
X86844521Y-37269050D01*
X86976201Y-37137600D01*
X87163901Y-37137600D01*
X87294408Y-37268335D01*
X87560376Y-37378774D01*
X87848361Y-37379025D01*
X88114521Y-37269050D01*
X88318335Y-37065592D01*
X88428774Y-36799624D01*
X88428823Y-36743977D01*
X88483361Y-36744025D01*
X88749521Y-36634050D01*
X88953335Y-36430592D01*
X89063774Y-36164624D01*
X89064025Y-35876639D01*
X88954050Y-35610479D01*
X88750592Y-35406665D01*
X88484624Y-35296226D01*
X88428977Y-35296177D01*
X88429025Y-35241639D01*
X88319050Y-34975479D01*
X88115592Y-34771665D01*
X87849624Y-34661226D01*
X87793977Y-34661177D01*
X87794025Y-34606639D01*
X87684050Y-34340479D01*
X87480592Y-34136665D01*
X87214624Y-34026226D01*
X86926639Y-34025975D01*
X86660479Y-34135950D01*
X86528799Y-34267400D01*
X86341099Y-34267400D01*
X86210592Y-34136665D01*
X85944624Y-34026226D01*
X85656639Y-34025975D01*
X85390479Y-34135950D01*
X85186665Y-34339408D01*
X85165083Y-34391383D01*
X85144050Y-34340479D01*
X84940592Y-34136665D01*
X84674624Y-34026226D01*
X84386639Y-34025975D01*
X84120479Y-34135950D01*
X83988799Y-34267400D01*
X83801099Y-34267400D01*
X83670592Y-34136665D01*
X83404624Y-34026226D01*
X83116639Y-34025975D01*
X82850479Y-34135950D01*
X82752000Y-34234257D01*
X82752000Y-30736000D01*
X114873000Y-30736000D01*
X114873000Y-73358000D01*
X113587600Y-73358000D01*
X113587600Y-72121099D01*
X113718335Y-71990592D01*
X113828774Y-71724624D01*
X113829025Y-71436639D01*
X113719050Y-71170479D01*
X113515592Y-70966665D01*
X113249624Y-70856226D01*
X112961639Y-70855975D01*
X112695479Y-70965950D01*
X112491665Y-71169408D01*
X112381226Y-71435376D01*
X112380975Y-71723361D01*
X112490950Y-71989521D01*
X112622400Y-72121201D01*
X112622400Y-73358000D01*
X105967600Y-73358000D01*
X105967600Y-62254900D01*
X106461247Y-61761252D01*
X106461250Y-61761250D01*
X106565864Y-61604683D01*
X106572286Y-61572400D01*
X106602601Y-61420000D01*
X106602600Y-61419995D01*
X106602600Y-58151099D01*
X106733335Y-58020592D01*
X106843774Y-57754624D01*
X106844025Y-57466639D01*
X106734050Y-57200479D01*
X106530592Y-56996665D01*
X106264624Y-56886226D01*
X105976639Y-56885975D01*
X105710479Y-56995950D01*
X105506665Y-57199408D01*
X105396226Y-57465376D01*
X105395975Y-57753361D01*
X105505950Y-58019521D01*
X105637400Y-58151201D01*
X105637400Y-58159455D01*
X105629624Y-58156226D01*
X105341639Y-58155975D01*
X105332600Y-58159710D01*
X105332600Y-55213361D01*
X109205975Y-55213361D01*
X109315950Y-55479521D01*
X109519408Y-55683335D01*
X109785376Y-55793774D01*
X110073361Y-55794025D01*
X110339521Y-55684050D01*
X110543335Y-55480592D01*
X110653774Y-55214624D01*
X110653936Y-55028564D01*
X112622400Y-53060099D01*
X112622400Y-57703901D01*
X112491665Y-57834408D01*
X112381226Y-58100376D01*
X112380975Y-58388361D01*
X112490950Y-58654521D01*
X112694408Y-58858335D01*
X112960376Y-58968774D01*
X113248361Y-58969025D01*
X113257400Y-58965290D01*
X113257400Y-59608901D01*
X113126665Y-59739408D01*
X113016226Y-60005376D01*
X113015975Y-60293361D01*
X113125950Y-60559521D01*
X113329408Y-60763335D01*
X113595376Y-60873774D01*
X113883361Y-60874025D01*
X114149521Y-60764050D01*
X114353335Y-60560592D01*
X114463774Y-60294624D01*
X114464025Y-60006639D01*
X114354050Y-59740479D01*
X114222600Y-59608799D01*
X114222600Y-38466099D01*
X114353335Y-38335592D01*
X114463774Y-38069624D01*
X114464025Y-37781639D01*
X114354050Y-37515479D01*
X114150592Y-37311665D01*
X113884624Y-37201226D01*
X113596639Y-37200975D01*
X113587600Y-37204710D01*
X113587600Y-36561099D01*
X113718335Y-36430592D01*
X113828774Y-36164624D01*
X113829025Y-35876639D01*
X113719050Y-35610479D01*
X113515592Y-35406665D01*
X113249624Y-35296226D01*
X113193977Y-35296177D01*
X113194025Y-35241639D01*
X113084050Y-34975479D01*
X112880592Y-34771665D01*
X112614624Y-34661226D01*
X112326639Y-34660975D01*
X112060479Y-34770950D01*
X111856665Y-34974408D01*
X111746226Y-35240376D01*
X111745975Y-35528361D01*
X111855950Y-35794521D01*
X111987400Y-35926201D01*
X111987400Y-36877436D01*
X111811437Y-36701166D01*
X111204845Y-36449287D01*
X110548037Y-36448714D01*
X109941005Y-36699534D01*
X109476166Y-37163563D01*
X109224287Y-37770155D01*
X109223714Y-38426963D01*
X109474534Y-39033995D01*
X109938563Y-39498834D01*
X110545155Y-39750713D01*
X111201963Y-39751286D01*
X111808995Y-39500466D01*
X111987400Y-39322372D01*
X111987400Y-40627340D01*
X111911480Y-40457343D01*
X111203964Y-40185739D01*
X110446368Y-40205564D01*
X109838520Y-40457343D01*
X109706828Y-40752223D01*
X110875000Y-41920395D01*
X110889143Y-41906253D01*
X111068748Y-42085858D01*
X111054605Y-42100000D01*
X111068748Y-42114143D01*
X110889143Y-42293748D01*
X110875000Y-42279605D01*
X109706828Y-43447777D01*
X109838520Y-43742657D01*
X110546036Y-44014261D01*
X111303632Y-43994436D01*
X111911480Y-43742657D01*
X111987400Y-43572660D01*
X111987400Y-52330101D01*
X109971364Y-54346136D01*
X109786639Y-54345975D01*
X109520479Y-54455950D01*
X109316665Y-54659408D01*
X109206226Y-54925376D01*
X109205975Y-55213361D01*
X105332600Y-55213361D01*
X105332600Y-51801099D01*
X105463335Y-51670592D01*
X105573774Y-51404624D01*
X105574025Y-51116639D01*
X105464050Y-50850479D01*
X105332600Y-50718799D01*
X105332600Y-46379900D01*
X107716250Y-43996250D01*
X107820864Y-43839683D01*
X107850669Y-43689842D01*
X108308995Y-43500466D01*
X108773834Y-43036437D01*
X108982626Y-42533610D01*
X109232343Y-43136480D01*
X109527223Y-43268172D01*
X110695395Y-42100000D01*
X109527223Y-40931828D01*
X109232343Y-41063520D01*
X108991909Y-41689839D01*
X108775466Y-41166005D01*
X108311437Y-40701166D01*
X107704845Y-40449287D01*
X107048037Y-40448714D01*
X106441005Y-40699534D01*
X105976166Y-41163563D01*
X105724287Y-41770155D01*
X105723714Y-42426963D01*
X105974534Y-43033995D01*
X106438563Y-43498834D01*
X106728340Y-43619160D01*
X104697600Y-45649900D01*
X104697600Y-44275005D01*
X104697601Y-44275000D01*
X104660864Y-44090317D01*
X104610045Y-44014261D01*
X104556250Y-43933750D01*
X104556247Y-43933748D01*
X104357600Y-43735100D01*
X104357600Y-43686978D01*
X104808995Y-43500466D01*
X105273834Y-43036437D01*
X105525713Y-42429845D01*
X105526286Y-41773037D01*
X105275466Y-41166005D01*
X104811437Y-40701166D01*
X104204845Y-40449287D01*
X103548037Y-40448714D01*
X102941005Y-40699534D01*
X102476166Y-41163563D01*
X102224287Y-41770155D01*
X102223714Y-42426963D01*
X102474534Y-43033995D01*
X102938563Y-43498834D01*
X103392400Y-43687284D01*
X103392400Y-43935000D01*
X103429136Y-44119683D01*
X103533750Y-44276250D01*
X103732400Y-44474899D01*
X103732400Y-49448901D01*
X103601665Y-49579408D01*
X103491226Y-49845376D01*
X103490975Y-50133361D01*
X103600950Y-50399521D01*
X103732400Y-50531201D01*
X103732400Y-56889455D01*
X103724624Y-56886226D01*
X103436639Y-56885975D01*
X103427600Y-56889710D01*
X103427600Y-54435005D01*
X103427601Y-54435000D01*
X103390864Y-54250317D01*
X103317988Y-54141250D01*
X103286250Y-54093750D01*
X103286247Y-54093748D01*
X103033864Y-53841365D01*
X103034025Y-53656639D01*
X102924050Y-53390479D01*
X102720592Y-53186665D01*
X102454624Y-53076226D01*
X102166639Y-53075975D01*
X101900479Y-53185950D01*
X101696665Y-53389408D01*
X101586226Y-53655376D01*
X101585975Y-53943361D01*
X101695950Y-54209521D01*
X101899408Y-54413335D01*
X102165376Y-54523774D01*
X102351437Y-54523936D01*
X102462400Y-54634899D01*
X102462400Y-56444900D01*
X101522600Y-55505100D01*
X101522600Y-50531099D01*
X101653335Y-50400592D01*
X101763774Y-50134624D01*
X101764025Y-49846639D01*
X101654050Y-49580479D01*
X101450592Y-49376665D01*
X101184624Y-49266226D01*
X100896639Y-49265975D01*
X100630479Y-49375950D01*
X100426665Y-49579408D01*
X100316226Y-49845376D01*
X100315975Y-50133361D01*
X100425950Y-50399521D01*
X100557400Y-50531201D01*
X100557400Y-52444455D01*
X100549624Y-52441226D01*
X100261639Y-52440975D01*
X100252600Y-52444710D01*
X100252600Y-50625000D01*
X100215864Y-50440317D01*
X100111250Y-50283750D01*
X99223864Y-49396364D01*
X99224025Y-49211639D01*
X99114050Y-48945479D01*
X98910592Y-48741665D01*
X98644624Y-48631226D01*
X98356639Y-48630975D01*
X98090479Y-48740950D01*
X97886665Y-48944408D01*
X97776226Y-49210376D01*
X97775975Y-49498361D01*
X97885950Y-49764521D01*
X98089408Y-49968335D01*
X98355376Y-50078774D01*
X98541436Y-50078936D01*
X99287400Y-50824900D01*
X99287400Y-72943901D01*
X99156665Y-73074408D01*
X99046226Y-73340376D01*
X99046211Y-73358000D01*
X95807600Y-73358000D01*
X95807600Y-66406099D01*
X95938335Y-66275592D01*
X96048774Y-66009624D01*
X96049025Y-65721639D01*
X95939050Y-65455479D01*
X95735592Y-65251665D01*
X95469624Y-65141226D01*
X95181639Y-65140975D01*
X95172600Y-65144710D01*
X95172600Y-65136099D01*
X95303335Y-65005592D01*
X95413774Y-64739624D01*
X95414025Y-64451639D01*
X95304050Y-64185479D01*
X95100592Y-63981665D01*
X94834624Y-63871226D01*
X94546639Y-63870975D01*
X94537600Y-63874710D01*
X94537600Y-62596099D01*
X94668335Y-62465592D01*
X94778774Y-62199624D01*
X94779025Y-61911639D01*
X94669050Y-61645479D01*
X94465592Y-61441665D01*
X94199624Y-61331226D01*
X93911639Y-61330975D01*
X93902600Y-61334710D01*
X93902600Y-61326099D01*
X94033335Y-61195592D01*
X94143774Y-60929624D01*
X94144025Y-60641639D01*
X94034050Y-60375479D01*
X93830592Y-60171665D01*
X93564624Y-60061226D01*
X93276639Y-60060975D01*
X93010479Y-60170950D01*
X92806665Y-60374408D01*
X92696226Y-60640376D01*
X92695975Y-60928361D01*
X92805950Y-61194521D01*
X92937400Y-61326201D01*
X92937400Y-62148901D01*
X92806665Y-62279408D01*
X92696226Y-62545376D01*
X92696177Y-62601023D01*
X92641639Y-62600975D01*
X92375479Y-62710950D01*
X92171665Y-62914408D01*
X92061226Y-63180376D01*
X92060975Y-63468361D01*
X92170950Y-63734521D01*
X92302400Y-63866201D01*
X92302400Y-64509455D01*
X92294624Y-64506226D01*
X92006639Y-64505975D01*
X91997600Y-64509710D01*
X91997600Y-61961099D01*
X92128335Y-61830592D01*
X92238774Y-61564624D01*
X92239025Y-61276639D01*
X92129050Y-61010479D01*
X91925592Y-60806665D01*
X91659624Y-60696226D01*
X91371639Y-60695975D01*
X91362600Y-60699710D01*
X91362600Y-58151099D01*
X91493335Y-58020592D01*
X91603774Y-57754624D01*
X91604025Y-57466639D01*
X91494050Y-57200479D01*
X91290592Y-56996665D01*
X91024624Y-56886226D01*
X90736639Y-56885975D01*
X90470479Y-56995950D01*
X90266665Y-57199408D01*
X90156226Y-57465376D01*
X90155975Y-57753361D01*
X90165791Y-57777118D01*
X90020592Y-57631665D01*
X89754624Y-57521226D01*
X89466639Y-57520975D01*
X89200479Y-57630950D01*
X88996665Y-57834408D01*
X88886226Y-58100376D01*
X88885975Y-58388361D01*
X88995950Y-58654521D01*
X89127400Y-58786201D01*
X89127400Y-72129455D01*
X89119624Y-72126226D01*
X88831639Y-72125975D01*
X88822600Y-72129710D01*
X88822600Y-60056099D01*
X88953335Y-59925592D01*
X89063774Y-59659624D01*
X89064025Y-59371639D01*
X88954050Y-59105479D01*
X88750592Y-58901665D01*
X88484624Y-58791226D01*
X88196639Y-58790975D01*
X87930479Y-58900950D01*
X87726665Y-59104408D01*
X87616226Y-59370376D01*
X87615975Y-59658361D01*
X87725950Y-59924521D01*
X87857400Y-60056201D01*
X87857400Y-71494455D01*
X87849624Y-71491226D01*
X87793977Y-71491177D01*
X87794025Y-71436639D01*
X87684050Y-71170479D01*
X87480592Y-70966665D01*
X87214624Y-70856226D01*
X86926639Y-70855975D01*
X86917600Y-70859710D01*
X86917600Y-68946099D01*
X87048335Y-68815592D01*
X87158774Y-68549624D01*
X87159025Y-68261639D01*
X87049050Y-67995479D01*
X86917600Y-67863799D01*
X86917600Y-62596099D01*
X87048335Y-62465592D01*
X87158774Y-62199624D01*
X87159025Y-61911639D01*
X87049050Y-61645479D01*
X86917600Y-61513799D01*
X86917600Y-59421099D01*
X87048335Y-59290592D01*
X87158774Y-59024624D01*
X87159025Y-58736639D01*
X87049050Y-58470479D01*
X86845592Y-58266665D01*
X86579624Y-58156226D01*
X86291639Y-58155975D01*
X86025479Y-58265950D01*
X85821665Y-58469408D01*
X85711226Y-58735376D01*
X85710975Y-59023361D01*
X85820950Y-59289521D01*
X85952400Y-59421201D01*
X85952400Y-61513901D01*
X85821665Y-61644408D01*
X85711226Y-61910376D01*
X85710975Y-62198361D01*
X85820950Y-62464521D01*
X85952400Y-62596201D01*
X85952400Y-67863901D01*
X85821665Y-67994408D01*
X85711226Y-68260376D01*
X85710975Y-68548361D01*
X85820950Y-68814521D01*
X85952400Y-68946201D01*
X85952400Y-74213901D01*
X85821665Y-74344408D01*
X85711226Y-74610376D01*
X85710975Y-74898361D01*
X85820950Y-75164521D01*
X85952400Y-75296201D01*
X85952400Y-85643901D01*
X85821665Y-85774408D01*
X85711226Y-86040376D01*
X85710975Y-86328361D01*
X85820950Y-86594521D01*
X85952400Y-86726201D01*
X85952400Y-91358901D01*
X85821665Y-91489408D01*
X85711226Y-91755376D01*
X85710975Y-92043361D01*
X85820950Y-92309521D01*
X85952400Y-92441201D01*
X85952400Y-97073901D01*
X85821665Y-97204408D01*
X85711226Y-97470376D01*
X85710975Y-97758361D01*
X85820950Y-98024521D01*
X85952400Y-98156201D01*
X85952400Y-107233901D01*
X85821665Y-107364408D01*
X85711226Y-107630376D01*
X85710975Y-107918361D01*
X85820950Y-108184521D01*
X85952400Y-108316201D01*
X85952400Y-113998000D01*
X80809011Y-113998000D01*
X80809025Y-113981639D01*
X80699050Y-113715479D01*
X80495592Y-113511665D01*
X80229624Y-113401226D01*
X80173977Y-113401177D01*
X80174025Y-113346639D01*
X80064050Y-113080479D01*
X79860592Y-112876665D01*
X79594624Y-112766226D01*
X79538977Y-112766177D01*
X79539025Y-112711639D01*
X79429050Y-112445479D01*
X79225592Y-112241665D01*
X78959624Y-112131226D01*
X78671639Y-112130975D01*
X78405479Y-112240950D01*
X78201665Y-112444408D01*
X78091226Y-112710376D01*
X78090975Y-112998361D01*
X78200950Y-113264521D01*
X78332400Y-113396201D01*
X78332400Y-120275101D01*
X77980100Y-120627400D01*
X59671099Y-120627400D01*
X59540592Y-120496665D01*
X59274624Y-120386226D01*
X58986639Y-120385975D01*
X58720479Y-120495950D01*
X58516665Y-120699408D01*
X58406226Y-120965376D01*
X58405975Y-121253361D01*
X58515950Y-121519521D01*
X58719408Y-121723335D01*
X58985376Y-121833774D01*
X59041023Y-121833823D01*
X59040975Y-121888361D01*
X59150950Y-122154521D01*
X59354408Y-122358335D01*
X59620376Y-122468774D01*
X59676023Y-122468823D01*
X59675975Y-122523361D01*
X59785950Y-122789521D01*
X59989408Y-122993335D01*
X60255376Y-123103774D01*
X60311023Y-123103823D01*
X60310975Y-123158361D01*
X60420950Y-123424521D01*
X60624408Y-123628335D01*
X60890376Y-123738774D01*
X61178361Y-123739025D01*
X61444521Y-123629050D01*
X61576201Y-123497600D01*
X74878000Y-123497600D01*
X74878000Y-128934000D01*
X71840669Y-128934000D01*
X72038606Y-128801743D01*
X72218744Y-128532147D01*
X72282000Y-128214137D01*
X72282000Y-127467863D01*
X72218744Y-127149853D01*
X72038606Y-126880257D01*
X71769010Y-126700119D01*
X71451000Y-126636863D01*
X71132990Y-126700119D01*
X70863394Y-126880257D01*
X70683256Y-127149853D01*
X70620000Y-127467863D01*
X70620000Y-128214137D01*
X70683256Y-128532147D01*
X70863394Y-128801743D01*
X71061331Y-128934000D01*
X65740669Y-128934000D01*
X65938606Y-128801743D01*
X66118744Y-128532147D01*
X66182000Y-128214137D01*
X66182000Y-127467863D01*
X66118744Y-127149853D01*
X65938606Y-126880257D01*
X65669010Y-126700119D01*
X65351000Y-126636863D01*
X65032990Y-126700119D01*
X64763394Y-126880257D01*
X64583256Y-127149853D01*
X64520000Y-127467863D01*
X64520000Y-128214137D01*
X64583256Y-128532147D01*
X64763394Y-128801743D01*
X64961331Y-128934000D01*
X55384119Y-128934000D01*
X55408774Y-128874624D01*
X55409025Y-128586639D01*
X55299050Y-128320479D01*
X55167600Y-128188799D01*
X55167600Y-124826099D01*
X55298335Y-124695592D01*
X55408774Y-124429624D01*
X55409025Y-124141639D01*
X55299050Y-123875479D01*
X55095592Y-123671665D01*
X54829624Y-123561226D01*
X54541639Y-123560975D01*
X54275479Y-123670950D01*
X54071665Y-123874408D01*
X53961226Y-124140376D01*
X53960975Y-124428361D01*
X54070950Y-124694521D01*
X54202400Y-124826201D01*
X54202400Y-128188901D01*
X54071665Y-128319408D01*
X53961226Y-128585376D01*
X53960975Y-128873361D01*
X53986031Y-128934000D01*
X49034119Y-128934000D01*
X49058774Y-128874624D01*
X49059025Y-128586639D01*
X48949050Y-128320479D01*
X48817600Y-128188799D01*
X48817600Y-127366099D01*
X48948335Y-127235592D01*
X49058774Y-126969624D01*
X49059025Y-126681639D01*
X48949050Y-126415479D01*
X48745592Y-126211665D01*
X48479624Y-126101226D01*
X48191639Y-126100975D01*
X47925479Y-126210950D01*
X47721665Y-126414408D01*
X47611226Y-126680376D01*
X47610975Y-126968361D01*
X47720950Y-127234521D01*
X47852400Y-127366201D01*
X47852400Y-128188901D01*
X47721665Y-128319408D01*
X47611226Y-128585376D01*
X47610975Y-128873361D01*
X47636031Y-128934000D01*
X40127000Y-128934000D01*
X40127000Y-125698361D01*
X45070975Y-125698361D01*
X45180950Y-125964521D01*
X45384408Y-126168335D01*
X45650376Y-126278774D01*
X45938361Y-126279025D01*
X46204521Y-126169050D01*
X46336201Y-126037600D01*
X52238901Y-126037600D01*
X52369408Y-126168335D01*
X52635376Y-126278774D01*
X52923361Y-126279025D01*
X53189521Y-126169050D01*
X53393335Y-125965592D01*
X53503774Y-125699624D01*
X53504025Y-125411639D01*
X53394050Y-125145479D01*
X53190592Y-124941665D01*
X52924624Y-124831226D01*
X52636639Y-124830975D01*
X52370479Y-124940950D01*
X52238799Y-125072400D01*
X46336099Y-125072400D01*
X46205592Y-124941665D01*
X45939624Y-124831226D01*
X45651639Y-124830975D01*
X45385479Y-124940950D01*
X45181665Y-125144408D01*
X45071226Y-125410376D01*
X45070975Y-125698361D01*
X40127000Y-125698361D01*
X40127000Y-105870000D01*
X59003000Y-105870000D01*
X59003000Y-118570000D01*
X59157677Y-119347613D01*
X59598159Y-120006841D01*
X60257387Y-120447323D01*
X61035000Y-120602000D01*
X61812613Y-120447323D01*
X61840664Y-120428580D01*
X62013396Y-120543996D01*
X62305000Y-120601999D01*
X62596604Y-120543996D01*
X62843815Y-120378815D01*
X63478816Y-119743815D01*
X63643996Y-119496604D01*
X63702000Y-119205000D01*
X63643996Y-118913395D01*
X63478816Y-118666184D01*
X63231605Y-118501004D01*
X63067000Y-118468262D01*
X63067000Y-105870000D01*
X62912323Y-105092387D01*
X62471841Y-104433159D01*
X61812613Y-103992677D01*
X61035000Y-103838000D01*
X60257387Y-103992677D01*
X59598159Y-104433159D01*
X59157677Y-105092387D01*
X59003000Y-105870000D01*
X40127000Y-105870000D01*
X40127000Y-97615000D01*
X63448000Y-97615000D01*
X63602677Y-98392613D01*
X64043159Y-99051841D01*
X64702387Y-99492323D01*
X65480000Y-99647000D01*
X78180000Y-99647000D01*
X78957613Y-99492323D01*
X79616841Y-99051841D01*
X80057323Y-98392613D01*
X80212000Y-97615000D01*
X80057323Y-96837387D01*
X79616841Y-96178159D01*
X78957613Y-95737677D01*
X78180000Y-95583000D01*
X65480000Y-95583000D01*
X64702387Y-95737677D01*
X64043159Y-96178159D01*
X63602677Y-96837387D01*
X63448000Y-97615000D01*
X40127000Y-97615000D01*
X40127000Y-79200000D01*
X62178000Y-79200000D01*
X62332677Y-79977613D01*
X62773159Y-80636841D01*
X63432387Y-81077323D01*
X64210000Y-81232000D01*
X78180000Y-81232000D01*
X78957613Y-81077323D01*
X79616841Y-80636841D01*
X80057323Y-79977613D01*
X80212000Y-79200000D01*
X80057323Y-78422387D01*
X79616841Y-77763159D01*
X78957613Y-77322677D01*
X78180000Y-77168000D01*
X64210000Y-77168000D01*
X63432387Y-77322677D01*
X62773159Y-77763159D01*
X62332677Y-78422387D01*
X62178000Y-79200000D01*
X40127000Y-79200000D01*
X40127000Y-74120000D01*
X64083000Y-74120000D01*
X64237677Y-74897613D01*
X64678159Y-75556841D01*
X65337387Y-75997323D01*
X66115000Y-76152000D01*
X77545000Y-76152000D01*
X78322613Y-75997323D01*
X78981841Y-75556841D01*
X79422323Y-74897613D01*
X79577000Y-74120000D01*
X79422323Y-73342387D01*
X78981841Y-72683159D01*
X78322613Y-72242677D01*
X77545000Y-72088000D01*
X66115000Y-72088000D01*
X65337387Y-72242677D01*
X64678159Y-72683159D01*
X64237677Y-73342387D01*
X64083000Y-74120000D01*
X40127000Y-74120000D01*
X40127000Y-55705000D01*
X63448000Y-55705000D01*
X63602677Y-56482613D01*
X64043159Y-57141841D01*
X64702387Y-57582323D01*
X65480000Y-57737000D01*
X78180000Y-57737000D01*
X78957613Y-57582323D01*
X79616841Y-57141841D01*
X80057323Y-56482613D01*
X80212000Y-55705000D01*
X80057323Y-54927387D01*
X79616841Y-54268159D01*
X78957613Y-53827677D01*
X78180000Y-53673000D01*
X65480000Y-53673000D01*
X64702387Y-53827677D01*
X64043159Y-54268159D01*
X63602677Y-54927387D01*
X63448000Y-55705000D01*
X40127000Y-55705000D01*
X40127000Y-42426963D01*
X42473714Y-42426963D01*
X42724534Y-43033995D01*
X43188563Y-43498834D01*
X43795155Y-43750713D01*
X44451963Y-43751286D01*
X45058995Y-43500466D01*
X45523834Y-43036437D01*
X45775713Y-42429845D01*
X45775715Y-42426963D01*
X45973714Y-42426963D01*
X46224534Y-43033995D01*
X46688563Y-43498834D01*
X47295155Y-43750713D01*
X47951963Y-43751286D01*
X48558995Y-43500466D01*
X49023834Y-43036437D01*
X49275713Y-42429845D01*
X49275715Y-42426963D01*
X49473714Y-42426963D01*
X49724534Y-43033995D01*
X50188563Y-43498834D01*
X50795155Y-43750713D01*
X51451963Y-43751286D01*
X52058995Y-43500466D01*
X52523834Y-43036437D01*
X52775713Y-42429845D01*
X52775715Y-42426963D01*
X52973714Y-42426963D01*
X53224534Y-43033995D01*
X53688563Y-43498834D01*
X54295155Y-43750713D01*
X54951963Y-43751286D01*
X55558995Y-43500466D01*
X56023834Y-43036437D01*
X56275713Y-42429845D01*
X56275715Y-42426963D01*
X56473714Y-42426963D01*
X56724534Y-43033995D01*
X57188563Y-43498834D01*
X57795155Y-43750713D01*
X58451963Y-43751286D01*
X59058995Y-43500466D01*
X59523834Y-43036437D01*
X59775713Y-42429845D01*
X59775715Y-42426963D01*
X59973714Y-42426963D01*
X60224534Y-43033995D01*
X60688563Y-43498834D01*
X61295155Y-43750713D01*
X61951963Y-43751286D01*
X62558995Y-43500466D01*
X63023834Y-43036437D01*
X63275713Y-42429845D01*
X63276286Y-41773037D01*
X63025466Y-41166005D01*
X62561437Y-40701166D01*
X61954845Y-40449287D01*
X61298037Y-40448714D01*
X60691005Y-40699534D01*
X60226166Y-41163563D01*
X59974287Y-41770155D01*
X59973714Y-42426963D01*
X59775715Y-42426963D01*
X59776286Y-41773037D01*
X59525466Y-41166005D01*
X59061437Y-40701166D01*
X58454845Y-40449287D01*
X57798037Y-40448714D01*
X57191005Y-40699534D01*
X56726166Y-41163563D01*
X56474287Y-41770155D01*
X56473714Y-42426963D01*
X56275715Y-42426963D01*
X56276286Y-41773037D01*
X56025466Y-41166005D01*
X55561437Y-40701166D01*
X54954845Y-40449287D01*
X54298037Y-40448714D01*
X53691005Y-40699534D01*
X53226166Y-41163563D01*
X52974287Y-41770155D01*
X52973714Y-42426963D01*
X52775715Y-42426963D01*
X52776286Y-41773037D01*
X52525466Y-41166005D01*
X52061437Y-40701166D01*
X51454845Y-40449287D01*
X50798037Y-40448714D01*
X50191005Y-40699534D01*
X49726166Y-41163563D01*
X49474287Y-41770155D01*
X49473714Y-42426963D01*
X49275715Y-42426963D01*
X49276286Y-41773037D01*
X49025466Y-41166005D01*
X48561437Y-40701166D01*
X47954845Y-40449287D01*
X47298037Y-40448714D01*
X46691005Y-40699534D01*
X46226166Y-41163563D01*
X45974287Y-41770155D01*
X45973714Y-42426963D01*
X45775715Y-42426963D01*
X45776286Y-41773037D01*
X45525466Y-41166005D01*
X45061437Y-40701166D01*
X44454845Y-40449287D01*
X43798037Y-40448714D01*
X43191005Y-40699534D01*
X42726166Y-41163563D01*
X42474287Y-41770155D01*
X42473714Y-42426963D01*
X40127000Y-42426963D01*
X40127000Y-39447777D01*
X42956828Y-39447777D01*
X43088520Y-39742657D01*
X43796036Y-40014261D01*
X44553632Y-39994436D01*
X45161480Y-39742657D01*
X45293172Y-39447777D01*
X46456828Y-39447777D01*
X46588520Y-39742657D01*
X47296036Y-40014261D01*
X48053632Y-39994436D01*
X48661480Y-39742657D01*
X48793172Y-39447777D01*
X49956828Y-39447777D01*
X50088520Y-39742657D01*
X50796036Y-40014261D01*
X51553632Y-39994436D01*
X52161480Y-39742657D01*
X52293172Y-39447777D01*
X53456828Y-39447777D01*
X53588520Y-39742657D01*
X54296036Y-40014261D01*
X55053632Y-39994436D01*
X55661480Y-39742657D01*
X55793172Y-39447777D01*
X54625000Y-38279605D01*
X53456828Y-39447777D01*
X52293172Y-39447777D01*
X51125000Y-38279605D01*
X49956828Y-39447777D01*
X48793172Y-39447777D01*
X47625000Y-38279605D01*
X46456828Y-39447777D01*
X45293172Y-39447777D01*
X44125000Y-38279605D01*
X42956828Y-39447777D01*
X40127000Y-39447777D01*
X40127000Y-37771036D01*
X42210739Y-37771036D01*
X42230564Y-38528632D01*
X42482343Y-39136480D01*
X42777223Y-39268172D01*
X43945395Y-38100000D01*
X44304605Y-38100000D01*
X45472777Y-39268172D01*
X45767657Y-39136480D01*
X45870921Y-38867483D01*
X45982343Y-39136480D01*
X46277223Y-39268172D01*
X47445395Y-38100000D01*
X47804605Y-38100000D01*
X48972777Y-39268172D01*
X49267657Y-39136480D01*
X49370921Y-38867483D01*
X49482343Y-39136480D01*
X49777223Y-39268172D01*
X50945395Y-38100000D01*
X51304605Y-38100000D01*
X52472777Y-39268172D01*
X52767657Y-39136480D01*
X52870921Y-38867483D01*
X52982343Y-39136480D01*
X53277223Y-39268172D01*
X54445395Y-38100000D01*
X53277223Y-36931828D01*
X52982343Y-37063520D01*
X52879079Y-37332517D01*
X52767657Y-37063520D01*
X52472777Y-36931828D01*
X51304605Y-38100000D01*
X50945395Y-38100000D01*
X49777223Y-36931828D01*
X49482343Y-37063520D01*
X49379079Y-37332517D01*
X49267657Y-37063520D01*
X48972777Y-36931828D01*
X47804605Y-38100000D01*
X47445395Y-38100000D01*
X46277223Y-36931828D01*
X45982343Y-37063520D01*
X45879079Y-37332517D01*
X45767657Y-37063520D01*
X45472777Y-36931828D01*
X44304605Y-38100000D01*
X43945395Y-38100000D01*
X42777223Y-36931828D01*
X42482343Y-37063520D01*
X42210739Y-37771036D01*
X40127000Y-37771036D01*
X40127000Y-36752223D01*
X42956828Y-36752223D01*
X44125000Y-37920395D01*
X45293172Y-36752223D01*
X46456828Y-36752223D01*
X47625000Y-37920395D01*
X48793172Y-36752223D01*
X49956828Y-36752223D01*
X51125000Y-37920395D01*
X52293172Y-36752223D01*
X53456828Y-36752223D01*
X54625000Y-37920395D01*
X54639143Y-37906253D01*
X54818748Y-38085858D01*
X54804605Y-38100000D01*
X55972777Y-39268172D01*
X56267657Y-39136480D01*
X56328000Y-38979290D01*
X56519344Y-39265656D01*
X57425782Y-39871319D01*
X58495000Y-40084000D01*
X64845000Y-40084000D01*
X65391753Y-39975244D01*
X65500950Y-40239521D01*
X65704408Y-40443335D01*
X65970376Y-40553774D01*
X66156437Y-40553936D01*
X66408748Y-40806247D01*
X66408750Y-40806250D01*
X66565317Y-40910864D01*
X66750000Y-40947601D01*
X66750005Y-40947600D01*
X69383901Y-40947600D01*
X69514408Y-41078335D01*
X69780376Y-41188774D01*
X70068361Y-41189025D01*
X70334521Y-41079050D01*
X70538335Y-40875592D01*
X70648774Y-40609624D01*
X70649025Y-40321639D01*
X70539050Y-40055479D01*
X70335592Y-39851665D01*
X70069624Y-39741226D01*
X69781639Y-39740975D01*
X69515479Y-39850950D01*
X69383799Y-39982400D01*
X66949899Y-39982400D01*
X66838864Y-39871365D01*
X66839025Y-39686639D01*
X66729050Y-39420479D01*
X66672991Y-39364322D01*
X66820656Y-39265656D01*
X67426319Y-38359218D01*
X67639000Y-37290000D01*
X67636967Y-37279778D01*
X67875376Y-37378774D01*
X68163361Y-37379025D01*
X68429521Y-37269050D01*
X68561201Y-37137600D01*
X68748901Y-37137600D01*
X68879408Y-37268335D01*
X69145376Y-37378774D01*
X69433361Y-37379025D01*
X69699521Y-37269050D01*
X69903335Y-37065592D01*
X70013774Y-36799624D01*
X70014025Y-36511639D01*
X69904050Y-36245479D01*
X69700592Y-36041665D01*
X69434624Y-35931226D01*
X69378977Y-35931177D01*
X69379025Y-35876639D01*
X69269050Y-35610479D01*
X69065592Y-35406665D01*
X68799624Y-35296226D01*
X68743977Y-35296177D01*
X68744025Y-35241639D01*
X68634050Y-34975479D01*
X68430592Y-34771665D01*
X68164624Y-34661226D01*
X67876639Y-34660975D01*
X67610479Y-34770950D01*
X67478799Y-34902400D01*
X67291099Y-34902400D01*
X67160592Y-34771665D01*
X66894624Y-34661226D01*
X66606639Y-34660975D01*
X66340479Y-34770950D01*
X66206930Y-34904265D01*
X65914218Y-34708681D01*
X64845000Y-34496000D01*
X58495000Y-34496000D01*
X57425782Y-34708681D01*
X56519344Y-35314344D01*
X55913681Y-36220782D01*
X55811646Y-36733746D01*
X55793171Y-36752221D01*
X55661480Y-36457343D01*
X54953964Y-36185739D01*
X54196368Y-36205564D01*
X53588520Y-36457343D01*
X53456828Y-36752223D01*
X52293172Y-36752223D01*
X52161480Y-36457343D01*
X51453964Y-36185739D01*
X50696368Y-36205564D01*
X50088520Y-36457343D01*
X49956828Y-36752223D01*
X48793172Y-36752223D01*
X48661480Y-36457343D01*
X47953964Y-36185739D01*
X47196368Y-36205564D01*
X46588520Y-36457343D01*
X46456828Y-36752223D01*
X45293172Y-36752223D01*
X45161480Y-36457343D01*
X44453964Y-36185739D01*
X43696368Y-36205564D01*
X43088520Y-36457343D01*
X42956828Y-36752223D01*
X40127000Y-36752223D01*
X40127000Y-30736000D01*
X72338000Y-30736000D01*
X72338000Y-43005000D01*
G36*
X101192400Y-57809900D02*
X101192400Y-59608901D01*
X101061665Y-59739408D01*
X100951226Y-60005376D01*
X100950975Y-60293361D01*
X101060950Y-60559521D01*
X101264408Y-60763335D01*
X101530376Y-60873774D01*
X101818361Y-60874025D01*
X101842118Y-60864209D01*
X101696665Y-61009408D01*
X101586226Y-61275376D01*
X101586177Y-61331023D01*
X101531639Y-61330975D01*
X101265479Y-61440950D01*
X101061665Y-61644408D01*
X100951226Y-61910376D01*
X100950975Y-62198361D01*
X101060950Y-62464521D01*
X101192400Y-62596201D01*
X101192400Y-66300100D01*
X100252600Y-67239900D01*
X100252600Y-56870100D01*
X101192400Y-57809900D01*
X101192400Y-57809900D01*
G37*
X101192400Y-57809900D02*
X101192400Y-59608901D01*
X101061665Y-59739408D01*
X100951226Y-60005376D01*
X100950975Y-60293361D01*
X101060950Y-60559521D01*
X101264408Y-60763335D01*
X101530376Y-60873774D01*
X101818361Y-60874025D01*
X101842118Y-60864209D01*
X101696665Y-61009408D01*
X101586226Y-61275376D01*
X101586177Y-61331023D01*
X101531639Y-61330975D01*
X101265479Y-61440950D01*
X101061665Y-61644408D01*
X100951226Y-61910376D01*
X100950975Y-62198361D01*
X101060950Y-62464521D01*
X101192400Y-62596201D01*
X101192400Y-66300100D01*
X100252600Y-67239900D01*
X100252600Y-56870100D01*
X101192400Y-57809900D01*
M02*
