G04 #@! TF.FileFunction,Legend,Top*
%FSLAX46Y46*%
G04 Gerber Fmt 4.6, Leading zero omitted, Abs format (unit mm)*
G04 Created by KiCad (PCBNEW 4.0.4+dfsg1-stable) date Sun Apr 30 12:20:09 2017*
%MOMM*%
%LPD*%
G01*
G04 APERTURE LIST*
%ADD10C,0.150000*%
%ADD11C,0.200000*%
%ADD12C,0.254000*%
%ADD13C,0.317500*%
%ADD14C,0.381000*%
%ADD15C,0.127000*%
%ADD16C,0.078740*%
%ADD17C,0.190500*%
%ADD18C,0.149860*%
%ADD19C,0.114300*%
%ADD20C,0.119380*%
G04 APERTURE END LIST*
D10*
D11*
X79450000Y-123650000D02*
X80085000Y-124285000D01*
X78180000Y-123650000D02*
X80085000Y-125555000D01*
X80085000Y-126825000D02*
X76910000Y-123650000D01*
X76275000Y-124285000D02*
X80085000Y-128095000D01*
X80085000Y-129365000D02*
X76275000Y-125555000D01*
X78815000Y-129365000D02*
X76275000Y-126825000D01*
X77545000Y-129365000D02*
X76275000Y-128095000D01*
X80085000Y-123650000D02*
X80085000Y-126825000D01*
X76275000Y-123650000D02*
X80085000Y-123650000D01*
X76275000Y-126825000D02*
X76275000Y-123650000D01*
X80085000Y-126825000D02*
X80085000Y-129365000D01*
X76275000Y-129365000D02*
X76275000Y-126825000D01*
D12*
X110069095Y-44402000D02*
X109972333Y-44353619D01*
X109827190Y-44353619D01*
X109682048Y-44402000D01*
X109585286Y-44498762D01*
X109536905Y-44595524D01*
X109488524Y-44789048D01*
X109488524Y-44934190D01*
X109536905Y-45127714D01*
X109585286Y-45224476D01*
X109682048Y-45321238D01*
X109827190Y-45369619D01*
X109923952Y-45369619D01*
X110069095Y-45321238D01*
X110117476Y-45272857D01*
X110117476Y-44934190D01*
X109923952Y-44934190D01*
X110552905Y-45369619D02*
X110552905Y-44353619D01*
X111133476Y-45369619D01*
X111133476Y-44353619D01*
X111617286Y-45369619D02*
X111617286Y-44353619D01*
X111859191Y-44353619D01*
X112004333Y-44402000D01*
X112101095Y-44498762D01*
X112149476Y-44595524D01*
X112197857Y-44789048D01*
X112197857Y-44934190D01*
X112149476Y-45127714D01*
X112101095Y-45224476D01*
X112004333Y-45321238D01*
X111859191Y-45369619D01*
X111617286Y-45369619D01*
X93492571Y-35778095D02*
X93492571Y-35004000D01*
X93879619Y-35391048D02*
X93105524Y-35391048D01*
X92863619Y-34036381D02*
X92863619Y-34520190D01*
X93347429Y-34568571D01*
X93299048Y-34520190D01*
X93250667Y-34423428D01*
X93250667Y-34181524D01*
X93299048Y-34084762D01*
X93347429Y-34036381D01*
X93444190Y-33988000D01*
X93686095Y-33988000D01*
X93782857Y-34036381D01*
X93831238Y-34084762D01*
X93879619Y-34181524D01*
X93879619Y-34423428D01*
X93831238Y-34520190D01*
X93782857Y-34568571D01*
X92863619Y-33697714D02*
X93879619Y-33359047D01*
X92863619Y-33020381D01*
D11*
X35000000Y-130000000D02*
X40000000Y-125000000D01*
X35000000Y-125000000D02*
X40000000Y-120000000D01*
X35000000Y-120000000D02*
X40000000Y-115000000D01*
X35000000Y-115000000D02*
X40000000Y-110000000D01*
X35000000Y-110000000D02*
X40000000Y-105000000D01*
X35000000Y-105000000D02*
X40000000Y-100000000D01*
X35000000Y-100000000D02*
X40000000Y-95000000D01*
X35000000Y-95000000D02*
X40000000Y-90000000D01*
X35000000Y-55000000D02*
X40000000Y-50000000D01*
X35000000Y-60000000D02*
X40000000Y-55000000D01*
X35000000Y-65000000D02*
X40000000Y-60000000D01*
X35000000Y-70000000D02*
X40000000Y-65000000D01*
X35000000Y-75000000D02*
X40000000Y-70000000D01*
X35000000Y-80000000D02*
X40000000Y-75000000D01*
X35000000Y-85000000D02*
X40000000Y-80000000D01*
X35000000Y-90000000D02*
X40000000Y-85000000D01*
X35000000Y-50000000D02*
X40000000Y-45000000D01*
X35000000Y-45000000D02*
X40000000Y-40000000D01*
X35000000Y-40000000D02*
X40000000Y-35000000D01*
X35000000Y-35000000D02*
X40000000Y-30000000D01*
X115000000Y-35000000D02*
X120000000Y-30000000D01*
X115000000Y-40000000D02*
X120000000Y-35000000D01*
X115000000Y-45000000D02*
X120000000Y-40000000D01*
X115000000Y-50000000D02*
X120000000Y-45000000D01*
X115000000Y-90000000D02*
X120000000Y-85000000D01*
X115000000Y-85000000D02*
X120000000Y-80000000D01*
X115000000Y-80000000D02*
X120000000Y-75000000D01*
X115000000Y-75000000D02*
X120000000Y-70000000D01*
X115000000Y-70000000D02*
X120000000Y-65000000D01*
X115000000Y-65000000D02*
X120000000Y-60000000D01*
X115000000Y-60000000D02*
X120000000Y-55000000D01*
X115000000Y-55000000D02*
X120000000Y-50000000D01*
X115000000Y-95000000D02*
X120000000Y-90000000D01*
X115000000Y-100000000D02*
X120000000Y-95000000D01*
X115000000Y-105000000D02*
X120000000Y-100000000D01*
X115000000Y-110000000D02*
X120000000Y-105000000D01*
X115000000Y-115000000D02*
X120000000Y-110000000D01*
X115000000Y-120000000D02*
X120000000Y-115000000D01*
X115000000Y-125000000D02*
X120000000Y-120000000D01*
X115000000Y-130000000D02*
X120000000Y-125000000D01*
X115000000Y-30000000D02*
X115000000Y-130000000D01*
X40000000Y-130000000D02*
X40000000Y-30000000D01*
D12*
X55779619Y-35342666D02*
X54763619Y-35342666D01*
X55247429Y-35342666D02*
X55247429Y-34762095D01*
X55779619Y-34762095D02*
X54763619Y-34762095D01*
X54763619Y-34084761D02*
X54763619Y-33891238D01*
X54812000Y-33794476D01*
X54908762Y-33697714D01*
X55102286Y-33649333D01*
X55440952Y-33649333D01*
X55634476Y-33697714D01*
X55731238Y-33794476D01*
X55779619Y-33891238D01*
X55779619Y-34084761D01*
X55731238Y-34181523D01*
X55634476Y-34278285D01*
X55440952Y-34326666D01*
X55102286Y-34326666D01*
X54908762Y-34278285D01*
X54812000Y-34181523D01*
X54763619Y-34084761D01*
X55779619Y-32633333D02*
X55295810Y-32971999D01*
X55779619Y-33213904D02*
X54763619Y-33213904D01*
X54763619Y-32826857D01*
X54812000Y-32730095D01*
X54860381Y-32681714D01*
X54957143Y-32633333D01*
X55102286Y-32633333D01*
X55199048Y-32681714D01*
X55247429Y-32730095D01*
X55295810Y-32826857D01*
X55295810Y-33213904D01*
X55779619Y-32197904D02*
X54763619Y-32197904D01*
X55779619Y-31617333D01*
X54763619Y-31617333D01*
X51969619Y-35318476D02*
X51969619Y-35802285D01*
X50953619Y-35802285D01*
X51969619Y-34979809D02*
X50953619Y-34979809D01*
X51002000Y-33963809D02*
X50953619Y-34060571D01*
X50953619Y-34205714D01*
X51002000Y-34350856D01*
X51098762Y-34447618D01*
X51195524Y-34495999D01*
X51389048Y-34544380D01*
X51534190Y-34544380D01*
X51727714Y-34495999D01*
X51824476Y-34447618D01*
X51921238Y-34350856D01*
X51969619Y-34205714D01*
X51969619Y-34108952D01*
X51921238Y-33963809D01*
X51872857Y-33915428D01*
X51534190Y-33915428D01*
X51534190Y-34108952D01*
X51969619Y-33479999D02*
X50953619Y-33479999D01*
X51437429Y-33479999D02*
X51437429Y-32899428D01*
X51969619Y-32899428D02*
X50953619Y-32899428D01*
X50953619Y-32560761D02*
X50953619Y-31980190D01*
X51969619Y-32270475D02*
X50953619Y-32270475D01*
X51921238Y-31689904D02*
X51969619Y-31544761D01*
X51969619Y-31302857D01*
X51921238Y-31206095D01*
X51872857Y-31157714D01*
X51776095Y-31109333D01*
X51679333Y-31109333D01*
X51582571Y-31157714D01*
X51534190Y-31206095D01*
X51485810Y-31302857D01*
X51437429Y-31496380D01*
X51389048Y-31593142D01*
X51340667Y-31641523D01*
X51243905Y-31689904D01*
X51147143Y-31689904D01*
X51050381Y-31641523D01*
X51002000Y-31593142D01*
X50953619Y-31496380D01*
X50953619Y-31254476D01*
X51002000Y-31109333D01*
X50119048Y-45369619D02*
X50119048Y-44353619D01*
X50457714Y-45079333D01*
X50796381Y-44353619D01*
X50796381Y-45369619D01*
X51038286Y-45466381D02*
X51812381Y-45466381D01*
X52634857Y-45272857D02*
X52586476Y-45321238D01*
X52441333Y-45369619D01*
X52344571Y-45369619D01*
X52199429Y-45321238D01*
X52102667Y-45224476D01*
X52054286Y-45127714D01*
X52005905Y-44934190D01*
X52005905Y-44789048D01*
X52054286Y-44595524D01*
X52102667Y-44498762D01*
X52199429Y-44402000D01*
X52344571Y-44353619D01*
X52441333Y-44353619D01*
X52586476Y-44402000D01*
X52634857Y-44450381D01*
X53070286Y-45369619D02*
X53070286Y-44353619D01*
X53650857Y-45369619D01*
X53650857Y-44353619D01*
X53989524Y-44353619D02*
X54570095Y-44353619D01*
X54279810Y-45369619D02*
X54279810Y-44353619D01*
X55489333Y-45369619D02*
X55150667Y-44885810D01*
X54908762Y-45369619D02*
X54908762Y-44353619D01*
X55295809Y-44353619D01*
X55392571Y-44402000D01*
X55440952Y-44450381D01*
X55489333Y-44547143D01*
X55489333Y-44692286D01*
X55440952Y-44789048D01*
X55392571Y-44837429D01*
X55295809Y-44885810D01*
X54908762Y-44885810D01*
X58634095Y-34677429D02*
X58779238Y-34725810D01*
X58827619Y-34774190D01*
X58876000Y-34870952D01*
X58876000Y-35016095D01*
X58827619Y-35112857D01*
X58779238Y-35161238D01*
X58682476Y-35209619D01*
X58295429Y-35209619D01*
X58295429Y-34193619D01*
X58634095Y-34193619D01*
X58730857Y-34242000D01*
X58779238Y-34290381D01*
X58827619Y-34387143D01*
X58827619Y-34483905D01*
X58779238Y-34580667D01*
X58730857Y-34629048D01*
X58634095Y-34677429D01*
X58295429Y-34677429D01*
X59263048Y-34919333D02*
X59746857Y-34919333D01*
X59166286Y-35209619D02*
X59504953Y-34193619D01*
X59843619Y-35209619D01*
X60037143Y-34193619D02*
X60617714Y-34193619D01*
X60327429Y-35209619D02*
X60327429Y-34193619D01*
X61730476Y-34822571D02*
X62504571Y-34822571D01*
X62117523Y-35209619D02*
X62117523Y-34435524D01*
X44664095Y-34677429D02*
X44809238Y-34725810D01*
X44857619Y-34774190D01*
X44906000Y-34870952D01*
X44906000Y-35016095D01*
X44857619Y-35112857D01*
X44809238Y-35161238D01*
X44712476Y-35209619D01*
X44325429Y-35209619D01*
X44325429Y-34193619D01*
X44664095Y-34193619D01*
X44760857Y-34242000D01*
X44809238Y-34290381D01*
X44857619Y-34387143D01*
X44857619Y-34483905D01*
X44809238Y-34580667D01*
X44760857Y-34629048D01*
X44664095Y-34677429D01*
X44325429Y-34677429D01*
X45293048Y-34919333D02*
X45776857Y-34919333D01*
X45196286Y-35209619D02*
X45534953Y-34193619D01*
X45873619Y-35209619D01*
X46067143Y-34193619D02*
X46647714Y-34193619D01*
X46357429Y-35209619D02*
X46357429Y-34193619D01*
X47760476Y-34822571D02*
X48534571Y-34822571D01*
X57860001Y-45369619D02*
X57860001Y-44353619D01*
X58198667Y-45079333D01*
X58537334Y-44353619D01*
X58537334Y-45369619D01*
X58779239Y-45466381D02*
X59553334Y-45466381D01*
X59746858Y-45321238D02*
X59892001Y-45369619D01*
X60133905Y-45369619D01*
X60230667Y-45321238D01*
X60279048Y-45272857D01*
X60327429Y-45176095D01*
X60327429Y-45079333D01*
X60279048Y-44982571D01*
X60230667Y-44934190D01*
X60133905Y-44885810D01*
X59940382Y-44837429D01*
X59843620Y-44789048D01*
X59795239Y-44740667D01*
X59746858Y-44643905D01*
X59746858Y-44547143D01*
X59795239Y-44450381D01*
X59843620Y-44402000D01*
X59940382Y-44353619D01*
X60182286Y-44353619D01*
X60327429Y-44402000D01*
X60617715Y-44353619D02*
X61198286Y-44353619D01*
X60908001Y-45369619D02*
X60908001Y-44353619D01*
X61488572Y-45079333D02*
X61972381Y-45079333D01*
X61391810Y-45369619D02*
X61730477Y-44353619D01*
X62069143Y-45369619D01*
X62988381Y-45369619D02*
X62649715Y-44885810D01*
X62407810Y-45369619D02*
X62407810Y-44353619D01*
X62794857Y-44353619D01*
X62891619Y-44402000D01*
X62940000Y-44450381D01*
X62988381Y-44547143D01*
X62988381Y-44692286D01*
X62940000Y-44789048D01*
X62891619Y-44837429D01*
X62794857Y-44885810D01*
X62407810Y-44885810D01*
X42499048Y-45369619D02*
X42499048Y-44353619D01*
X42837714Y-45079333D01*
X43176381Y-44353619D01*
X43176381Y-45369619D01*
X43418286Y-45466381D02*
X44192381Y-45466381D01*
X44434286Y-45369619D02*
X44434286Y-44353619D01*
X44821333Y-44353619D01*
X44918095Y-44402000D01*
X44966476Y-44450381D01*
X45014857Y-44547143D01*
X45014857Y-44692286D01*
X44966476Y-44789048D01*
X44918095Y-44837429D01*
X44821333Y-44885810D01*
X44434286Y-44885810D01*
X45643810Y-44353619D02*
X45837333Y-44353619D01*
X45934095Y-44402000D01*
X46030857Y-44498762D01*
X46079238Y-44692286D01*
X46079238Y-45030952D01*
X46030857Y-45224476D01*
X45934095Y-45321238D01*
X45837333Y-45369619D01*
X45643810Y-45369619D01*
X45547048Y-45321238D01*
X45450286Y-45224476D01*
X45401905Y-45030952D01*
X45401905Y-44692286D01*
X45450286Y-44498762D01*
X45547048Y-44402000D01*
X45643810Y-44353619D01*
X47095238Y-45369619D02*
X46756572Y-44885810D01*
X46514667Y-45369619D02*
X46514667Y-44353619D01*
X46901714Y-44353619D01*
X46998476Y-44402000D01*
X47046857Y-44450381D01*
X47095238Y-44547143D01*
X47095238Y-44692286D01*
X47046857Y-44789048D01*
X46998476Y-44837429D01*
X46901714Y-44885810D01*
X46514667Y-44885810D01*
X47385524Y-44353619D02*
X47966095Y-44353619D01*
X47675810Y-45369619D02*
X47675810Y-44353619D01*
X114199619Y-104805619D02*
X113715810Y-105144285D01*
X114199619Y-105386190D02*
X113183619Y-105386190D01*
X113183619Y-104999143D01*
X113232000Y-104902381D01*
X113280381Y-104854000D01*
X113377143Y-104805619D01*
X113522286Y-104805619D01*
X113619048Y-104854000D01*
X113667429Y-104902381D01*
X113715810Y-104999143D01*
X113715810Y-105386190D01*
X113667429Y-104370190D02*
X113667429Y-104031524D01*
X114199619Y-103886381D02*
X114199619Y-104370190D01*
X113183619Y-104370190D01*
X113183619Y-103886381D01*
X114151238Y-103499333D02*
X114199619Y-103354190D01*
X114199619Y-103112286D01*
X114151238Y-103015524D01*
X114102857Y-102967143D01*
X114006095Y-102918762D01*
X113909333Y-102918762D01*
X113812571Y-102967143D01*
X113764190Y-103015524D01*
X113715810Y-103112286D01*
X113667429Y-103305809D01*
X113619048Y-103402571D01*
X113570667Y-103450952D01*
X113473905Y-103499333D01*
X113377143Y-103499333D01*
X113280381Y-103450952D01*
X113232000Y-103402571D01*
X113183619Y-103305809D01*
X113183619Y-103063905D01*
X113232000Y-102918762D01*
X113667429Y-102483333D02*
X113667429Y-102144667D01*
X114199619Y-101999524D02*
X114199619Y-102483333D01*
X113183619Y-102483333D01*
X113183619Y-101999524D01*
X113183619Y-101709238D02*
X113183619Y-101128667D01*
X114199619Y-101418952D02*
X113183619Y-101418952D01*
X114199619Y-98159285D02*
X113183619Y-98159285D01*
X113183619Y-97772238D01*
X113232000Y-97675476D01*
X113280381Y-97627095D01*
X113377143Y-97578714D01*
X113522286Y-97578714D01*
X113619048Y-97627095D01*
X113667429Y-97675476D01*
X113715810Y-97772238D01*
X113715810Y-98159285D01*
X114199619Y-96562714D02*
X113715810Y-96901380D01*
X114199619Y-97143285D02*
X113183619Y-97143285D01*
X113183619Y-96756238D01*
X113232000Y-96659476D01*
X113280381Y-96611095D01*
X113377143Y-96562714D01*
X113522286Y-96562714D01*
X113619048Y-96611095D01*
X113667429Y-96659476D01*
X113715810Y-96756238D01*
X113715810Y-97143285D01*
X113183619Y-95933761D02*
X113183619Y-95740238D01*
X113232000Y-95643476D01*
X113328762Y-95546714D01*
X113522286Y-95498333D01*
X113860952Y-95498333D01*
X114054476Y-95546714D01*
X114151238Y-95643476D01*
X114199619Y-95740238D01*
X114199619Y-95933761D01*
X114151238Y-96030523D01*
X114054476Y-96127285D01*
X113860952Y-96175666D01*
X113522286Y-96175666D01*
X113328762Y-96127285D01*
X113232000Y-96030523D01*
X113183619Y-95933761D01*
X113232000Y-94530714D02*
X113183619Y-94627476D01*
X113183619Y-94772619D01*
X113232000Y-94917761D01*
X113328762Y-95014523D01*
X113425524Y-95062904D01*
X113619048Y-95111285D01*
X113764190Y-95111285D01*
X113957714Y-95062904D01*
X114054476Y-95014523D01*
X114151238Y-94917761D01*
X114199619Y-94772619D01*
X114199619Y-94675857D01*
X114151238Y-94530714D01*
X114102857Y-94482333D01*
X113764190Y-94482333D01*
X113764190Y-94675857D01*
X86126572Y-126117429D02*
X86271715Y-126165810D01*
X86320096Y-126214190D01*
X86368477Y-126310952D01*
X86368477Y-126456095D01*
X86320096Y-126552857D01*
X86271715Y-126601238D01*
X86174953Y-126649619D01*
X85787906Y-126649619D01*
X85787906Y-125633619D01*
X86126572Y-125633619D01*
X86223334Y-125682000D01*
X86271715Y-125730381D01*
X86320096Y-125827143D01*
X86320096Y-125923905D01*
X86271715Y-126020667D01*
X86223334Y-126069048D01*
X86126572Y-126117429D01*
X85787906Y-126117429D01*
X87287715Y-126649619D02*
X86803906Y-126649619D01*
X86803906Y-125633619D01*
X87626382Y-126117429D02*
X87965048Y-126117429D01*
X88110191Y-126649619D02*
X87626382Y-126649619D01*
X87626382Y-125633619D01*
X88110191Y-125633619D01*
X88303715Y-126746381D02*
X89077810Y-126746381D01*
X89900286Y-126649619D02*
X89561620Y-126165810D01*
X89319715Y-126649619D02*
X89319715Y-125633619D01*
X89706762Y-125633619D01*
X89803524Y-125682000D01*
X89851905Y-125730381D01*
X89900286Y-125827143D01*
X89900286Y-125972286D01*
X89851905Y-126069048D01*
X89803524Y-126117429D01*
X89706762Y-126165810D01*
X89319715Y-126165810D01*
X90335715Y-126117429D02*
X90674381Y-126117429D01*
X90819524Y-126649619D02*
X90335715Y-126649619D01*
X90335715Y-125633619D01*
X90819524Y-125633619D01*
X91206572Y-126601238D02*
X91351715Y-126649619D01*
X91593619Y-126649619D01*
X91690381Y-126601238D01*
X91738762Y-126552857D01*
X91787143Y-126456095D01*
X91787143Y-126359333D01*
X91738762Y-126262571D01*
X91690381Y-126214190D01*
X91593619Y-126165810D01*
X91400096Y-126117429D01*
X91303334Y-126069048D01*
X91254953Y-126020667D01*
X91206572Y-125923905D01*
X91206572Y-125827143D01*
X91254953Y-125730381D01*
X91303334Y-125682000D01*
X91400096Y-125633619D01*
X91642000Y-125633619D01*
X91787143Y-125682000D01*
X92222572Y-126117429D02*
X92561238Y-126117429D01*
X92706381Y-126649619D02*
X92222572Y-126649619D01*
X92222572Y-125633619D01*
X92706381Y-125633619D01*
X92996667Y-125633619D02*
X93577238Y-125633619D01*
X93286953Y-126649619D02*
X93286953Y-125633619D01*
X103186905Y-45369619D02*
X103186905Y-44353619D01*
X103573952Y-44353619D01*
X103670714Y-44402000D01*
X103719095Y-44450381D01*
X103767476Y-44547143D01*
X103767476Y-44692286D01*
X103719095Y-44789048D01*
X103670714Y-44837429D01*
X103573952Y-44885810D01*
X103186905Y-44885810D01*
X104057762Y-44353619D02*
X104638333Y-44353619D01*
X104348048Y-45369619D02*
X104348048Y-44353619D01*
X104928619Y-44450381D02*
X104977000Y-44402000D01*
X105073762Y-44353619D01*
X105315666Y-44353619D01*
X105412428Y-44402000D01*
X105460809Y-44450381D01*
X105509190Y-44547143D01*
X105509190Y-44643905D01*
X105460809Y-44789048D01*
X104880238Y-45369619D01*
X105509190Y-45369619D01*
X96667571Y-35778095D02*
X96667571Y-35004000D01*
X97054619Y-35391048D02*
X96280524Y-35391048D01*
X96038619Y-34036381D02*
X96038619Y-34520190D01*
X96522429Y-34568571D01*
X96474048Y-34520190D01*
X96425667Y-34423428D01*
X96425667Y-34181524D01*
X96474048Y-34084762D01*
X96522429Y-34036381D01*
X96619190Y-33988000D01*
X96861095Y-33988000D01*
X96957857Y-34036381D01*
X97006238Y-34084762D01*
X97054619Y-34181524D01*
X97054619Y-34423428D01*
X97006238Y-34520190D01*
X96957857Y-34568571D01*
X96038619Y-33697714D02*
X97054619Y-33359047D01*
X96038619Y-33020381D01*
D13*
X49544524Y-95740238D02*
X48939762Y-96163571D01*
X49544524Y-96465952D02*
X48274524Y-96465952D01*
X48274524Y-95982143D01*
X48335000Y-95861190D01*
X48395476Y-95800714D01*
X48516429Y-95740238D01*
X48697857Y-95740238D01*
X48818810Y-95800714D01*
X48879286Y-95861190D01*
X48939762Y-95982143D01*
X48939762Y-96465952D01*
X49484048Y-94712143D02*
X49544524Y-94833095D01*
X49544524Y-95075000D01*
X49484048Y-95195952D01*
X49363095Y-95256428D01*
X48879286Y-95256428D01*
X48758333Y-95195952D01*
X48697857Y-95075000D01*
X48697857Y-94833095D01*
X48758333Y-94712143D01*
X48879286Y-94651666D01*
X49000238Y-94651666D01*
X49121190Y-95256428D01*
X48697857Y-94228333D02*
X49544524Y-93925952D01*
X48697857Y-93623572D01*
X48395476Y-92232619D02*
X48335000Y-92172143D01*
X48274524Y-92051191D01*
X48274524Y-91748810D01*
X48335000Y-91627857D01*
X48395476Y-91567381D01*
X48516429Y-91506905D01*
X48637381Y-91506905D01*
X48818810Y-91567381D01*
X49544524Y-92293095D01*
X49544524Y-91506905D01*
X49423571Y-90962619D02*
X49484048Y-90902143D01*
X49544524Y-90962619D01*
X49484048Y-91023095D01*
X49423571Y-90962619D01*
X49544524Y-90962619D01*
X48274524Y-90478809D02*
X48274524Y-89692619D01*
X48758333Y-90115952D01*
X48758333Y-89934524D01*
X48818810Y-89813571D01*
X48879286Y-89753095D01*
X49000238Y-89692619D01*
X49302619Y-89692619D01*
X49423571Y-89753095D01*
X49484048Y-89813571D01*
X49544524Y-89934524D01*
X49544524Y-90297381D01*
X49484048Y-90418333D01*
X49423571Y-90478809D01*
X49544524Y-89148333D02*
X48274524Y-89148333D01*
X48758333Y-89148333D02*
X48697857Y-89027381D01*
X48697857Y-88785476D01*
X48758333Y-88664524D01*
X48818810Y-88604047D01*
X48939762Y-88543571D01*
X49302619Y-88543571D01*
X49423571Y-88604047D01*
X49484048Y-88664524D01*
X49544524Y-88785476D01*
X49544524Y-89027381D01*
X49484048Y-89148333D01*
D14*
X45686143Y-96272429D02*
X45686143Y-95764429D01*
X46484429Y-95546715D02*
X46484429Y-96272429D01*
X44960429Y-96272429D01*
X44960429Y-95546715D01*
X44960429Y-94240429D02*
X44960429Y-94530715D01*
X45033000Y-94675858D01*
X45105571Y-94748429D01*
X45323286Y-94893572D01*
X45613571Y-94966143D01*
X46194143Y-94966143D01*
X46339286Y-94893572D01*
X46411857Y-94821000D01*
X46484429Y-94675858D01*
X46484429Y-94385572D01*
X46411857Y-94240429D01*
X46339286Y-94167858D01*
X46194143Y-94095286D01*
X45831286Y-94095286D01*
X45686143Y-94167858D01*
X45613571Y-94240429D01*
X45541000Y-94385572D01*
X45541000Y-94675858D01*
X45613571Y-94821000D01*
X45686143Y-94893572D01*
X45831286Y-94966143D01*
X46484429Y-92643857D02*
X46484429Y-93514714D01*
X46484429Y-93079286D02*
X44960429Y-93079286D01*
X45178143Y-93224429D01*
X45323286Y-93369571D01*
X45395857Y-93514714D01*
X46411857Y-90902142D02*
X46484429Y-90684428D01*
X46484429Y-90321571D01*
X46411857Y-90176428D01*
X46339286Y-90103857D01*
X46194143Y-90031285D01*
X46049000Y-90031285D01*
X45903857Y-90103857D01*
X45831286Y-90176428D01*
X45758714Y-90321571D01*
X45686143Y-90611857D01*
X45613571Y-90756999D01*
X45541000Y-90829571D01*
X45395857Y-90902142D01*
X45250714Y-90902142D01*
X45105571Y-90829571D01*
X45033000Y-90756999D01*
X44960429Y-90611857D01*
X44960429Y-90248999D01*
X45033000Y-90031285D01*
X45468429Y-88724999D02*
X46484429Y-88724999D01*
X45468429Y-89378142D02*
X46266714Y-89378142D01*
X46411857Y-89305570D01*
X46484429Y-89160428D01*
X46484429Y-88942713D01*
X46411857Y-88797570D01*
X46339286Y-88724999D01*
X46484429Y-87999285D02*
X45468429Y-87999285D01*
X45758714Y-87999285D02*
X45613571Y-87926713D01*
X45541000Y-87854142D01*
X45468429Y-87708999D01*
X45468429Y-87563856D01*
X45468429Y-87273570D02*
X45468429Y-86692999D01*
X46484429Y-87055856D02*
X45178143Y-87055856D01*
X45033000Y-86983284D01*
X44960429Y-86838142D01*
X44960429Y-86692999D01*
X46339286Y-85314142D02*
X46411857Y-85386713D01*
X46484429Y-85604427D01*
X46484429Y-85749570D01*
X46411857Y-85967285D01*
X46266714Y-86112427D01*
X46121571Y-86184999D01*
X45831286Y-86257570D01*
X45613571Y-86257570D01*
X45323286Y-86184999D01*
X45178143Y-86112427D01*
X45033000Y-85967285D01*
X44960429Y-85749570D01*
X44960429Y-85604427D01*
X45033000Y-85386713D01*
X45105571Y-85314142D01*
X46484429Y-84443285D02*
X46411857Y-84588427D01*
X46339286Y-84660999D01*
X46194143Y-84733570D01*
X45758714Y-84733570D01*
X45613571Y-84660999D01*
X45541000Y-84588427D01*
X45468429Y-84443285D01*
X45468429Y-84225570D01*
X45541000Y-84080427D01*
X45613571Y-84007856D01*
X45758714Y-83935285D01*
X46194143Y-83935285D01*
X46339286Y-84007856D01*
X46411857Y-84080427D01*
X46484429Y-84225570D01*
X46484429Y-84443285D01*
X45468429Y-83282142D02*
X46484429Y-83282142D01*
X45613571Y-83282142D02*
X45541000Y-83209570D01*
X45468429Y-83064428D01*
X45468429Y-82846713D01*
X45541000Y-82701570D01*
X45686143Y-82628999D01*
X46484429Y-82628999D01*
X45468429Y-82120999D02*
X45468429Y-81540428D01*
X44960429Y-81903285D02*
X46266714Y-81903285D01*
X46411857Y-81830713D01*
X46484429Y-81685571D01*
X46484429Y-81540428D01*
X46484429Y-81032428D02*
X45468429Y-81032428D01*
X45758714Y-81032428D02*
X45613571Y-80959856D01*
X45541000Y-80887285D01*
X45468429Y-80742142D01*
X45468429Y-80596999D01*
X46484429Y-79871285D02*
X46411857Y-80016427D01*
X46339286Y-80088999D01*
X46194143Y-80161570D01*
X45758714Y-80161570D01*
X45613571Y-80088999D01*
X45541000Y-80016427D01*
X45468429Y-79871285D01*
X45468429Y-79653570D01*
X45541000Y-79508427D01*
X45613571Y-79435856D01*
X45758714Y-79363285D01*
X46194143Y-79363285D01*
X46339286Y-79435856D01*
X46411857Y-79508427D01*
X46484429Y-79653570D01*
X46484429Y-79871285D01*
X46484429Y-78492428D02*
X46411857Y-78637570D01*
X46266714Y-78710142D01*
X44960429Y-78710142D01*
D12*
X99897000Y-35245905D02*
X99848619Y-35342667D01*
X99848619Y-35487810D01*
X99897000Y-35632952D01*
X99993762Y-35729714D01*
X100090524Y-35778095D01*
X100284048Y-35826476D01*
X100429190Y-35826476D01*
X100622714Y-35778095D01*
X100719476Y-35729714D01*
X100816238Y-35632952D01*
X100864619Y-35487810D01*
X100864619Y-35391048D01*
X100816238Y-35245905D01*
X100767857Y-35197524D01*
X100429190Y-35197524D01*
X100429190Y-35391048D01*
X100864619Y-34762095D02*
X99848619Y-34762095D01*
X100864619Y-34181524D01*
X99848619Y-34181524D01*
X100864619Y-33697714D02*
X99848619Y-33697714D01*
X99848619Y-33455809D01*
X99897000Y-33310667D01*
X99993762Y-33213905D01*
X100090524Y-33165524D01*
X100284048Y-33117143D01*
X100429190Y-33117143D01*
X100622714Y-33165524D01*
X100719476Y-33213905D01*
X100816238Y-33310667D01*
X100864619Y-33455809D01*
X100864619Y-33697714D01*
X106361905Y-45369619D02*
X106361905Y-44353619D01*
X106748952Y-44353619D01*
X106845714Y-44402000D01*
X106894095Y-44450381D01*
X106942476Y-44547143D01*
X106942476Y-44692286D01*
X106894095Y-44789048D01*
X106845714Y-44837429D01*
X106748952Y-44885810D01*
X106361905Y-44885810D01*
X107232762Y-44353619D02*
X107813333Y-44353619D01*
X107523048Y-45369619D02*
X107523048Y-44353619D01*
X108684190Y-45369619D02*
X108103619Y-45369619D01*
X108393905Y-45369619D02*
X108393905Y-44353619D01*
X108297143Y-44498762D01*
X108200381Y-44595524D01*
X108103619Y-44643905D01*
X104674619Y-35294286D02*
X104674619Y-35778095D01*
X103658619Y-35778095D01*
X104142429Y-34955619D02*
X104142429Y-34616953D01*
X104674619Y-34471810D02*
X104674619Y-34955619D01*
X103658619Y-34955619D01*
X103658619Y-34471810D01*
X104674619Y-34036381D02*
X103658619Y-34036381D01*
X103658619Y-33794476D01*
X103707000Y-33649334D01*
X103803762Y-33552572D01*
X103900524Y-33504191D01*
X104094048Y-33455810D01*
X104239190Y-33455810D01*
X104432714Y-33504191D01*
X104529476Y-33552572D01*
X104626238Y-33649334D01*
X104674619Y-33794476D01*
X104674619Y-34036381D01*
X103658619Y-33117143D02*
X103658619Y-32488191D01*
X104045667Y-32826857D01*
X104045667Y-32681715D01*
X104094048Y-32584953D01*
X104142429Y-32536572D01*
X104239190Y-32488191D01*
X104481095Y-32488191D01*
X104577857Y-32536572D01*
X104626238Y-32584953D01*
X104674619Y-32681715D01*
X104674619Y-32972000D01*
X104626238Y-33068762D01*
X104577857Y-33117143D01*
X107849619Y-35294286D02*
X107849619Y-35778095D01*
X106833619Y-35778095D01*
X107317429Y-34955619D02*
X107317429Y-34616953D01*
X107849619Y-34471810D02*
X107849619Y-34955619D01*
X106833619Y-34955619D01*
X106833619Y-34471810D01*
X107849619Y-34036381D02*
X106833619Y-34036381D01*
X106833619Y-33794476D01*
X106882000Y-33649334D01*
X106978762Y-33552572D01*
X107075524Y-33504191D01*
X107269048Y-33455810D01*
X107414190Y-33455810D01*
X107607714Y-33504191D01*
X107704476Y-33552572D01*
X107801238Y-33649334D01*
X107849619Y-33794476D01*
X107849619Y-34036381D01*
X106930381Y-33068762D02*
X106882000Y-33020381D01*
X106833619Y-32923619D01*
X106833619Y-32681715D01*
X106882000Y-32584953D01*
X106930381Y-32536572D01*
X107027143Y-32488191D01*
X107123905Y-32488191D01*
X107269048Y-32536572D01*
X107849619Y-33117143D01*
X107849619Y-32488191D01*
X111659619Y-35294286D02*
X111659619Y-35778095D01*
X110643619Y-35778095D01*
X111127429Y-34955619D02*
X111127429Y-34616953D01*
X111659619Y-34471810D02*
X111659619Y-34955619D01*
X110643619Y-34955619D01*
X110643619Y-34471810D01*
X111659619Y-34036381D02*
X110643619Y-34036381D01*
X110643619Y-33794476D01*
X110692000Y-33649334D01*
X110788762Y-33552572D01*
X110885524Y-33504191D01*
X111079048Y-33455810D01*
X111224190Y-33455810D01*
X111417714Y-33504191D01*
X111514476Y-33552572D01*
X111611238Y-33649334D01*
X111659619Y-33794476D01*
X111659619Y-34036381D01*
X111659619Y-32488191D02*
X111659619Y-33068762D01*
X111659619Y-32778476D02*
X110643619Y-32778476D01*
X110788762Y-32875238D01*
X110885524Y-32972000D01*
X110933905Y-33068762D01*
X92343524Y-45321238D02*
X92488667Y-45369619D01*
X92730571Y-45369619D01*
X92827333Y-45321238D01*
X92875714Y-45272857D01*
X92924095Y-45176095D01*
X92924095Y-45079333D01*
X92875714Y-44982571D01*
X92827333Y-44934190D01*
X92730571Y-44885810D01*
X92537048Y-44837429D01*
X92440286Y-44789048D01*
X92391905Y-44740667D01*
X92343524Y-44643905D01*
X92343524Y-44547143D01*
X92391905Y-44450381D01*
X92440286Y-44402000D01*
X92537048Y-44353619D01*
X92778952Y-44353619D01*
X92924095Y-44402000D01*
X93262762Y-44353619D02*
X93504667Y-45369619D01*
X93698190Y-44643905D01*
X93891714Y-45369619D01*
X94133619Y-44353619D01*
X94423905Y-44353619D02*
X95052857Y-44353619D01*
X94714191Y-44740667D01*
X94859333Y-44740667D01*
X94956095Y-44789048D01*
X95004476Y-44837429D01*
X95052857Y-44934190D01*
X95052857Y-45176095D01*
X95004476Y-45272857D01*
X94956095Y-45321238D01*
X94859333Y-45369619D01*
X94569048Y-45369619D01*
X94472286Y-45321238D01*
X94423905Y-45272857D01*
X96153524Y-45321238D02*
X96298667Y-45369619D01*
X96540571Y-45369619D01*
X96637333Y-45321238D01*
X96685714Y-45272857D01*
X96734095Y-45176095D01*
X96734095Y-45079333D01*
X96685714Y-44982571D01*
X96637333Y-44934190D01*
X96540571Y-44885810D01*
X96347048Y-44837429D01*
X96250286Y-44789048D01*
X96201905Y-44740667D01*
X96153524Y-44643905D01*
X96153524Y-44547143D01*
X96201905Y-44450381D01*
X96250286Y-44402000D01*
X96347048Y-44353619D01*
X96588952Y-44353619D01*
X96734095Y-44402000D01*
X97072762Y-44353619D02*
X97314667Y-45369619D01*
X97508190Y-44643905D01*
X97701714Y-45369619D01*
X97943619Y-44353619D01*
X98282286Y-44450381D02*
X98330667Y-44402000D01*
X98427429Y-44353619D01*
X98669333Y-44353619D01*
X98766095Y-44402000D01*
X98814476Y-44450381D01*
X98862857Y-44547143D01*
X98862857Y-44643905D01*
X98814476Y-44789048D01*
X98233905Y-45369619D01*
X98862857Y-45369619D01*
X99963524Y-45321238D02*
X100108667Y-45369619D01*
X100350571Y-45369619D01*
X100447333Y-45321238D01*
X100495714Y-45272857D01*
X100544095Y-45176095D01*
X100544095Y-45079333D01*
X100495714Y-44982571D01*
X100447333Y-44934190D01*
X100350571Y-44885810D01*
X100157048Y-44837429D01*
X100060286Y-44789048D01*
X100011905Y-44740667D01*
X99963524Y-44643905D01*
X99963524Y-44547143D01*
X100011905Y-44450381D01*
X100060286Y-44402000D01*
X100157048Y-44353619D01*
X100398952Y-44353619D01*
X100544095Y-44402000D01*
X100882762Y-44353619D02*
X101124667Y-45369619D01*
X101318190Y-44643905D01*
X101511714Y-45369619D01*
X101753619Y-44353619D01*
X102672857Y-45369619D02*
X102092286Y-45369619D01*
X102382572Y-45369619D02*
X102382572Y-44353619D01*
X102285810Y-44498762D01*
X102189048Y-44595524D01*
X102092286Y-44643905D01*
D10*
X69250000Y-121610000D02*
X69250000Y-120610000D01*
X70600000Y-120610000D02*
X70600000Y-121610000D01*
X89991000Y-75009000D02*
X89991000Y-77041000D01*
X89864000Y-77422000D02*
X89864000Y-74501000D01*
X89737000Y-74247000D02*
X89737000Y-77803000D01*
X89610000Y-78184000D02*
X89610000Y-73866000D01*
X89483000Y-73612000D02*
X89483000Y-78438000D01*
X89356000Y-78565000D02*
X89356000Y-73485000D01*
X90372000Y-81232000D02*
X90372000Y-70818000D01*
X90372000Y-70818000D02*
X80720000Y-70818000D01*
X80720000Y-70818000D02*
X79958000Y-71580000D01*
X79958000Y-71580000D02*
X79958000Y-80470000D01*
X79958000Y-80470000D02*
X80720000Y-81232000D01*
X80720000Y-81232000D02*
X90372000Y-81232000D01*
X80593000Y-76025000D02*
X81355000Y-76025000D01*
X80974000Y-76406000D02*
X80974000Y-75644000D01*
X90118000Y-76025000D02*
G75*
G03X90118000Y-76025000I-4953000J0D01*
G01*
X96310000Y-67735000D02*
X95610000Y-67735000D01*
X95610000Y-66535000D02*
X96310000Y-66535000D01*
X108437500Y-66912500D02*
X108437500Y-66237500D01*
X98087500Y-66912500D02*
X98087500Y-66237500D01*
X98087500Y-56562500D02*
X98087500Y-57237500D01*
X108437500Y-56562500D02*
X108437500Y-57237500D01*
X108437500Y-66912500D02*
X107762500Y-66912500D01*
X108437500Y-56562500D02*
X107762500Y-56562500D01*
X98087500Y-56562500D02*
X98762500Y-56562500D01*
X98087500Y-66912500D02*
X98762500Y-66912500D01*
X108437500Y-66237500D02*
X109712500Y-66237500D01*
X86562000Y-45291000D02*
X86562000Y-48466000D01*
X86562000Y-48466000D02*
X88340000Y-48466000D01*
X88340000Y-48466000D02*
X88340000Y-45291000D01*
X81990000Y-45291000D02*
X81990000Y-48466000D01*
X81990000Y-48466000D02*
X83768000Y-48466000D01*
X83768000Y-48466000D02*
X83768000Y-45291000D01*
X88594000Y-39195000D02*
X88594000Y-45291000D01*
X88594000Y-45291000D02*
X81736000Y-45291000D01*
X81736000Y-45291000D02*
X81736000Y-37417000D01*
X81736000Y-37290000D02*
X88594000Y-37290000D01*
X88594000Y-37417000D02*
X88594000Y-39195000D01*
X71322000Y-45291000D02*
X71322000Y-48466000D01*
X71322000Y-48466000D02*
X73100000Y-48466000D01*
X73100000Y-48466000D02*
X73100000Y-45291000D01*
X66750000Y-45291000D02*
X66750000Y-48466000D01*
X66750000Y-48466000D02*
X68528000Y-48466000D01*
X68528000Y-48466000D02*
X68528000Y-45291000D01*
X73354000Y-39195000D02*
X73354000Y-45291000D01*
X73354000Y-45291000D02*
X66496000Y-45291000D01*
X66496000Y-45291000D02*
X66496000Y-37417000D01*
X66496000Y-37290000D02*
X73354000Y-37290000D01*
X73354000Y-37417000D02*
X73354000Y-39195000D01*
X111485000Y-55740000D02*
X112185000Y-55740000D01*
X112185000Y-56940000D02*
X111485000Y-56940000D01*
X111800000Y-64880000D02*
X111800000Y-65580000D01*
X110600000Y-65580000D02*
X110600000Y-64880000D01*
X110215000Y-67805000D02*
X110915000Y-67805000D01*
X110915000Y-69005000D02*
X110215000Y-69005000D01*
X95042500Y-58277500D02*
X95042500Y-57577500D01*
X96242500Y-57577500D02*
X96242500Y-58277500D01*
X69005000Y-51225000D02*
X68305000Y-51225000D01*
X68305000Y-50025000D02*
X69005000Y-50025000D01*
X90626000Y-53419000D02*
X90626000Y-55451000D01*
X90499000Y-55832000D02*
X90499000Y-52911000D01*
X90372000Y-52657000D02*
X90372000Y-56213000D01*
X90245000Y-56594000D02*
X90245000Y-52276000D01*
X90118000Y-52022000D02*
X90118000Y-56848000D01*
X89991000Y-56975000D02*
X89991000Y-51895000D01*
X91007000Y-59642000D02*
X91007000Y-49228000D01*
X91007000Y-49228000D02*
X81355000Y-49228000D01*
X81355000Y-49228000D02*
X80593000Y-49990000D01*
X80593000Y-49990000D02*
X80593000Y-58880000D01*
X80593000Y-58880000D02*
X81355000Y-59642000D01*
X81355000Y-59642000D02*
X91007000Y-59642000D01*
X81228000Y-54435000D02*
X81990000Y-54435000D01*
X81609000Y-54816000D02*
X81609000Y-54054000D01*
X90753000Y-54435000D02*
G75*
G03X90753000Y-54435000I-4953000J0D01*
G01*
X113705000Y-47735000D02*
X113705000Y-48435000D01*
X112505000Y-48435000D02*
X112505000Y-47735000D01*
X113705000Y-51545000D02*
X113705000Y-52245000D01*
X112505000Y-52245000D02*
X112505000Y-51545000D01*
X111485000Y-61455000D02*
X112185000Y-61455000D01*
X112185000Y-62655000D02*
X111485000Y-62655000D01*
X57825000Y-122030000D02*
X57825000Y-122730000D01*
X56625000Y-122730000D02*
X56625000Y-122030000D01*
X110215000Y-69710000D02*
X110915000Y-69710000D01*
X110915000Y-70910000D02*
X110215000Y-70910000D01*
X96560000Y-75040000D02*
X96560000Y-75740000D01*
X95360000Y-75740000D02*
X95360000Y-75040000D01*
X95360000Y-78915000D02*
X95360000Y-78215000D01*
X96560000Y-78215000D02*
X96560000Y-78915000D01*
X81640000Y-83045000D02*
X82340000Y-83045000D01*
X82340000Y-84245000D02*
X81640000Y-84245000D01*
X65734000Y-107521000D02*
X65734000Y-105489000D01*
X65861000Y-105108000D02*
X65861000Y-108029000D01*
X65988000Y-108283000D02*
X65988000Y-104727000D01*
X66115000Y-104346000D02*
X66115000Y-108664000D01*
X66242000Y-108918000D02*
X66242000Y-104092000D01*
X66369000Y-103965000D02*
X66369000Y-109045000D01*
X65353000Y-101298000D02*
X65353000Y-111712000D01*
X65353000Y-111712000D02*
X75005000Y-111712000D01*
X75005000Y-111712000D02*
X75767000Y-110950000D01*
X75767000Y-110950000D02*
X75767000Y-102060000D01*
X75767000Y-102060000D02*
X75005000Y-101298000D01*
X75005000Y-101298000D02*
X65353000Y-101298000D01*
X75132000Y-106505000D02*
X74370000Y-106505000D01*
X74751000Y-106124000D02*
X74751000Y-106886000D01*
X75513000Y-106505000D02*
G75*
G03X75513000Y-106505000I-4953000J0D01*
G01*
X78780000Y-50275000D02*
X78780000Y-50975000D01*
X77580000Y-50975000D02*
X77580000Y-50275000D01*
X89010000Y-47800000D02*
X89010000Y-47100000D01*
X90210000Y-47100000D02*
X90210000Y-47800000D01*
X44240000Y-126790000D02*
X43540000Y-126790000D01*
X43540000Y-125590000D02*
X44240000Y-125590000D01*
X85765000Y-108060000D02*
X85765000Y-108760000D01*
X84565000Y-108760000D02*
X84565000Y-108060000D01*
X82975000Y-112185000D02*
X82275000Y-112185000D01*
X82275000Y-110985000D02*
X82975000Y-110985000D01*
X86150000Y-67735000D02*
X85450000Y-67735000D01*
X85450000Y-66535000D02*
X86150000Y-66535000D01*
X85515000Y-83610000D02*
X84815000Y-83610000D01*
X84815000Y-82410000D02*
X85515000Y-82410000D01*
X102974160Y-46799760D02*
X102925900Y-46799760D01*
X100175180Y-47500800D02*
X100175180Y-46799760D01*
X100175180Y-46799760D02*
X100424100Y-46799760D01*
X102974160Y-46799760D02*
X103174820Y-46799760D01*
X103174820Y-46799760D02*
X103174820Y-47500800D01*
X92769760Y-51230840D02*
X92769760Y-51279100D01*
X93470800Y-54029820D02*
X92769760Y-54029820D01*
X92769760Y-54029820D02*
X92769760Y-53780900D01*
X92769760Y-51230840D02*
X92769760Y-51030180D01*
X92769760Y-51030180D02*
X93470800Y-51030180D01*
X101024760Y-49960840D02*
X101024760Y-50009100D01*
X101725800Y-52759820D02*
X101024760Y-52759820D01*
X101024760Y-52759820D02*
X101024760Y-52510900D01*
X101024760Y-49960840D02*
X101024760Y-49760180D01*
X101024760Y-49760180D02*
X101725800Y-49760180D01*
X112300000Y-123100000D02*
X110400000Y-123100000D01*
X112300000Y-124200000D02*
X110400000Y-124200000D01*
X111400000Y-123650000D02*
X110950000Y-123650000D01*
X111450000Y-123900000D02*
X111450000Y-123400000D01*
X111450000Y-123650000D02*
X111200000Y-123900000D01*
X111200000Y-123900000D02*
X111200000Y-123400000D01*
X111200000Y-123400000D02*
X111450000Y-123650000D01*
D15*
X99643000Y-76660000D02*
X97357000Y-76660000D01*
X97357000Y-76660000D02*
X97357000Y-75390000D01*
X97357000Y-75390000D02*
X99643000Y-75390000D01*
X99643000Y-75390000D02*
X99643000Y-76660000D01*
X111200000Y-113617000D02*
X111200000Y-115903000D01*
X111200000Y-115903000D02*
X109930000Y-115903000D01*
X109930000Y-115903000D02*
X109930000Y-113617000D01*
X109930000Y-113617000D02*
X111200000Y-113617000D01*
X93420000Y-46307000D02*
X93420000Y-48593000D01*
X93420000Y-48593000D02*
X92150000Y-48593000D01*
X92150000Y-48593000D02*
X92150000Y-46307000D01*
X92150000Y-46307000D02*
X93420000Y-46307000D01*
X93420000Y-87963000D02*
X93420000Y-85677000D01*
X93420000Y-85677000D02*
X94690000Y-85677000D01*
X94690000Y-85677000D02*
X94690000Y-87963000D01*
X94690000Y-87963000D02*
X93420000Y-87963000D01*
D10*
X112335000Y-55110000D02*
X111335000Y-55110000D01*
X111335000Y-53760000D02*
X112335000Y-53760000D01*
X49010000Y-124420000D02*
X49010000Y-125420000D01*
X47660000Y-125420000D02*
X47660000Y-124420000D01*
X47740000Y-121880000D02*
X47740000Y-122880000D01*
X46390000Y-122880000D02*
X46390000Y-121880000D01*
X55360000Y-121880000D02*
X55360000Y-122880000D01*
X54010000Y-122880000D02*
X54010000Y-121880000D01*
X56630000Y-124420000D02*
X56630000Y-125420000D01*
X55280000Y-125420000D02*
X55280000Y-124420000D01*
X51550000Y-124420000D02*
X51550000Y-125420000D01*
X50200000Y-125420000D02*
X50200000Y-124420000D01*
X52740000Y-125420000D02*
X52740000Y-124420000D01*
X54090000Y-124420000D02*
X54090000Y-125420000D01*
X52820000Y-121880000D02*
X52820000Y-122880000D01*
X51470000Y-122880000D02*
X51470000Y-121880000D01*
X48930000Y-122880000D02*
X48930000Y-121880000D01*
X50280000Y-121880000D02*
X50280000Y-122880000D01*
X67345000Y-121610000D02*
X67345000Y-120610000D01*
X68695000Y-120610000D02*
X68695000Y-121610000D01*
X93920000Y-98290000D02*
X92920000Y-98290000D01*
X92920000Y-96940000D02*
X93920000Y-96940000D01*
X85300000Y-68365000D02*
X86300000Y-68365000D01*
X86300000Y-69715000D02*
X85300000Y-69715000D01*
X81490000Y-69000000D02*
X82490000Y-69000000D01*
X82490000Y-70350000D02*
X81490000Y-70350000D01*
X81490000Y-61380000D02*
X82490000Y-61380000D01*
X82490000Y-62730000D02*
X81490000Y-62730000D01*
X85300000Y-60110000D02*
X86300000Y-60110000D01*
X86300000Y-61460000D02*
X85300000Y-61460000D01*
X85300000Y-64555000D02*
X86300000Y-64555000D01*
X86300000Y-65905000D02*
X85300000Y-65905000D01*
X86300000Y-64000000D02*
X85300000Y-64000000D01*
X85300000Y-62650000D02*
X86300000Y-62650000D01*
X81490000Y-63920000D02*
X82490000Y-63920000D01*
X82490000Y-65270000D02*
X81490000Y-65270000D01*
X82490000Y-67810000D02*
X81490000Y-67810000D01*
X81490000Y-66460000D02*
X82490000Y-66460000D01*
X112335000Y-60825000D02*
X111335000Y-60825000D01*
X111335000Y-59475000D02*
X112335000Y-59475000D01*
X112335000Y-58920000D02*
X111335000Y-58920000D01*
X111335000Y-57570000D02*
X112335000Y-57570000D01*
X109795000Y-55745000D02*
X108795000Y-55745000D01*
X108795000Y-54395000D02*
X109795000Y-54395000D01*
X99175000Y-46950000D02*
X99175000Y-47950000D01*
X97825000Y-47950000D02*
X97825000Y-46950000D01*
X97270000Y-46950000D02*
X97270000Y-47950000D01*
X95920000Y-47950000D02*
X95920000Y-46950000D01*
X95365000Y-46950000D02*
X95365000Y-47950000D01*
X94015000Y-47950000D02*
X94015000Y-46950000D01*
X85300000Y-91860000D02*
X86300000Y-91860000D01*
X86300000Y-93210000D02*
X85300000Y-93210000D01*
X81490000Y-93130000D02*
X82490000Y-93130000D01*
X82490000Y-94480000D02*
X81490000Y-94480000D01*
X81490000Y-85510000D02*
X82490000Y-85510000D01*
X82490000Y-86860000D02*
X81490000Y-86860000D01*
X85300000Y-84240000D02*
X86300000Y-84240000D01*
X86300000Y-85590000D02*
X85300000Y-85590000D01*
X85300000Y-89320000D02*
X86300000Y-89320000D01*
X86300000Y-90670000D02*
X85300000Y-90670000D01*
X86300000Y-88130000D02*
X85300000Y-88130000D01*
X85300000Y-86780000D02*
X86300000Y-86780000D01*
X81490000Y-88050000D02*
X82490000Y-88050000D01*
X82490000Y-89400000D02*
X81490000Y-89400000D01*
X82490000Y-91940000D02*
X81490000Y-91940000D01*
X81490000Y-90590000D02*
X82490000Y-90590000D01*
X94555000Y-110355000D02*
X93555000Y-110355000D01*
X93555000Y-109005000D02*
X94555000Y-109005000D01*
X93555000Y-105195000D02*
X94555000Y-105195000D01*
X94555000Y-106545000D02*
X93555000Y-106545000D01*
X107985000Y-75255000D02*
X107985000Y-74255000D01*
X109335000Y-74255000D02*
X109335000Y-75255000D01*
X109890000Y-75255000D02*
X109890000Y-74255000D01*
X111240000Y-74255000D02*
X111240000Y-75255000D01*
X107430000Y-74255000D02*
X107430000Y-75255000D01*
X106080000Y-75255000D02*
X106080000Y-74255000D01*
X105025000Y-100330000D02*
X105025000Y-106330000D01*
X105025000Y-106330000D02*
X111025000Y-106330000D01*
X111025000Y-106330000D02*
X111025000Y-100330000D01*
X111025000Y-100330000D02*
X105025000Y-100330000D01*
X111025000Y-99345000D02*
X111025000Y-93345000D01*
X111025000Y-93345000D02*
X105025000Y-93345000D01*
X105025000Y-93345000D02*
X105025000Y-99345000D01*
X105025000Y-99345000D02*
X111025000Y-99345000D01*
X92610000Y-124110000D02*
X92610000Y-118110000D01*
X92610000Y-118110000D02*
X86610000Y-118110000D01*
X86610000Y-118110000D02*
X86610000Y-124110000D01*
X86610000Y-124110000D02*
X92610000Y-124110000D01*
X47145000Y-116315000D02*
G75*
G03X47145000Y-116315000I-1000000J0D01*
G01*
X60145000Y-102315000D02*
X44145000Y-102315000D01*
X44145000Y-102315000D02*
X44145000Y-118315000D01*
X44145000Y-118315000D02*
X60145000Y-118315000D01*
X60145000Y-118315000D02*
X60145000Y-102315000D01*
X76290000Y-70595000D02*
G75*
G03X76290000Y-70595000I-1000000J0D01*
G01*
X61290000Y-56595000D02*
X61290000Y-72595000D01*
X61290000Y-72595000D02*
X77290000Y-72595000D01*
X77290000Y-72595000D02*
X77290000Y-56595000D01*
X77290000Y-56595000D02*
X61290000Y-56595000D01*
X109608961Y-91265000D02*
G75*
G03X109608961Y-91265000I-567961J0D01*
G01*
X111965000Y-77665000D02*
X96965000Y-77665000D01*
X96965000Y-77665000D02*
X96965000Y-92165000D01*
X96965000Y-92165000D02*
X111965000Y-92165000D01*
X111965000Y-92165000D02*
X111965000Y-77665000D01*
X76290000Y-94725000D02*
G75*
G03X76290000Y-94725000I-1000000J0D01*
G01*
X61290000Y-80725000D02*
X61290000Y-96725000D01*
X61290000Y-96725000D02*
X77290000Y-96725000D01*
X77290000Y-96725000D02*
X77290000Y-80725000D01*
X77290000Y-80725000D02*
X61290000Y-80725000D01*
X107295000Y-52990000D02*
X111295000Y-52990000D01*
X111295000Y-52990000D02*
X111295000Y-46990000D01*
X111295000Y-46990000D02*
X107295000Y-46990000D01*
X107295000Y-46990000D02*
X107295000Y-52990000D01*
D16*
X43759190Y-121921530D02*
G75*
G03X43759190Y-121921530I-200660J0D01*
G01*
X44366250Y-124316750D02*
X43350250Y-124316750D01*
X44366250Y-121713250D02*
X43350250Y-121713250D01*
X43350250Y-124316750D02*
X43350250Y-121713250D01*
X44366250Y-121713250D02*
X44366250Y-124316750D01*
X92654190Y-78741530D02*
G75*
G03X92654190Y-78741530I-200660J0D01*
G01*
X93261250Y-81136750D02*
X92245250Y-81136750D01*
X93261250Y-78533250D02*
X92245250Y-78533250D01*
X92245250Y-81136750D02*
X92245250Y-78533250D01*
X93261250Y-78533250D02*
X93261250Y-81136750D01*
X92682130Y-84103470D02*
G75*
G03X92682130Y-84103470I-200660J0D01*
G01*
X91673750Y-81708250D02*
X92689750Y-81708250D01*
X91673750Y-84311750D02*
X92689750Y-84311750D01*
X92689750Y-81708250D02*
X92689750Y-84311750D01*
X91673750Y-84311750D02*
X91673750Y-81708250D01*
X81732190Y-108741470D02*
G75*
G03X81732190Y-108741470I-200660J0D01*
G01*
X83926750Y-107933750D02*
X83926750Y-108949750D01*
X81323250Y-107933750D02*
X81323250Y-108949750D01*
X83926750Y-108949750D02*
X81323250Y-108949750D01*
X81323250Y-107933750D02*
X83926750Y-107933750D01*
D10*
X111700000Y-126230000D02*
X110700000Y-126230000D01*
X110700000Y-124880000D02*
X111700000Y-124880000D01*
X94555000Y-108450000D02*
X93555000Y-108450000D01*
X93555000Y-107100000D02*
X94555000Y-107100000D01*
X100660000Y-113775000D02*
X97660000Y-113775000D01*
X100660000Y-110775000D02*
X100660000Y-113775000D01*
X97660000Y-110775000D02*
X100660000Y-110775000D01*
X97660000Y-113775000D02*
X97660000Y-110775000D01*
X106660000Y-120775000D02*
X103660000Y-120775000D01*
X106660000Y-117775000D02*
X106660000Y-120775000D01*
X103660000Y-117775000D02*
X106660000Y-117775000D01*
X103660000Y-120775000D02*
X103660000Y-117775000D01*
X102660000Y-118775000D02*
X102660000Y-121775000D01*
X99660000Y-118775000D02*
X102660000Y-118775000D01*
X99660000Y-121775000D02*
X99660000Y-118775000D01*
X102660000Y-121775000D02*
X99660000Y-121775000D01*
X100660000Y-121775000D02*
X96660000Y-121775000D01*
X100660000Y-125775000D02*
X100660000Y-121775000D01*
X108660000Y-125775000D02*
X96660000Y-125775000D01*
X96660000Y-107775000D02*
X96660000Y-108775000D01*
X98660000Y-107775000D02*
X96660000Y-107775000D01*
X96660000Y-126775000D02*
X96660000Y-120775000D01*
X108660000Y-129775000D02*
X96660000Y-129775000D01*
X108660000Y-122775000D02*
X108660000Y-126775000D01*
X108660000Y-107775000D02*
X106660000Y-107775000D01*
X108660000Y-108775000D02*
X108660000Y-107775000D01*
X110850000Y-117970000D02*
X111550000Y-117970000D01*
X111550000Y-119170000D02*
X110850000Y-119170000D01*
X110850000Y-119875000D02*
X111550000Y-119875000D01*
X111550000Y-121075000D02*
X110850000Y-121075000D01*
X74960000Y-41910000D02*
X73690000Y-40640000D01*
X76230000Y-41910000D02*
X73690000Y-39370000D01*
X80040000Y-30480000D02*
X81310000Y-31750000D01*
X81310000Y-33020000D02*
X78770000Y-30480000D01*
X77500000Y-30480000D02*
X81310000Y-34290000D01*
X81310000Y-35560000D02*
X76230000Y-30480000D01*
X74960000Y-30480000D02*
X81310000Y-36830000D01*
X81310000Y-38100000D02*
X73690000Y-30480000D01*
X73690000Y-31750000D02*
X81310000Y-39370000D01*
X81310000Y-40640000D02*
X73690000Y-33020000D01*
X73690000Y-34290000D02*
X80040000Y-40640000D01*
X80040000Y-40640000D02*
X81310000Y-41910000D01*
X73690000Y-36830000D02*
X78770000Y-41910000D01*
X78770000Y-41910000D02*
X80040000Y-41910000D01*
X80040000Y-41910000D02*
X73690000Y-35560000D01*
X77500000Y-41910000D02*
X73690000Y-38100000D01*
X90200000Y-45720000D02*
X114330000Y-45720000D01*
X74960000Y-41910000D02*
X80040000Y-41910000D01*
X40670000Y-45720000D02*
X64800000Y-45720000D01*
X80903600Y-30480000D02*
X80903600Y-42164000D01*
X74096400Y-30480000D02*
X74096400Y-42164000D01*
X65435000Y-30480000D02*
X65435000Y-45720000D01*
X89565000Y-30480000D02*
X89565000Y-45720000D01*
X114711000Y-30480000D02*
X114711000Y-45720000D01*
X40289000Y-30480000D02*
X40289000Y-45720000D01*
X39400000Y-30022800D02*
X115600000Y-30022800D01*
X89991000Y-99139000D02*
X89991000Y-101171000D01*
X89864000Y-101552000D02*
X89864000Y-98631000D01*
X89737000Y-98377000D02*
X89737000Y-101933000D01*
X89610000Y-102314000D02*
X89610000Y-97996000D01*
X89483000Y-97742000D02*
X89483000Y-102568000D01*
X89356000Y-102695000D02*
X89356000Y-97615000D01*
X90372000Y-105362000D02*
X90372000Y-94948000D01*
X90372000Y-94948000D02*
X80720000Y-94948000D01*
X80720000Y-94948000D02*
X79958000Y-95710000D01*
X79958000Y-95710000D02*
X79958000Y-104600000D01*
X79958000Y-104600000D02*
X80720000Y-105362000D01*
X80720000Y-105362000D02*
X90372000Y-105362000D01*
X80593000Y-100155000D02*
X81355000Y-100155000D01*
X80974000Y-100536000D02*
X80974000Y-99774000D01*
X90118000Y-100155000D02*
G75*
G03X90118000Y-100155000I-4953000J0D01*
G01*
X64050100Y-130261460D02*
X72750100Y-130261460D01*
X64050100Y-123856460D02*
X72750100Y-123856460D01*
X72750100Y-123856460D02*
X72750100Y-130261460D01*
X72750100Y-129291000D02*
X64050100Y-129291000D01*
X64050100Y-130261460D02*
X64050100Y-123856460D01*
X70377381Y-118577857D02*
X69901190Y-118911191D01*
X70377381Y-119149286D02*
X69377381Y-119149286D01*
X69377381Y-118768333D01*
X69425000Y-118673095D01*
X69472619Y-118625476D01*
X69567857Y-118577857D01*
X69710714Y-118577857D01*
X69805952Y-118625476D01*
X69853571Y-118673095D01*
X69901190Y-118768333D01*
X69901190Y-119149286D01*
X70377381Y-117625476D02*
X70377381Y-118196905D01*
X70377381Y-117911191D02*
X69377381Y-117911191D01*
X69520238Y-118006429D01*
X69615476Y-118101667D01*
X69663095Y-118196905D01*
X69377381Y-117006429D02*
X69377381Y-116911190D01*
X69425000Y-116815952D01*
X69472619Y-116768333D01*
X69567857Y-116720714D01*
X69758333Y-116673095D01*
X69996429Y-116673095D01*
X70186905Y-116720714D01*
X70282143Y-116768333D01*
X70329762Y-116815952D01*
X70377381Y-116911190D01*
X70377381Y-117006429D01*
X70329762Y-117101667D01*
X70282143Y-117149286D01*
X70186905Y-117196905D01*
X69996429Y-117244524D01*
X69758333Y-117244524D01*
X69567857Y-117196905D01*
X69472619Y-117149286D01*
X69425000Y-117101667D01*
X69377381Y-117006429D01*
X93142143Y-76667857D02*
X93189762Y-76715476D01*
X93237381Y-76858333D01*
X93237381Y-76953571D01*
X93189762Y-77096429D01*
X93094524Y-77191667D01*
X92999286Y-77239286D01*
X92808810Y-77286905D01*
X92665952Y-77286905D01*
X92475476Y-77239286D01*
X92380238Y-77191667D01*
X92285000Y-77096429D01*
X92237381Y-76953571D01*
X92237381Y-76858333D01*
X92285000Y-76715476D01*
X92332619Y-76667857D01*
X93237381Y-75715476D02*
X93237381Y-76286905D01*
X93237381Y-76001191D02*
X92237381Y-76001191D01*
X92380238Y-76096429D01*
X92475476Y-76191667D01*
X92523095Y-76286905D01*
X92332619Y-75334524D02*
X92285000Y-75286905D01*
X92237381Y-75191667D01*
X92237381Y-74953571D01*
X92285000Y-74858333D01*
X92332619Y-74810714D01*
X92427857Y-74763095D01*
X92523095Y-74763095D01*
X92665952Y-74810714D01*
X93237381Y-75382143D01*
X93237381Y-74763095D01*
X93253334Y-67492143D02*
X93205715Y-67539762D01*
X93062858Y-67587381D01*
X92967620Y-67587381D01*
X92824762Y-67539762D01*
X92729524Y-67444524D01*
X92681905Y-67349286D01*
X92634286Y-67158810D01*
X92634286Y-67015952D01*
X92681905Y-66825476D01*
X92729524Y-66730238D01*
X92824762Y-66635000D01*
X92967620Y-66587381D01*
X93062858Y-66587381D01*
X93205715Y-66635000D01*
X93253334Y-66682619D01*
X94110477Y-66920714D02*
X94110477Y-67587381D01*
X93872381Y-66539762D02*
X93634286Y-67254048D01*
X94253334Y-67254048D01*
X102500595Y-68639881D02*
X102500595Y-69449405D01*
X102548214Y-69544643D01*
X102595833Y-69592262D01*
X102691071Y-69639881D01*
X102881548Y-69639881D01*
X102976786Y-69592262D01*
X103024405Y-69544643D01*
X103072024Y-69449405D01*
X103072024Y-68639881D01*
X103500595Y-68735119D02*
X103548214Y-68687500D01*
X103643452Y-68639881D01*
X103881548Y-68639881D01*
X103976786Y-68687500D01*
X104024405Y-68735119D01*
X104072024Y-68830357D01*
X104072024Y-68925595D01*
X104024405Y-69068452D01*
X103452976Y-69639881D01*
X104072024Y-69639881D01*
X98508095Y-98972381D02*
X99079524Y-98972381D01*
X98793809Y-99972381D02*
X98793809Y-98972381D01*
X99412857Y-99972381D02*
X99412857Y-98972381D01*
X99793810Y-98972381D01*
X99889048Y-99020000D01*
X99936667Y-99067619D01*
X99984286Y-99162857D01*
X99984286Y-99305714D01*
X99936667Y-99400952D01*
X99889048Y-99448571D01*
X99793810Y-99496190D01*
X99412857Y-99496190D01*
X100365238Y-99067619D02*
X100412857Y-99020000D01*
X100508095Y-98972381D01*
X100746191Y-98972381D01*
X100841429Y-99020000D01*
X100889048Y-99067619D01*
X100936667Y-99162857D01*
X100936667Y-99258095D01*
X100889048Y-99400952D01*
X100317619Y-99972381D01*
X100936667Y-99972381D01*
X98508095Y-101512381D02*
X99079524Y-101512381D01*
X98793809Y-102512381D02*
X98793809Y-101512381D01*
X99412857Y-102512381D02*
X99412857Y-101512381D01*
X99793810Y-101512381D01*
X99889048Y-101560000D01*
X99936667Y-101607619D01*
X99984286Y-101702857D01*
X99984286Y-101845714D01*
X99936667Y-101940952D01*
X99889048Y-101988571D01*
X99793810Y-102036190D01*
X99412857Y-102036190D01*
X100936667Y-102512381D02*
X100365238Y-102512381D01*
X100650952Y-102512381D02*
X100650952Y-101512381D01*
X100555714Y-101655238D01*
X100460476Y-101750476D01*
X100365238Y-101798095D01*
D17*
X103253429Y-73067714D02*
X103688858Y-73067714D01*
X103471144Y-73829714D02*
X103471144Y-73067714D01*
X103942858Y-73829714D02*
X103942858Y-73067714D01*
X104233143Y-73067714D01*
X104305715Y-73104000D01*
X104342000Y-73140286D01*
X104378286Y-73212857D01*
X104378286Y-73321714D01*
X104342000Y-73394286D01*
X104305715Y-73430571D01*
X104233143Y-73466857D01*
X103942858Y-73466857D01*
X105031429Y-73321714D02*
X105031429Y-73829714D01*
X104850000Y-73031429D02*
X104668572Y-73575714D01*
X105140286Y-73575714D01*
X100713429Y-73067714D02*
X101148858Y-73067714D01*
X100931144Y-73829714D02*
X100931144Y-73067714D01*
X101402858Y-73829714D02*
X101402858Y-73067714D01*
X101693143Y-73067714D01*
X101765715Y-73104000D01*
X101802000Y-73140286D01*
X101838286Y-73212857D01*
X101838286Y-73321714D01*
X101802000Y-73394286D01*
X101765715Y-73430571D01*
X101693143Y-73466857D01*
X101402858Y-73466857D01*
X102092286Y-73067714D02*
X102564000Y-73067714D01*
X102310000Y-73358000D01*
X102418858Y-73358000D01*
X102491429Y-73394286D01*
X102527715Y-73430571D01*
X102564000Y-73503143D01*
X102564000Y-73684571D01*
X102527715Y-73757143D01*
X102491429Y-73793429D01*
X102418858Y-73829714D01*
X102201143Y-73829714D01*
X102128572Y-73793429D01*
X102092286Y-73757143D01*
D10*
X83855476Y-35853381D02*
X84188809Y-36853381D01*
X84522143Y-35853381D01*
X85426905Y-36853381D02*
X85093571Y-36377190D01*
X84855476Y-36853381D02*
X84855476Y-35853381D01*
X85236429Y-35853381D01*
X85331667Y-35901000D01*
X85379286Y-35948619D01*
X85426905Y-36043857D01*
X85426905Y-36186714D01*
X85379286Y-36281952D01*
X85331667Y-36329571D01*
X85236429Y-36377190D01*
X84855476Y-36377190D01*
X85807857Y-35948619D02*
X85855476Y-35901000D01*
X85950714Y-35853381D01*
X86188810Y-35853381D01*
X86284048Y-35901000D01*
X86331667Y-35948619D01*
X86379286Y-36043857D01*
X86379286Y-36139095D01*
X86331667Y-36281952D01*
X85760238Y-36853381D01*
X86379286Y-36853381D01*
X69829762Y-36948619D02*
X69734524Y-36901000D01*
X69639286Y-36805762D01*
X69496429Y-36662905D01*
X69401190Y-36615286D01*
X69305952Y-36615286D01*
X69353571Y-36853381D02*
X69258333Y-36805762D01*
X69163095Y-36710524D01*
X69115476Y-36520048D01*
X69115476Y-36186714D01*
X69163095Y-35996238D01*
X69258333Y-35901000D01*
X69353571Y-35853381D01*
X69544048Y-35853381D01*
X69639286Y-35901000D01*
X69734524Y-35996238D01*
X69782143Y-36186714D01*
X69782143Y-36520048D01*
X69734524Y-36710524D01*
X69639286Y-36805762D01*
X69544048Y-36853381D01*
X69353571Y-36853381D01*
X70734524Y-36853381D02*
X70163095Y-36853381D01*
X70448809Y-36853381D02*
X70448809Y-35853381D01*
X70353571Y-35996238D01*
X70258333Y-36091476D01*
X70163095Y-36139095D01*
X114208334Y-56697143D02*
X114160715Y-56744762D01*
X114017858Y-56792381D01*
X113922620Y-56792381D01*
X113779762Y-56744762D01*
X113684524Y-56649524D01*
X113636905Y-56554286D01*
X113589286Y-56363810D01*
X113589286Y-56220952D01*
X113636905Y-56030476D01*
X113684524Y-55935238D01*
X113779762Y-55840000D01*
X113922620Y-55792381D01*
X114017858Y-55792381D01*
X114160715Y-55840000D01*
X114208334Y-55887619D01*
X115160715Y-56792381D02*
X114589286Y-56792381D01*
X114875000Y-56792381D02*
X114875000Y-55792381D01*
X114779762Y-55935238D01*
X114684524Y-56030476D01*
X114589286Y-56078095D01*
X112938334Y-65587143D02*
X112890715Y-65634762D01*
X112747858Y-65682381D01*
X112652620Y-65682381D01*
X112509762Y-65634762D01*
X112414524Y-65539524D01*
X112366905Y-65444286D01*
X112319286Y-65253810D01*
X112319286Y-65110952D01*
X112366905Y-64920476D01*
X112414524Y-64825238D01*
X112509762Y-64730000D01*
X112652620Y-64682381D01*
X112747858Y-64682381D01*
X112890715Y-64730000D01*
X112938334Y-64777619D01*
X113319286Y-64777619D02*
X113366905Y-64730000D01*
X113462143Y-64682381D01*
X113700239Y-64682381D01*
X113795477Y-64730000D01*
X113843096Y-64777619D01*
X113890715Y-64872857D01*
X113890715Y-64968095D01*
X113843096Y-65110952D01*
X113271667Y-65682381D01*
X113890715Y-65682381D01*
X112938334Y-68762143D02*
X112890715Y-68809762D01*
X112747858Y-68857381D01*
X112652620Y-68857381D01*
X112509762Y-68809762D01*
X112414524Y-68714524D01*
X112366905Y-68619286D01*
X112319286Y-68428810D01*
X112319286Y-68285952D01*
X112366905Y-68095476D01*
X112414524Y-68000238D01*
X112509762Y-67905000D01*
X112652620Y-67857381D01*
X112747858Y-67857381D01*
X112890715Y-67905000D01*
X112938334Y-67952619D01*
X113271667Y-67857381D02*
X113890715Y-67857381D01*
X113557381Y-68238333D01*
X113700239Y-68238333D01*
X113795477Y-68285952D01*
X113843096Y-68333571D01*
X113890715Y-68428810D01*
X113890715Y-68666905D01*
X113843096Y-68762143D01*
X113795477Y-68809762D01*
X113700239Y-68857381D01*
X113414524Y-68857381D01*
X113319286Y-68809762D01*
X113271667Y-68762143D01*
X94099643Y-58094166D02*
X94147262Y-58141785D01*
X94194881Y-58284642D01*
X94194881Y-58379880D01*
X94147262Y-58522738D01*
X94052024Y-58617976D01*
X93956786Y-58665595D01*
X93766310Y-58713214D01*
X93623452Y-58713214D01*
X93432976Y-58665595D01*
X93337738Y-58617976D01*
X93242500Y-58522738D01*
X93194881Y-58379880D01*
X93194881Y-58284642D01*
X93242500Y-58141785D01*
X93290119Y-58094166D01*
X93194881Y-57189404D02*
X93194881Y-57665595D01*
X93671071Y-57713214D01*
X93623452Y-57665595D01*
X93575833Y-57570357D01*
X93575833Y-57332261D01*
X93623452Y-57237023D01*
X93671071Y-57189404D01*
X93766310Y-57141785D01*
X94004405Y-57141785D01*
X94099643Y-57189404D01*
X94147262Y-57237023D01*
X94194881Y-57332261D01*
X94194881Y-57570357D01*
X94147262Y-57665595D01*
X94099643Y-57713214D01*
X68488334Y-52882143D02*
X68440715Y-52929762D01*
X68297858Y-52977381D01*
X68202620Y-52977381D01*
X68059762Y-52929762D01*
X67964524Y-52834524D01*
X67916905Y-52739286D01*
X67869286Y-52548810D01*
X67869286Y-52405952D01*
X67916905Y-52215476D01*
X67964524Y-52120238D01*
X68059762Y-52025000D01*
X68202620Y-51977381D01*
X68297858Y-51977381D01*
X68440715Y-52025000D01*
X68488334Y-52072619D01*
X69345477Y-51977381D02*
X69155000Y-51977381D01*
X69059762Y-52025000D01*
X69012143Y-52072619D01*
X68916905Y-52215476D01*
X68869286Y-52405952D01*
X68869286Y-52786905D01*
X68916905Y-52882143D01*
X68964524Y-52929762D01*
X69059762Y-52977381D01*
X69250239Y-52977381D01*
X69345477Y-52929762D01*
X69393096Y-52882143D01*
X69440715Y-52786905D01*
X69440715Y-52548810D01*
X69393096Y-52453571D01*
X69345477Y-52405952D01*
X69250239Y-52358333D01*
X69059762Y-52358333D01*
X68964524Y-52405952D01*
X68916905Y-52453571D01*
X68869286Y-52548810D01*
X92507143Y-60316666D02*
X92554762Y-60364285D01*
X92602381Y-60507142D01*
X92602381Y-60602380D01*
X92554762Y-60745238D01*
X92459524Y-60840476D01*
X92364286Y-60888095D01*
X92173810Y-60935714D01*
X92030952Y-60935714D01*
X91840476Y-60888095D01*
X91745238Y-60840476D01*
X91650000Y-60745238D01*
X91602381Y-60602380D01*
X91602381Y-60507142D01*
X91650000Y-60364285D01*
X91697619Y-60316666D01*
X91602381Y-59983333D02*
X91602381Y-59316666D01*
X92602381Y-59745238D01*
X114732143Y-48251666D02*
X114779762Y-48299285D01*
X114827381Y-48442142D01*
X114827381Y-48537380D01*
X114779762Y-48680238D01*
X114684524Y-48775476D01*
X114589286Y-48823095D01*
X114398810Y-48870714D01*
X114255952Y-48870714D01*
X114065476Y-48823095D01*
X113970238Y-48775476D01*
X113875000Y-48680238D01*
X113827381Y-48537380D01*
X113827381Y-48442142D01*
X113875000Y-48299285D01*
X113922619Y-48251666D01*
X114255952Y-47680238D02*
X114208333Y-47775476D01*
X114160714Y-47823095D01*
X114065476Y-47870714D01*
X114017857Y-47870714D01*
X113922619Y-47823095D01*
X113875000Y-47775476D01*
X113827381Y-47680238D01*
X113827381Y-47489761D01*
X113875000Y-47394523D01*
X113922619Y-47346904D01*
X114017857Y-47299285D01*
X114065476Y-47299285D01*
X114160714Y-47346904D01*
X114208333Y-47394523D01*
X114255952Y-47489761D01*
X114255952Y-47680238D01*
X114303571Y-47775476D01*
X114351190Y-47823095D01*
X114446429Y-47870714D01*
X114636905Y-47870714D01*
X114732143Y-47823095D01*
X114779762Y-47775476D01*
X114827381Y-47680238D01*
X114827381Y-47489761D01*
X114779762Y-47394523D01*
X114732143Y-47346904D01*
X114636905Y-47299285D01*
X114446429Y-47299285D01*
X114351190Y-47346904D01*
X114303571Y-47394523D01*
X114255952Y-47489761D01*
X114732143Y-52061666D02*
X114779762Y-52109285D01*
X114827381Y-52252142D01*
X114827381Y-52347380D01*
X114779762Y-52490238D01*
X114684524Y-52585476D01*
X114589286Y-52633095D01*
X114398810Y-52680714D01*
X114255952Y-52680714D01*
X114065476Y-52633095D01*
X113970238Y-52585476D01*
X113875000Y-52490238D01*
X113827381Y-52347380D01*
X113827381Y-52252142D01*
X113875000Y-52109285D01*
X113922619Y-52061666D01*
X114827381Y-51585476D02*
X114827381Y-51395000D01*
X114779762Y-51299761D01*
X114732143Y-51252142D01*
X114589286Y-51156904D01*
X114398810Y-51109285D01*
X114017857Y-51109285D01*
X113922619Y-51156904D01*
X113875000Y-51204523D01*
X113827381Y-51299761D01*
X113827381Y-51490238D01*
X113875000Y-51585476D01*
X113922619Y-51633095D01*
X114017857Y-51680714D01*
X114255952Y-51680714D01*
X114351190Y-51633095D01*
X114398810Y-51585476D01*
X114446429Y-51490238D01*
X114446429Y-51299761D01*
X114398810Y-51204523D01*
X114351190Y-51156904D01*
X114255952Y-51109285D01*
X114367143Y-62412143D02*
X114319524Y-62459762D01*
X114176667Y-62507381D01*
X114081429Y-62507381D01*
X113938571Y-62459762D01*
X113843333Y-62364524D01*
X113795714Y-62269286D01*
X113748095Y-62078810D01*
X113748095Y-61935952D01*
X113795714Y-61745476D01*
X113843333Y-61650238D01*
X113938571Y-61555000D01*
X114081429Y-61507381D01*
X114176667Y-61507381D01*
X114319524Y-61555000D01*
X114367143Y-61602619D01*
X115319524Y-62507381D02*
X114748095Y-62507381D01*
X115033809Y-62507381D02*
X115033809Y-61507381D01*
X114938571Y-61650238D01*
X114843333Y-61745476D01*
X114748095Y-61793095D01*
X115938571Y-61507381D02*
X116033810Y-61507381D01*
X116129048Y-61555000D01*
X116176667Y-61602619D01*
X116224286Y-61697857D01*
X116271905Y-61888333D01*
X116271905Y-62126429D01*
X116224286Y-62316905D01*
X116176667Y-62412143D01*
X116129048Y-62459762D01*
X116033810Y-62507381D01*
X115938571Y-62507381D01*
X115843333Y-62459762D01*
X115795714Y-62412143D01*
X115748095Y-62316905D01*
X115700476Y-62126429D01*
X115700476Y-61888333D01*
X115748095Y-61697857D01*
X115795714Y-61602619D01*
X115843333Y-61555000D01*
X115938571Y-61507381D01*
X57582143Y-127467857D02*
X57629762Y-127515476D01*
X57677381Y-127658333D01*
X57677381Y-127753571D01*
X57629762Y-127896429D01*
X57534524Y-127991667D01*
X57439286Y-128039286D01*
X57248810Y-128086905D01*
X57105952Y-128086905D01*
X56915476Y-128039286D01*
X56820238Y-127991667D01*
X56725000Y-127896429D01*
X56677381Y-127753571D01*
X56677381Y-127658333D01*
X56725000Y-127515476D01*
X56772619Y-127467857D01*
X57677381Y-126515476D02*
X57677381Y-127086905D01*
X57677381Y-126801191D02*
X56677381Y-126801191D01*
X56820238Y-126896429D01*
X56915476Y-126991667D01*
X56963095Y-127086905D01*
X57677381Y-125563095D02*
X57677381Y-126134524D01*
X57677381Y-125848810D02*
X56677381Y-125848810D01*
X56820238Y-125944048D01*
X56915476Y-126039286D01*
X56963095Y-126134524D01*
X112462143Y-70667143D02*
X112414524Y-70714762D01*
X112271667Y-70762381D01*
X112176429Y-70762381D01*
X112033571Y-70714762D01*
X111938333Y-70619524D01*
X111890714Y-70524286D01*
X111843095Y-70333810D01*
X111843095Y-70190952D01*
X111890714Y-70000476D01*
X111938333Y-69905238D01*
X112033571Y-69810000D01*
X112176429Y-69762381D01*
X112271667Y-69762381D01*
X112414524Y-69810000D01*
X112462143Y-69857619D01*
X113414524Y-70762381D02*
X112843095Y-70762381D01*
X113128809Y-70762381D02*
X113128809Y-69762381D01*
X113033571Y-69905238D01*
X112938333Y-70000476D01*
X112843095Y-70048095D01*
X113747857Y-69762381D02*
X114366905Y-69762381D01*
X114033571Y-70143333D01*
X114176429Y-70143333D01*
X114271667Y-70190952D01*
X114319286Y-70238571D01*
X114366905Y-70333810D01*
X114366905Y-70571905D01*
X114319286Y-70667143D01*
X114271667Y-70714762D01*
X114176429Y-70762381D01*
X113890714Y-70762381D01*
X113795476Y-70714762D01*
X113747857Y-70667143D01*
X94412143Y-76667857D02*
X94459762Y-76715476D01*
X94507381Y-76858333D01*
X94507381Y-76953571D01*
X94459762Y-77096429D01*
X94364524Y-77191667D01*
X94269286Y-77239286D01*
X94078810Y-77286905D01*
X93935952Y-77286905D01*
X93745476Y-77239286D01*
X93650238Y-77191667D01*
X93555000Y-77096429D01*
X93507381Y-76953571D01*
X93507381Y-76858333D01*
X93555000Y-76715476D01*
X93602619Y-76667857D01*
X94507381Y-75715476D02*
X94507381Y-76286905D01*
X94507381Y-76001191D02*
X93507381Y-76001191D01*
X93650238Y-76096429D01*
X93745476Y-76191667D01*
X93793095Y-76286905D01*
X93840714Y-74858333D02*
X94507381Y-74858333D01*
X93459762Y-75096429D02*
X94174048Y-75334524D01*
X94174048Y-74715476D01*
X94412143Y-79207857D02*
X94459762Y-79255476D01*
X94507381Y-79398333D01*
X94507381Y-79493571D01*
X94459762Y-79636429D01*
X94364524Y-79731667D01*
X94269286Y-79779286D01*
X94078810Y-79826905D01*
X93935952Y-79826905D01*
X93745476Y-79779286D01*
X93650238Y-79731667D01*
X93555000Y-79636429D01*
X93507381Y-79493571D01*
X93507381Y-79398333D01*
X93555000Y-79255476D01*
X93602619Y-79207857D01*
X94507381Y-78255476D02*
X94507381Y-78826905D01*
X94507381Y-78541191D02*
X93507381Y-78541191D01*
X93650238Y-78636429D01*
X93745476Y-78731667D01*
X93793095Y-78826905D01*
X93507381Y-77350714D02*
X93507381Y-77826905D01*
X93983571Y-77874524D01*
X93935952Y-77826905D01*
X93888333Y-77731667D01*
X93888333Y-77493571D01*
X93935952Y-77398333D01*
X93983571Y-77350714D01*
X94078810Y-77303095D01*
X94316905Y-77303095D01*
X94412143Y-77350714D01*
X94459762Y-77398333D01*
X94507381Y-77493571D01*
X94507381Y-77731667D01*
X94459762Y-77826905D01*
X94412143Y-77874524D01*
X88332143Y-84002143D02*
X88284524Y-84049762D01*
X88141667Y-84097381D01*
X88046429Y-84097381D01*
X87903571Y-84049762D01*
X87808333Y-83954524D01*
X87760714Y-83859286D01*
X87713095Y-83668810D01*
X87713095Y-83525952D01*
X87760714Y-83335476D01*
X87808333Y-83240238D01*
X87903571Y-83145000D01*
X88046429Y-83097381D01*
X88141667Y-83097381D01*
X88284524Y-83145000D01*
X88332143Y-83192619D01*
X89284524Y-84097381D02*
X88713095Y-84097381D01*
X88998809Y-84097381D02*
X88998809Y-83097381D01*
X88903571Y-83240238D01*
X88808333Y-83335476D01*
X88713095Y-83383095D01*
X90141667Y-83097381D02*
X89951190Y-83097381D01*
X89855952Y-83145000D01*
X89808333Y-83192619D01*
X89713095Y-83335476D01*
X89665476Y-83525952D01*
X89665476Y-83906905D01*
X89713095Y-84002143D01*
X89760714Y-84049762D01*
X89855952Y-84097381D01*
X90046429Y-84097381D01*
X90141667Y-84049762D01*
X90189286Y-84002143D01*
X90236905Y-83906905D01*
X90236905Y-83668810D01*
X90189286Y-83573571D01*
X90141667Y-83525952D01*
X90046429Y-83478333D01*
X89855952Y-83478333D01*
X89760714Y-83525952D01*
X89713095Y-83573571D01*
X89665476Y-83668810D01*
X63297143Y-107147857D02*
X63344762Y-107195476D01*
X63392381Y-107338333D01*
X63392381Y-107433571D01*
X63344762Y-107576429D01*
X63249524Y-107671667D01*
X63154286Y-107719286D01*
X62963810Y-107766905D01*
X62820952Y-107766905D01*
X62630476Y-107719286D01*
X62535238Y-107671667D01*
X62440000Y-107576429D01*
X62392381Y-107433571D01*
X62392381Y-107338333D01*
X62440000Y-107195476D01*
X62487619Y-107147857D01*
X63392381Y-106195476D02*
X63392381Y-106766905D01*
X63392381Y-106481191D02*
X62392381Y-106481191D01*
X62535238Y-106576429D01*
X62630476Y-106671667D01*
X62678095Y-106766905D01*
X62392381Y-105862143D02*
X62392381Y-105195476D01*
X63392381Y-105624048D01*
X76632143Y-51267857D02*
X76679762Y-51315476D01*
X76727381Y-51458333D01*
X76727381Y-51553571D01*
X76679762Y-51696429D01*
X76584524Y-51791667D01*
X76489286Y-51839286D01*
X76298810Y-51886905D01*
X76155952Y-51886905D01*
X75965476Y-51839286D01*
X75870238Y-51791667D01*
X75775000Y-51696429D01*
X75727381Y-51553571D01*
X75727381Y-51458333D01*
X75775000Y-51315476D01*
X75822619Y-51267857D01*
X75822619Y-50886905D02*
X75775000Y-50839286D01*
X75727381Y-50744048D01*
X75727381Y-50505952D01*
X75775000Y-50410714D01*
X75822619Y-50363095D01*
X75917857Y-50315476D01*
X76013095Y-50315476D01*
X76155952Y-50363095D01*
X76727381Y-50934524D01*
X76727381Y-50315476D01*
X75727381Y-49982143D02*
X75727381Y-49363095D01*
X76108333Y-49696429D01*
X76108333Y-49553571D01*
X76155952Y-49458333D01*
X76203571Y-49410714D01*
X76298810Y-49363095D01*
X76536905Y-49363095D01*
X76632143Y-49410714D01*
X76679762Y-49458333D01*
X76727381Y-49553571D01*
X76727381Y-49839286D01*
X76679762Y-49934524D01*
X76632143Y-49982143D01*
X91237143Y-48092857D02*
X91284762Y-48140476D01*
X91332381Y-48283333D01*
X91332381Y-48378571D01*
X91284762Y-48521429D01*
X91189524Y-48616667D01*
X91094286Y-48664286D01*
X90903810Y-48711905D01*
X90760952Y-48711905D01*
X90570476Y-48664286D01*
X90475238Y-48616667D01*
X90380000Y-48521429D01*
X90332381Y-48378571D01*
X90332381Y-48283333D01*
X90380000Y-48140476D01*
X90427619Y-48092857D01*
X90427619Y-47711905D02*
X90380000Y-47664286D01*
X90332381Y-47569048D01*
X90332381Y-47330952D01*
X90380000Y-47235714D01*
X90427619Y-47188095D01*
X90522857Y-47140476D01*
X90618095Y-47140476D01*
X90760952Y-47188095D01*
X91332381Y-47759524D01*
X91332381Y-47140476D01*
X90665714Y-46283333D02*
X91332381Y-46283333D01*
X90284762Y-46521429D02*
X90999048Y-46759524D01*
X90999048Y-46140476D01*
X43247143Y-128452143D02*
X43199524Y-128499762D01*
X43056667Y-128547381D01*
X42961429Y-128547381D01*
X42818571Y-128499762D01*
X42723333Y-128404524D01*
X42675714Y-128309286D01*
X42628095Y-128118810D01*
X42628095Y-127975952D01*
X42675714Y-127785476D01*
X42723333Y-127690238D01*
X42818571Y-127595000D01*
X42961429Y-127547381D01*
X43056667Y-127547381D01*
X43199524Y-127595000D01*
X43247143Y-127642619D01*
X43628095Y-127642619D02*
X43675714Y-127595000D01*
X43770952Y-127547381D01*
X44009048Y-127547381D01*
X44104286Y-127595000D01*
X44151905Y-127642619D01*
X44199524Y-127737857D01*
X44199524Y-127833095D01*
X44151905Y-127975952D01*
X43580476Y-128547381D01*
X44199524Y-128547381D01*
X45104286Y-127547381D02*
X44628095Y-127547381D01*
X44580476Y-128023571D01*
X44628095Y-127975952D01*
X44723333Y-127928333D01*
X44961429Y-127928333D01*
X45056667Y-127975952D01*
X45104286Y-128023571D01*
X45151905Y-128118810D01*
X45151905Y-128356905D01*
X45104286Y-128452143D01*
X45056667Y-128499762D01*
X44961429Y-128547381D01*
X44723333Y-128547381D01*
X44628095Y-128499762D01*
X44580476Y-128452143D01*
X87422143Y-109052857D02*
X87469762Y-109100476D01*
X87517381Y-109243333D01*
X87517381Y-109338571D01*
X87469762Y-109481429D01*
X87374524Y-109576667D01*
X87279286Y-109624286D01*
X87088810Y-109671905D01*
X86945952Y-109671905D01*
X86755476Y-109624286D01*
X86660238Y-109576667D01*
X86565000Y-109481429D01*
X86517381Y-109338571D01*
X86517381Y-109243333D01*
X86565000Y-109100476D01*
X86612619Y-109052857D01*
X86612619Y-108671905D02*
X86565000Y-108624286D01*
X86517381Y-108529048D01*
X86517381Y-108290952D01*
X86565000Y-108195714D01*
X86612619Y-108148095D01*
X86707857Y-108100476D01*
X86803095Y-108100476D01*
X86945952Y-108148095D01*
X87517381Y-108719524D01*
X87517381Y-108100476D01*
X86517381Y-107767143D02*
X86517381Y-107100476D01*
X87517381Y-107529048D01*
X81982143Y-113842143D02*
X81934524Y-113889762D01*
X81791667Y-113937381D01*
X81696429Y-113937381D01*
X81553571Y-113889762D01*
X81458333Y-113794524D01*
X81410714Y-113699286D01*
X81363095Y-113508810D01*
X81363095Y-113365952D01*
X81410714Y-113175476D01*
X81458333Y-113080238D01*
X81553571Y-112985000D01*
X81696429Y-112937381D01*
X81791667Y-112937381D01*
X81934524Y-112985000D01*
X81982143Y-113032619D01*
X82363095Y-113032619D02*
X82410714Y-112985000D01*
X82505952Y-112937381D01*
X82744048Y-112937381D01*
X82839286Y-112985000D01*
X82886905Y-113032619D01*
X82934524Y-113127857D01*
X82934524Y-113223095D01*
X82886905Y-113365952D01*
X82315476Y-113937381D01*
X82934524Y-113937381D01*
X83505952Y-113365952D02*
X83410714Y-113318333D01*
X83363095Y-113270714D01*
X83315476Y-113175476D01*
X83315476Y-113127857D01*
X83363095Y-113032619D01*
X83410714Y-112985000D01*
X83505952Y-112937381D01*
X83696429Y-112937381D01*
X83791667Y-112985000D01*
X83839286Y-113032619D01*
X83886905Y-113127857D01*
X83886905Y-113175476D01*
X83839286Y-113270714D01*
X83791667Y-113318333D01*
X83696429Y-113365952D01*
X83505952Y-113365952D01*
X83410714Y-113413571D01*
X83363095Y-113461190D01*
X83315476Y-113556429D01*
X83315476Y-113746905D01*
X83363095Y-113842143D01*
X83410714Y-113889762D01*
X83505952Y-113937381D01*
X83696429Y-113937381D01*
X83791667Y-113889762D01*
X83839286Y-113842143D01*
X83886905Y-113746905D01*
X83886905Y-113556429D01*
X83839286Y-113461190D01*
X83791667Y-113413571D01*
X83696429Y-113365952D01*
X81982143Y-67492143D02*
X81934524Y-67539762D01*
X81791667Y-67587381D01*
X81696429Y-67587381D01*
X81553571Y-67539762D01*
X81458333Y-67444524D01*
X81410714Y-67349286D01*
X81363095Y-67158810D01*
X81363095Y-67015952D01*
X81410714Y-66825476D01*
X81458333Y-66730238D01*
X81553571Y-66635000D01*
X81696429Y-66587381D01*
X81791667Y-66587381D01*
X81934524Y-66635000D01*
X81982143Y-66682619D01*
X82363095Y-66682619D02*
X82410714Y-66635000D01*
X82505952Y-66587381D01*
X82744048Y-66587381D01*
X82839286Y-66635000D01*
X82886905Y-66682619D01*
X82934524Y-66777857D01*
X82934524Y-66873095D01*
X82886905Y-67015952D01*
X82315476Y-67587381D01*
X82934524Y-67587381D01*
X83410714Y-67587381D02*
X83601190Y-67587381D01*
X83696429Y-67539762D01*
X83744048Y-67492143D01*
X83839286Y-67349286D01*
X83886905Y-67158810D01*
X83886905Y-66777857D01*
X83839286Y-66682619D01*
X83791667Y-66635000D01*
X83696429Y-66587381D01*
X83505952Y-66587381D01*
X83410714Y-66635000D01*
X83363095Y-66682619D01*
X83315476Y-66777857D01*
X83315476Y-67015952D01*
X83363095Y-67111190D01*
X83410714Y-67158810D01*
X83505952Y-67206429D01*
X83696429Y-67206429D01*
X83791667Y-67158810D01*
X83839286Y-67111190D01*
X83886905Y-67015952D01*
X81347143Y-83367143D02*
X81299524Y-83414762D01*
X81156667Y-83462381D01*
X81061429Y-83462381D01*
X80918571Y-83414762D01*
X80823333Y-83319524D01*
X80775714Y-83224286D01*
X80728095Y-83033810D01*
X80728095Y-82890952D01*
X80775714Y-82700476D01*
X80823333Y-82605238D01*
X80918571Y-82510000D01*
X81061429Y-82462381D01*
X81156667Y-82462381D01*
X81299524Y-82510000D01*
X81347143Y-82557619D01*
X81680476Y-82462381D02*
X82299524Y-82462381D01*
X81966190Y-82843333D01*
X82109048Y-82843333D01*
X82204286Y-82890952D01*
X82251905Y-82938571D01*
X82299524Y-83033810D01*
X82299524Y-83271905D01*
X82251905Y-83367143D01*
X82204286Y-83414762D01*
X82109048Y-83462381D01*
X81823333Y-83462381D01*
X81728095Y-83414762D01*
X81680476Y-83367143D01*
X82918571Y-82462381D02*
X83013810Y-82462381D01*
X83109048Y-82510000D01*
X83156667Y-82557619D01*
X83204286Y-82652857D01*
X83251905Y-82843333D01*
X83251905Y-83081429D01*
X83204286Y-83271905D01*
X83156667Y-83367143D01*
X83109048Y-83414762D01*
X83013810Y-83462381D01*
X82918571Y-83462381D01*
X82823333Y-83414762D01*
X82775714Y-83367143D01*
X82728095Y-83271905D01*
X82680476Y-83081429D01*
X82680476Y-82843333D01*
X82728095Y-82652857D01*
X82775714Y-82557619D01*
X82823333Y-82510000D01*
X82918571Y-82462381D01*
X103476905Y-47902381D02*
X103476905Y-46902381D01*
X103715000Y-46902381D01*
X103857858Y-46950000D01*
X103953096Y-47045238D01*
X104000715Y-47140476D01*
X104048334Y-47330952D01*
X104048334Y-47473810D01*
X104000715Y-47664286D01*
X103953096Y-47759524D01*
X103857858Y-47854762D01*
X103715000Y-47902381D01*
X103476905Y-47902381D01*
X105000715Y-47902381D02*
X104429286Y-47902381D01*
X104715000Y-47902381D02*
X104715000Y-46902381D01*
X104619762Y-47045238D01*
X104524524Y-47140476D01*
X104429286Y-47188095D01*
X91622381Y-53268095D02*
X90622381Y-53268095D01*
X90622381Y-53030000D01*
X90670000Y-52887142D01*
X90765238Y-52791904D01*
X90860476Y-52744285D01*
X91050952Y-52696666D01*
X91193810Y-52696666D01*
X91384286Y-52744285D01*
X91479524Y-52791904D01*
X91574762Y-52887142D01*
X91622381Y-53030000D01*
X91622381Y-53268095D01*
X90717619Y-52315714D02*
X90670000Y-52268095D01*
X90622381Y-52172857D01*
X90622381Y-51934761D01*
X90670000Y-51839523D01*
X90717619Y-51791904D01*
X90812857Y-51744285D01*
X90908095Y-51744285D01*
X91050952Y-51791904D01*
X91622381Y-52363333D01*
X91622381Y-51744285D01*
X103476905Y-51712381D02*
X103476905Y-50712381D01*
X103715000Y-50712381D01*
X103857858Y-50760000D01*
X103953096Y-50855238D01*
X104000715Y-50950476D01*
X104048334Y-51140952D01*
X104048334Y-51283810D01*
X104000715Y-51474286D01*
X103953096Y-51569524D01*
X103857858Y-51664762D01*
X103715000Y-51712381D01*
X103476905Y-51712381D01*
X104381667Y-50712381D02*
X105000715Y-50712381D01*
X104667381Y-51093333D01*
X104810239Y-51093333D01*
X104905477Y-51140952D01*
X104953096Y-51188571D01*
X105000715Y-51283810D01*
X105000715Y-51521905D01*
X104953096Y-51617143D01*
X104905477Y-51664762D01*
X104810239Y-51712381D01*
X104524524Y-51712381D01*
X104429286Y-51664762D01*
X104381667Y-51617143D01*
X113001905Y-124102381D02*
X113001905Y-123102381D01*
X113240000Y-123102381D01*
X113382858Y-123150000D01*
X113478096Y-123245238D01*
X113525715Y-123340476D01*
X113573334Y-123530952D01*
X113573334Y-123673810D01*
X113525715Y-123864286D01*
X113478096Y-123959524D01*
X113382858Y-124054762D01*
X113240000Y-124102381D01*
X113001905Y-124102381D01*
X114430477Y-123435714D02*
X114430477Y-124102381D01*
X114192381Y-123054762D02*
X113954286Y-123769048D01*
X114573334Y-123769048D01*
D18*
X98333334Y-74572381D02*
X97857143Y-74572381D01*
X97857143Y-73572381D01*
X99190477Y-74572381D02*
X98619048Y-74572381D01*
X98904762Y-74572381D02*
X98904762Y-73572381D01*
X98809524Y-73715238D01*
X98714286Y-73810476D01*
X98619048Y-73858095D01*
D19*
X98729810Y-79835002D02*
X98221810Y-79835002D01*
X98584667Y-79665668D01*
X98221810Y-79496335D01*
X98729810Y-79496335D01*
X98729810Y-79254431D02*
X98221810Y-79254431D01*
X98584667Y-79085097D01*
X98221810Y-78915764D01*
X98729810Y-78915764D01*
X98221810Y-78722241D02*
X98221810Y-78383574D01*
X98729810Y-78722241D01*
X98729810Y-78383574D01*
X98729810Y-77923954D02*
X98729810Y-78214240D01*
X98729810Y-78069097D02*
X98221810Y-78069097D01*
X98294381Y-78117478D01*
X98342762Y-78165859D01*
X98366952Y-78214240D01*
X98221810Y-77488525D02*
X98221810Y-77585287D01*
X98246000Y-77633668D01*
X98270190Y-77657859D01*
X98342762Y-77706240D01*
X98439524Y-77730430D01*
X98633048Y-77730430D01*
X98681429Y-77706240D01*
X98705619Y-77682049D01*
X98729810Y-77633668D01*
X98729810Y-77536906D01*
X98705619Y-77488525D01*
X98681429Y-77464335D01*
X98633048Y-77440144D01*
X98512095Y-77440144D01*
X98463714Y-77464335D01*
X98439524Y-77488525D01*
X98415333Y-77536906D01*
X98415333Y-77633668D01*
X98439524Y-77682049D01*
X98463714Y-77706240D01*
X98512095Y-77730430D01*
X98221810Y-77125668D02*
X98221810Y-77077287D01*
X98246000Y-77028906D01*
X98270190Y-77004715D01*
X98318571Y-76980525D01*
X98415333Y-76956334D01*
X98536286Y-76956334D01*
X98633048Y-76980525D01*
X98681429Y-77004715D01*
X98705619Y-77028906D01*
X98729810Y-77077287D01*
X98729810Y-77125668D01*
X98705619Y-77174049D01*
X98681429Y-77198239D01*
X98633048Y-77222430D01*
X98536286Y-77246620D01*
X98415333Y-77246620D01*
X98318571Y-77222430D01*
X98270190Y-77198239D01*
X98246000Y-77174049D01*
X98221810Y-77125668D01*
X98439524Y-76666048D02*
X98415333Y-76714429D01*
X98391143Y-76738620D01*
X98342762Y-76762810D01*
X98318571Y-76762810D01*
X98270190Y-76738620D01*
X98246000Y-76714429D01*
X98221810Y-76666048D01*
X98221810Y-76569286D01*
X98246000Y-76520905D01*
X98270190Y-76496715D01*
X98318571Y-76472524D01*
X98342762Y-76472524D01*
X98391143Y-76496715D01*
X98415333Y-76520905D01*
X98439524Y-76569286D01*
X98439524Y-76666048D01*
X98463714Y-76714429D01*
X98487905Y-76738620D01*
X98536286Y-76762810D01*
X98633048Y-76762810D01*
X98681429Y-76738620D01*
X98705619Y-76714429D01*
X98729810Y-76666048D01*
X98729810Y-76569286D01*
X98705619Y-76520905D01*
X98681429Y-76496715D01*
X98633048Y-76472524D01*
X98536286Y-76472524D01*
X98487905Y-76496715D01*
X98463714Y-76520905D01*
X98439524Y-76569286D01*
X98705619Y-76279000D02*
X98729810Y-76206429D01*
X98729810Y-76085476D01*
X98705619Y-76037095D01*
X98681429Y-76012905D01*
X98633048Y-75988714D01*
X98584667Y-75988714D01*
X98536286Y-76012905D01*
X98512095Y-76037095D01*
X98487905Y-76085476D01*
X98463714Y-76182238D01*
X98439524Y-76230619D01*
X98415333Y-76254810D01*
X98366952Y-76279000D01*
X98318571Y-76279000D01*
X98270190Y-76254810D01*
X98246000Y-76230619D01*
X98221810Y-76182238D01*
X98221810Y-76061286D01*
X98246000Y-75988714D01*
X98221810Y-75819381D02*
X98221810Y-75504904D01*
X98415333Y-75674238D01*
X98415333Y-75601666D01*
X98439524Y-75553285D01*
X98463714Y-75529095D01*
X98512095Y-75504904D01*
X98633048Y-75504904D01*
X98681429Y-75529095D01*
X98705619Y-75553285D01*
X98729810Y-75601666D01*
X98729810Y-75746809D01*
X98705619Y-75795190D01*
X98681429Y-75819381D01*
X98221810Y-75190428D02*
X98221810Y-75142047D01*
X98246000Y-75093666D01*
X98270190Y-75069475D01*
X98318571Y-75045285D01*
X98415333Y-75021094D01*
X98536286Y-75021094D01*
X98633048Y-75045285D01*
X98681429Y-75069475D01*
X98705619Y-75093666D01*
X98729810Y-75142047D01*
X98729810Y-75190428D01*
X98705619Y-75238809D01*
X98681429Y-75262999D01*
X98633048Y-75287190D01*
X98536286Y-75311380D01*
X98415333Y-75311380D01*
X98318571Y-75287190D01*
X98270190Y-75262999D01*
X98246000Y-75238809D01*
X98221810Y-75190428D01*
X98729810Y-74537284D02*
X98729810Y-74827570D01*
X98729810Y-74682427D02*
X98221810Y-74682427D01*
X98294381Y-74730808D01*
X98342762Y-74779189D01*
X98366952Y-74827570D01*
X98681429Y-74029284D02*
X98705619Y-74053474D01*
X98729810Y-74126046D01*
X98729810Y-74174427D01*
X98705619Y-74246998D01*
X98657238Y-74295379D01*
X98608857Y-74319570D01*
X98512095Y-74343760D01*
X98439524Y-74343760D01*
X98342762Y-74319570D01*
X98294381Y-74295379D01*
X98246000Y-74246998D01*
X98221810Y-74174427D01*
X98221810Y-74126046D01*
X98246000Y-74053474D01*
X98270190Y-74029284D01*
X98221810Y-73884141D02*
X98221810Y-73593855D01*
X98729810Y-73738998D02*
X98221810Y-73738998D01*
X98584667Y-73448712D02*
X98584667Y-73206807D01*
X98729810Y-73497093D02*
X98221810Y-73327760D01*
X98729810Y-73158426D01*
X98729810Y-72989093D02*
X98221810Y-72989093D01*
X98463714Y-72989093D02*
X98463714Y-72698807D01*
X98729810Y-72698807D02*
X98221810Y-72698807D01*
X98221810Y-72360141D02*
X98221810Y-72311760D01*
X98246000Y-72263379D01*
X98270190Y-72239188D01*
X98318571Y-72214998D01*
X98415333Y-72190807D01*
X98536286Y-72190807D01*
X98633048Y-72214998D01*
X98681429Y-72239188D01*
X98705619Y-72263379D01*
X98729810Y-72311760D01*
X98729810Y-72360141D01*
X98705619Y-72408522D01*
X98681429Y-72432712D01*
X98633048Y-72456903D01*
X98536286Y-72481093D01*
X98415333Y-72481093D01*
X98318571Y-72456903D01*
X98270190Y-72432712D01*
X98246000Y-72408522D01*
X98221810Y-72360141D01*
D18*
X112922381Y-114926666D02*
X112922381Y-115402857D01*
X111922381Y-115402857D01*
X112017619Y-114640952D02*
X111970000Y-114593333D01*
X111922381Y-114498095D01*
X111922381Y-114259999D01*
X111970000Y-114164761D01*
X112017619Y-114117142D01*
X112112857Y-114069523D01*
X112208095Y-114069523D01*
X112350952Y-114117142D01*
X112922381Y-114688571D01*
X112922381Y-114069523D01*
D19*
X106754998Y-114989810D02*
X106754998Y-114481810D01*
X106924332Y-114844667D01*
X107093665Y-114481810D01*
X107093665Y-114989810D01*
X107335569Y-114989810D02*
X107335569Y-114481810D01*
X107504903Y-114844667D01*
X107674236Y-114481810D01*
X107674236Y-114989810D01*
X107867759Y-114481810D02*
X108206426Y-114481810D01*
X107867759Y-114989810D01*
X108206426Y-114989810D01*
X108666046Y-114989810D02*
X108375760Y-114989810D01*
X108520903Y-114989810D02*
X108520903Y-114481810D01*
X108472522Y-114554381D01*
X108424141Y-114602762D01*
X108375760Y-114626952D01*
X109101475Y-114481810D02*
X109004713Y-114481810D01*
X108956332Y-114506000D01*
X108932141Y-114530190D01*
X108883760Y-114602762D01*
X108859570Y-114699524D01*
X108859570Y-114893048D01*
X108883760Y-114941429D01*
X108907951Y-114965619D01*
X108956332Y-114989810D01*
X109053094Y-114989810D01*
X109101475Y-114965619D01*
X109125665Y-114941429D01*
X109149856Y-114893048D01*
X109149856Y-114772095D01*
X109125665Y-114723714D01*
X109101475Y-114699524D01*
X109053094Y-114675333D01*
X108956332Y-114675333D01*
X108907951Y-114699524D01*
X108883760Y-114723714D01*
X108859570Y-114772095D01*
X109464332Y-114481810D02*
X109512713Y-114481810D01*
X109561094Y-114506000D01*
X109585285Y-114530190D01*
X109609475Y-114578571D01*
X109633666Y-114675333D01*
X109633666Y-114796286D01*
X109609475Y-114893048D01*
X109585285Y-114941429D01*
X109561094Y-114965619D01*
X109512713Y-114989810D01*
X109464332Y-114989810D01*
X109415951Y-114965619D01*
X109391761Y-114941429D01*
X109367570Y-114893048D01*
X109343380Y-114796286D01*
X109343380Y-114675333D01*
X109367570Y-114578571D01*
X109391761Y-114530190D01*
X109415951Y-114506000D01*
X109464332Y-114481810D01*
X109923952Y-114699524D02*
X109875571Y-114675333D01*
X109851380Y-114651143D01*
X109827190Y-114602762D01*
X109827190Y-114578571D01*
X109851380Y-114530190D01*
X109875571Y-114506000D01*
X109923952Y-114481810D01*
X110020714Y-114481810D01*
X110069095Y-114506000D01*
X110093285Y-114530190D01*
X110117476Y-114578571D01*
X110117476Y-114602762D01*
X110093285Y-114651143D01*
X110069095Y-114675333D01*
X110020714Y-114699524D01*
X109923952Y-114699524D01*
X109875571Y-114723714D01*
X109851380Y-114747905D01*
X109827190Y-114796286D01*
X109827190Y-114893048D01*
X109851380Y-114941429D01*
X109875571Y-114965619D01*
X109923952Y-114989810D01*
X110020714Y-114989810D01*
X110069095Y-114965619D01*
X110093285Y-114941429D01*
X110117476Y-114893048D01*
X110117476Y-114796286D01*
X110093285Y-114747905D01*
X110069095Y-114723714D01*
X110020714Y-114699524D01*
X110311000Y-114965619D02*
X110383571Y-114989810D01*
X110504524Y-114989810D01*
X110552905Y-114965619D01*
X110577095Y-114941429D01*
X110601286Y-114893048D01*
X110601286Y-114844667D01*
X110577095Y-114796286D01*
X110552905Y-114772095D01*
X110504524Y-114747905D01*
X110407762Y-114723714D01*
X110359381Y-114699524D01*
X110335190Y-114675333D01*
X110311000Y-114626952D01*
X110311000Y-114578571D01*
X110335190Y-114530190D01*
X110359381Y-114506000D01*
X110407762Y-114481810D01*
X110528714Y-114481810D01*
X110601286Y-114506000D01*
X110770619Y-114481810D02*
X111085096Y-114481810D01*
X110915762Y-114675333D01*
X110988334Y-114675333D01*
X111036715Y-114699524D01*
X111060905Y-114723714D01*
X111085096Y-114772095D01*
X111085096Y-114893048D01*
X111060905Y-114941429D01*
X111036715Y-114965619D01*
X110988334Y-114989810D01*
X110843191Y-114989810D01*
X110794810Y-114965619D01*
X110770619Y-114941429D01*
X111399572Y-114481810D02*
X111447953Y-114481810D01*
X111496334Y-114506000D01*
X111520525Y-114530190D01*
X111544715Y-114578571D01*
X111568906Y-114675333D01*
X111568906Y-114796286D01*
X111544715Y-114893048D01*
X111520525Y-114941429D01*
X111496334Y-114965619D01*
X111447953Y-114989810D01*
X111399572Y-114989810D01*
X111351191Y-114965619D01*
X111327001Y-114941429D01*
X111302810Y-114893048D01*
X111278620Y-114796286D01*
X111278620Y-114675333D01*
X111302810Y-114578571D01*
X111327001Y-114530190D01*
X111351191Y-114506000D01*
X111399572Y-114481810D01*
X112052716Y-114989810D02*
X111762430Y-114989810D01*
X111907573Y-114989810D02*
X111907573Y-114481810D01*
X111859192Y-114554381D01*
X111810811Y-114602762D01*
X111762430Y-114626952D01*
X112560716Y-114941429D02*
X112536526Y-114965619D01*
X112463954Y-114989810D01*
X112415573Y-114989810D01*
X112343002Y-114965619D01*
X112294621Y-114917238D01*
X112270430Y-114868857D01*
X112246240Y-114772095D01*
X112246240Y-114699524D01*
X112270430Y-114602762D01*
X112294621Y-114554381D01*
X112343002Y-114506000D01*
X112415573Y-114481810D01*
X112463954Y-114481810D01*
X112536526Y-114506000D01*
X112560716Y-114530190D01*
X112705859Y-114481810D02*
X112996145Y-114481810D01*
X112851002Y-114989810D02*
X112851002Y-114481810D01*
X113141288Y-114844667D02*
X113383193Y-114844667D01*
X113092907Y-114989810D02*
X113262240Y-114481810D01*
X113431574Y-114989810D01*
X113600907Y-114989810D02*
X113600907Y-114481810D01*
X113600907Y-114723714D02*
X113891193Y-114723714D01*
X113891193Y-114989810D02*
X113891193Y-114481810D01*
X114229859Y-114481810D02*
X114278240Y-114481810D01*
X114326621Y-114506000D01*
X114350812Y-114530190D01*
X114375002Y-114578571D01*
X114399193Y-114675333D01*
X114399193Y-114796286D01*
X114375002Y-114893048D01*
X114350812Y-114941429D01*
X114326621Y-114965619D01*
X114278240Y-114989810D01*
X114229859Y-114989810D01*
X114181478Y-114965619D01*
X114157288Y-114941429D01*
X114133097Y-114893048D01*
X114108907Y-114796286D01*
X114108907Y-114675333D01*
X114133097Y-114578571D01*
X114157288Y-114530190D01*
X114181478Y-114506000D01*
X114229859Y-114481810D01*
D18*
X93237381Y-50156666D02*
X93237381Y-50632857D01*
X92237381Y-50632857D01*
X92570714Y-49394761D02*
X93237381Y-49394761D01*
X92189762Y-49632857D02*
X92904048Y-49870952D01*
X92904048Y-49251904D01*
D19*
X88974998Y-47679810D02*
X88974998Y-47171810D01*
X89144332Y-47534667D01*
X89313665Y-47171810D01*
X89313665Y-47679810D01*
X89555569Y-47679810D02*
X89555569Y-47171810D01*
X89724903Y-47534667D01*
X89894236Y-47171810D01*
X89894236Y-47679810D01*
X90087759Y-47171810D02*
X90426426Y-47171810D01*
X90087759Y-47679810D01*
X90426426Y-47679810D01*
X90886046Y-47679810D02*
X90595760Y-47679810D01*
X90740903Y-47679810D02*
X90740903Y-47171810D01*
X90692522Y-47244381D01*
X90644141Y-47292762D01*
X90595760Y-47316952D01*
X91321475Y-47171810D02*
X91224713Y-47171810D01*
X91176332Y-47196000D01*
X91152141Y-47220190D01*
X91103760Y-47292762D01*
X91079570Y-47389524D01*
X91079570Y-47583048D01*
X91103760Y-47631429D01*
X91127951Y-47655619D01*
X91176332Y-47679810D01*
X91273094Y-47679810D01*
X91321475Y-47655619D01*
X91345665Y-47631429D01*
X91369856Y-47583048D01*
X91369856Y-47462095D01*
X91345665Y-47413714D01*
X91321475Y-47389524D01*
X91273094Y-47365333D01*
X91176332Y-47365333D01*
X91127951Y-47389524D01*
X91103760Y-47413714D01*
X91079570Y-47462095D01*
X91684332Y-47171810D02*
X91732713Y-47171810D01*
X91781094Y-47196000D01*
X91805285Y-47220190D01*
X91829475Y-47268571D01*
X91853666Y-47365333D01*
X91853666Y-47486286D01*
X91829475Y-47583048D01*
X91805285Y-47631429D01*
X91781094Y-47655619D01*
X91732713Y-47679810D01*
X91684332Y-47679810D01*
X91635951Y-47655619D01*
X91611761Y-47631429D01*
X91587570Y-47583048D01*
X91563380Y-47486286D01*
X91563380Y-47365333D01*
X91587570Y-47268571D01*
X91611761Y-47220190D01*
X91635951Y-47196000D01*
X91684332Y-47171810D01*
X92143952Y-47389524D02*
X92095571Y-47365333D01*
X92071380Y-47341143D01*
X92047190Y-47292762D01*
X92047190Y-47268571D01*
X92071380Y-47220190D01*
X92095571Y-47196000D01*
X92143952Y-47171810D01*
X92240714Y-47171810D01*
X92289095Y-47196000D01*
X92313285Y-47220190D01*
X92337476Y-47268571D01*
X92337476Y-47292762D01*
X92313285Y-47341143D01*
X92289095Y-47365333D01*
X92240714Y-47389524D01*
X92143952Y-47389524D01*
X92095571Y-47413714D01*
X92071380Y-47437905D01*
X92047190Y-47486286D01*
X92047190Y-47583048D01*
X92071380Y-47631429D01*
X92095571Y-47655619D01*
X92143952Y-47679810D01*
X92240714Y-47679810D01*
X92289095Y-47655619D01*
X92313285Y-47631429D01*
X92337476Y-47583048D01*
X92337476Y-47486286D01*
X92313285Y-47437905D01*
X92289095Y-47413714D01*
X92240714Y-47389524D01*
X92531000Y-47655619D02*
X92603571Y-47679810D01*
X92724524Y-47679810D01*
X92772905Y-47655619D01*
X92797095Y-47631429D01*
X92821286Y-47583048D01*
X92821286Y-47534667D01*
X92797095Y-47486286D01*
X92772905Y-47462095D01*
X92724524Y-47437905D01*
X92627762Y-47413714D01*
X92579381Y-47389524D01*
X92555190Y-47365333D01*
X92531000Y-47316952D01*
X92531000Y-47268571D01*
X92555190Y-47220190D01*
X92579381Y-47196000D01*
X92627762Y-47171810D01*
X92748714Y-47171810D01*
X92821286Y-47196000D01*
X92990619Y-47171810D02*
X93305096Y-47171810D01*
X93135762Y-47365333D01*
X93208334Y-47365333D01*
X93256715Y-47389524D01*
X93280905Y-47413714D01*
X93305096Y-47462095D01*
X93305096Y-47583048D01*
X93280905Y-47631429D01*
X93256715Y-47655619D01*
X93208334Y-47679810D01*
X93063191Y-47679810D01*
X93014810Y-47655619D01*
X92990619Y-47631429D01*
X93619572Y-47171810D02*
X93667953Y-47171810D01*
X93716334Y-47196000D01*
X93740525Y-47220190D01*
X93764715Y-47268571D01*
X93788906Y-47365333D01*
X93788906Y-47486286D01*
X93764715Y-47583048D01*
X93740525Y-47631429D01*
X93716334Y-47655619D01*
X93667953Y-47679810D01*
X93619572Y-47679810D01*
X93571191Y-47655619D01*
X93547001Y-47631429D01*
X93522810Y-47583048D01*
X93498620Y-47486286D01*
X93498620Y-47365333D01*
X93522810Y-47268571D01*
X93547001Y-47220190D01*
X93571191Y-47196000D01*
X93619572Y-47171810D01*
X94272716Y-47679810D02*
X93982430Y-47679810D01*
X94127573Y-47679810D02*
X94127573Y-47171810D01*
X94079192Y-47244381D01*
X94030811Y-47292762D01*
X93982430Y-47316952D01*
X94780716Y-47631429D02*
X94756526Y-47655619D01*
X94683954Y-47679810D01*
X94635573Y-47679810D01*
X94563002Y-47655619D01*
X94514621Y-47607238D01*
X94490430Y-47558857D01*
X94466240Y-47462095D01*
X94466240Y-47389524D01*
X94490430Y-47292762D01*
X94514621Y-47244381D01*
X94563002Y-47196000D01*
X94635573Y-47171810D01*
X94683954Y-47171810D01*
X94756526Y-47196000D01*
X94780716Y-47220190D01*
X94925859Y-47171810D02*
X95216145Y-47171810D01*
X95071002Y-47679810D02*
X95071002Y-47171810D01*
X95361288Y-47534667D02*
X95603193Y-47534667D01*
X95312907Y-47679810D02*
X95482240Y-47171810D01*
X95651574Y-47679810D01*
X95820907Y-47679810D02*
X95820907Y-47171810D01*
X95820907Y-47413714D02*
X96111193Y-47413714D01*
X96111193Y-47679810D02*
X96111193Y-47171810D01*
X96449859Y-47171810D02*
X96498240Y-47171810D01*
X96546621Y-47196000D01*
X96570812Y-47220190D01*
X96595002Y-47268571D01*
X96619193Y-47365333D01*
X96619193Y-47486286D01*
X96595002Y-47583048D01*
X96570812Y-47631429D01*
X96546621Y-47655619D01*
X96498240Y-47679810D01*
X96449859Y-47679810D01*
X96401478Y-47655619D01*
X96377288Y-47631429D01*
X96353097Y-47583048D01*
X96328907Y-47486286D01*
X96328907Y-47365333D01*
X96353097Y-47268571D01*
X96377288Y-47220190D01*
X96401478Y-47196000D01*
X96449859Y-47171810D01*
X90244998Y-87049810D02*
X90244998Y-86541810D01*
X90414332Y-86904667D01*
X90583665Y-86541810D01*
X90583665Y-87049810D01*
X90825569Y-87049810D02*
X90825569Y-86541810D01*
X90994903Y-86904667D01*
X91164236Y-86541810D01*
X91164236Y-87049810D01*
X91357759Y-86541810D02*
X91696426Y-86541810D01*
X91357759Y-87049810D01*
X91696426Y-87049810D01*
X92156046Y-87049810D02*
X91865760Y-87049810D01*
X92010903Y-87049810D02*
X92010903Y-86541810D01*
X91962522Y-86614381D01*
X91914141Y-86662762D01*
X91865760Y-86686952D01*
X92591475Y-86541810D02*
X92494713Y-86541810D01*
X92446332Y-86566000D01*
X92422141Y-86590190D01*
X92373760Y-86662762D01*
X92349570Y-86759524D01*
X92349570Y-86953048D01*
X92373760Y-87001429D01*
X92397951Y-87025619D01*
X92446332Y-87049810D01*
X92543094Y-87049810D01*
X92591475Y-87025619D01*
X92615665Y-87001429D01*
X92639856Y-86953048D01*
X92639856Y-86832095D01*
X92615665Y-86783714D01*
X92591475Y-86759524D01*
X92543094Y-86735333D01*
X92446332Y-86735333D01*
X92397951Y-86759524D01*
X92373760Y-86783714D01*
X92349570Y-86832095D01*
X92954332Y-86541810D02*
X93002713Y-86541810D01*
X93051094Y-86566000D01*
X93075285Y-86590190D01*
X93099475Y-86638571D01*
X93123666Y-86735333D01*
X93123666Y-86856286D01*
X93099475Y-86953048D01*
X93075285Y-87001429D01*
X93051094Y-87025619D01*
X93002713Y-87049810D01*
X92954332Y-87049810D01*
X92905951Y-87025619D01*
X92881761Y-87001429D01*
X92857570Y-86953048D01*
X92833380Y-86856286D01*
X92833380Y-86735333D01*
X92857570Y-86638571D01*
X92881761Y-86590190D01*
X92905951Y-86566000D01*
X92954332Y-86541810D01*
X93413952Y-86759524D02*
X93365571Y-86735333D01*
X93341380Y-86711143D01*
X93317190Y-86662762D01*
X93317190Y-86638571D01*
X93341380Y-86590190D01*
X93365571Y-86566000D01*
X93413952Y-86541810D01*
X93510714Y-86541810D01*
X93559095Y-86566000D01*
X93583285Y-86590190D01*
X93607476Y-86638571D01*
X93607476Y-86662762D01*
X93583285Y-86711143D01*
X93559095Y-86735333D01*
X93510714Y-86759524D01*
X93413952Y-86759524D01*
X93365571Y-86783714D01*
X93341380Y-86807905D01*
X93317190Y-86856286D01*
X93317190Y-86953048D01*
X93341380Y-87001429D01*
X93365571Y-87025619D01*
X93413952Y-87049810D01*
X93510714Y-87049810D01*
X93559095Y-87025619D01*
X93583285Y-87001429D01*
X93607476Y-86953048D01*
X93607476Y-86856286D01*
X93583285Y-86807905D01*
X93559095Y-86783714D01*
X93510714Y-86759524D01*
X93801000Y-87025619D02*
X93873571Y-87049810D01*
X93994524Y-87049810D01*
X94042905Y-87025619D01*
X94067095Y-87001429D01*
X94091286Y-86953048D01*
X94091286Y-86904667D01*
X94067095Y-86856286D01*
X94042905Y-86832095D01*
X93994524Y-86807905D01*
X93897762Y-86783714D01*
X93849381Y-86759524D01*
X93825190Y-86735333D01*
X93801000Y-86686952D01*
X93801000Y-86638571D01*
X93825190Y-86590190D01*
X93849381Y-86566000D01*
X93897762Y-86541810D01*
X94018714Y-86541810D01*
X94091286Y-86566000D01*
X94260619Y-86541810D02*
X94575096Y-86541810D01*
X94405762Y-86735333D01*
X94478334Y-86735333D01*
X94526715Y-86759524D01*
X94550905Y-86783714D01*
X94575096Y-86832095D01*
X94575096Y-86953048D01*
X94550905Y-87001429D01*
X94526715Y-87025619D01*
X94478334Y-87049810D01*
X94333191Y-87049810D01*
X94284810Y-87025619D01*
X94260619Y-87001429D01*
X94889572Y-86541810D02*
X94937953Y-86541810D01*
X94986334Y-86566000D01*
X95010525Y-86590190D01*
X95034715Y-86638571D01*
X95058906Y-86735333D01*
X95058906Y-86856286D01*
X95034715Y-86953048D01*
X95010525Y-87001429D01*
X94986334Y-87025619D01*
X94937953Y-87049810D01*
X94889572Y-87049810D01*
X94841191Y-87025619D01*
X94817001Y-87001429D01*
X94792810Y-86953048D01*
X94768620Y-86856286D01*
X94768620Y-86735333D01*
X94792810Y-86638571D01*
X94817001Y-86590190D01*
X94841191Y-86566000D01*
X94889572Y-86541810D01*
X95542716Y-87049810D02*
X95252430Y-87049810D01*
X95397573Y-87049810D02*
X95397573Y-86541810D01*
X95349192Y-86614381D01*
X95300811Y-86662762D01*
X95252430Y-86686952D01*
X96050716Y-87001429D02*
X96026526Y-87025619D01*
X95953954Y-87049810D01*
X95905573Y-87049810D01*
X95833002Y-87025619D01*
X95784621Y-86977238D01*
X95760430Y-86928857D01*
X95736240Y-86832095D01*
X95736240Y-86759524D01*
X95760430Y-86662762D01*
X95784621Y-86614381D01*
X95833002Y-86566000D01*
X95905573Y-86541810D01*
X95953954Y-86541810D01*
X96026526Y-86566000D01*
X96050716Y-86590190D01*
X96195859Y-86541810D02*
X96486145Y-86541810D01*
X96341002Y-87049810D02*
X96341002Y-86541810D01*
X96631288Y-86904667D02*
X96873193Y-86904667D01*
X96582907Y-87049810D02*
X96752240Y-86541810D01*
X96921574Y-87049810D01*
X97090907Y-87049810D02*
X97090907Y-86541810D01*
X97090907Y-86783714D02*
X97381193Y-86783714D01*
X97381193Y-87049810D02*
X97381193Y-86541810D01*
X97719859Y-86541810D02*
X97768240Y-86541810D01*
X97816621Y-86566000D01*
X97840812Y-86590190D01*
X97865002Y-86638571D01*
X97889193Y-86735333D01*
X97889193Y-86856286D01*
X97865002Y-86953048D01*
X97840812Y-87001429D01*
X97816621Y-87025619D01*
X97768240Y-87049810D01*
X97719859Y-87049810D01*
X97671478Y-87025619D01*
X97647288Y-87001429D01*
X97623097Y-86953048D01*
X97598907Y-86856286D01*
X97598907Y-86735333D01*
X97623097Y-86638571D01*
X97647288Y-86590190D01*
X97671478Y-86566000D01*
X97719859Y-86541810D01*
D10*
X114208334Y-54887381D02*
X113875000Y-54411190D01*
X113636905Y-54887381D02*
X113636905Y-53887381D01*
X114017858Y-53887381D01*
X114113096Y-53935000D01*
X114160715Y-53982619D01*
X114208334Y-54077857D01*
X114208334Y-54220714D01*
X114160715Y-54315952D01*
X114113096Y-54363571D01*
X114017858Y-54411190D01*
X113636905Y-54411190D01*
X115160715Y-54887381D02*
X114589286Y-54887381D01*
X114875000Y-54887381D02*
X114875000Y-53887381D01*
X114779762Y-54030238D01*
X114684524Y-54125476D01*
X114589286Y-54173095D01*
X48787381Y-127626666D02*
X48311190Y-127960000D01*
X48787381Y-128198095D02*
X47787381Y-128198095D01*
X47787381Y-127817142D01*
X47835000Y-127721904D01*
X47882619Y-127674285D01*
X47977857Y-127626666D01*
X48120714Y-127626666D01*
X48215952Y-127674285D01*
X48263571Y-127721904D01*
X48311190Y-127817142D01*
X48311190Y-128198095D01*
X47882619Y-127245714D02*
X47835000Y-127198095D01*
X47787381Y-127102857D01*
X47787381Y-126864761D01*
X47835000Y-126769523D01*
X47882619Y-126721904D01*
X47977857Y-126674285D01*
X48073095Y-126674285D01*
X48215952Y-126721904D01*
X48787381Y-127293333D01*
X48787381Y-126674285D01*
X47517381Y-127626666D02*
X47041190Y-127960000D01*
X47517381Y-128198095D02*
X46517381Y-128198095D01*
X46517381Y-127817142D01*
X46565000Y-127721904D01*
X46612619Y-127674285D01*
X46707857Y-127626666D01*
X46850714Y-127626666D01*
X46945952Y-127674285D01*
X46993571Y-127721904D01*
X47041190Y-127817142D01*
X47041190Y-128198095D01*
X46517381Y-127293333D02*
X46517381Y-126674285D01*
X46898333Y-127007619D01*
X46898333Y-126864761D01*
X46945952Y-126769523D01*
X46993571Y-126721904D01*
X47088810Y-126674285D01*
X47326905Y-126674285D01*
X47422143Y-126721904D01*
X47469762Y-126769523D01*
X47517381Y-126864761D01*
X47517381Y-127150476D01*
X47469762Y-127245714D01*
X47422143Y-127293333D01*
X55137381Y-127626666D02*
X54661190Y-127960000D01*
X55137381Y-128198095D02*
X54137381Y-128198095D01*
X54137381Y-127817142D01*
X54185000Y-127721904D01*
X54232619Y-127674285D01*
X54327857Y-127626666D01*
X54470714Y-127626666D01*
X54565952Y-127674285D01*
X54613571Y-127721904D01*
X54661190Y-127817142D01*
X54661190Y-128198095D01*
X54470714Y-126769523D02*
X55137381Y-126769523D01*
X54089762Y-127007619D02*
X54804048Y-127245714D01*
X54804048Y-126626666D01*
X56407381Y-127626666D02*
X55931190Y-127960000D01*
X56407381Y-128198095D02*
X55407381Y-128198095D01*
X55407381Y-127817142D01*
X55455000Y-127721904D01*
X55502619Y-127674285D01*
X55597857Y-127626666D01*
X55740714Y-127626666D01*
X55835952Y-127674285D01*
X55883571Y-127721904D01*
X55931190Y-127817142D01*
X55931190Y-128198095D01*
X55407381Y-126721904D02*
X55407381Y-127198095D01*
X55883571Y-127245714D01*
X55835952Y-127198095D01*
X55788333Y-127102857D01*
X55788333Y-126864761D01*
X55835952Y-126769523D01*
X55883571Y-126721904D01*
X55978810Y-126674285D01*
X56216905Y-126674285D01*
X56312143Y-126721904D01*
X56359762Y-126769523D01*
X56407381Y-126864761D01*
X56407381Y-127102857D01*
X56359762Y-127198095D01*
X56312143Y-127245714D01*
X51327381Y-127626666D02*
X50851190Y-127960000D01*
X51327381Y-128198095D02*
X50327381Y-128198095D01*
X50327381Y-127817142D01*
X50375000Y-127721904D01*
X50422619Y-127674285D01*
X50517857Y-127626666D01*
X50660714Y-127626666D01*
X50755952Y-127674285D01*
X50803571Y-127721904D01*
X50851190Y-127817142D01*
X50851190Y-128198095D01*
X50327381Y-126769523D02*
X50327381Y-126960000D01*
X50375000Y-127055238D01*
X50422619Y-127102857D01*
X50565476Y-127198095D01*
X50755952Y-127245714D01*
X51136905Y-127245714D01*
X51232143Y-127198095D01*
X51279762Y-127150476D01*
X51327381Y-127055238D01*
X51327381Y-126864761D01*
X51279762Y-126769523D01*
X51232143Y-126721904D01*
X51136905Y-126674285D01*
X50898810Y-126674285D01*
X50803571Y-126721904D01*
X50755952Y-126769523D01*
X50708333Y-126864761D01*
X50708333Y-127055238D01*
X50755952Y-127150476D01*
X50803571Y-127198095D01*
X50898810Y-127245714D01*
X53867381Y-127626666D02*
X53391190Y-127960000D01*
X53867381Y-128198095D02*
X52867381Y-128198095D01*
X52867381Y-127817142D01*
X52915000Y-127721904D01*
X52962619Y-127674285D01*
X53057857Y-127626666D01*
X53200714Y-127626666D01*
X53295952Y-127674285D01*
X53343571Y-127721904D01*
X53391190Y-127817142D01*
X53391190Y-128198095D01*
X52867381Y-127293333D02*
X52867381Y-126626666D01*
X53867381Y-127055238D01*
X52597381Y-127626666D02*
X52121190Y-127960000D01*
X52597381Y-128198095D02*
X51597381Y-128198095D01*
X51597381Y-127817142D01*
X51645000Y-127721904D01*
X51692619Y-127674285D01*
X51787857Y-127626666D01*
X51930714Y-127626666D01*
X52025952Y-127674285D01*
X52073571Y-127721904D01*
X52121190Y-127817142D01*
X52121190Y-128198095D01*
X52025952Y-127055238D02*
X51978333Y-127150476D01*
X51930714Y-127198095D01*
X51835476Y-127245714D01*
X51787857Y-127245714D01*
X51692619Y-127198095D01*
X51645000Y-127150476D01*
X51597381Y-127055238D01*
X51597381Y-126864761D01*
X51645000Y-126769523D01*
X51692619Y-126721904D01*
X51787857Y-126674285D01*
X51835476Y-126674285D01*
X51930714Y-126721904D01*
X51978333Y-126769523D01*
X52025952Y-126864761D01*
X52025952Y-127055238D01*
X52073571Y-127150476D01*
X52121190Y-127198095D01*
X52216429Y-127245714D01*
X52406905Y-127245714D01*
X52502143Y-127198095D01*
X52549762Y-127150476D01*
X52597381Y-127055238D01*
X52597381Y-126864761D01*
X52549762Y-126769523D01*
X52502143Y-126721904D01*
X52406905Y-126674285D01*
X52216429Y-126674285D01*
X52121190Y-126721904D01*
X52073571Y-126769523D01*
X52025952Y-126864761D01*
X50057381Y-127626666D02*
X49581190Y-127960000D01*
X50057381Y-128198095D02*
X49057381Y-128198095D01*
X49057381Y-127817142D01*
X49105000Y-127721904D01*
X49152619Y-127674285D01*
X49247857Y-127626666D01*
X49390714Y-127626666D01*
X49485952Y-127674285D01*
X49533571Y-127721904D01*
X49581190Y-127817142D01*
X49581190Y-128198095D01*
X50057381Y-127150476D02*
X50057381Y-126960000D01*
X50009762Y-126864761D01*
X49962143Y-126817142D01*
X49819286Y-126721904D01*
X49628810Y-126674285D01*
X49247857Y-126674285D01*
X49152619Y-126721904D01*
X49105000Y-126769523D01*
X49057381Y-126864761D01*
X49057381Y-127055238D01*
X49105000Y-127150476D01*
X49152619Y-127198095D01*
X49247857Y-127245714D01*
X49485952Y-127245714D01*
X49581190Y-127198095D01*
X49628810Y-127150476D01*
X49676429Y-127055238D01*
X49676429Y-126864761D01*
X49628810Y-126769523D01*
X49581190Y-126721904D01*
X49485952Y-126674285D01*
X68472381Y-118577857D02*
X67996190Y-118911191D01*
X68472381Y-119149286D02*
X67472381Y-119149286D01*
X67472381Y-118768333D01*
X67520000Y-118673095D01*
X67567619Y-118625476D01*
X67662857Y-118577857D01*
X67805714Y-118577857D01*
X67900952Y-118625476D01*
X67948571Y-118673095D01*
X67996190Y-118768333D01*
X67996190Y-119149286D01*
X68472381Y-117625476D02*
X68472381Y-118196905D01*
X68472381Y-117911191D02*
X67472381Y-117911191D01*
X67615238Y-118006429D01*
X67710476Y-118101667D01*
X67758095Y-118196905D01*
X68472381Y-116673095D02*
X68472381Y-117244524D01*
X68472381Y-116958810D02*
X67472381Y-116958810D01*
X67615238Y-117054048D01*
X67710476Y-117149286D01*
X67758095Y-117244524D01*
X92777143Y-99972381D02*
X92443809Y-99496190D01*
X92205714Y-99972381D02*
X92205714Y-98972381D01*
X92586667Y-98972381D01*
X92681905Y-99020000D01*
X92729524Y-99067619D01*
X92777143Y-99162857D01*
X92777143Y-99305714D01*
X92729524Y-99400952D01*
X92681905Y-99448571D01*
X92586667Y-99496190D01*
X92205714Y-99496190D01*
X93729524Y-99972381D02*
X93158095Y-99972381D01*
X93443809Y-99972381D02*
X93443809Y-98972381D01*
X93348571Y-99115238D01*
X93253333Y-99210476D01*
X93158095Y-99258095D01*
X94110476Y-99067619D02*
X94158095Y-99020000D01*
X94253333Y-98972381D01*
X94491429Y-98972381D01*
X94586667Y-99020000D01*
X94634286Y-99067619D01*
X94681905Y-99162857D01*
X94681905Y-99258095D01*
X94634286Y-99400952D01*
X94062857Y-99972381D01*
X94681905Y-99972381D01*
X88332143Y-69492381D02*
X87998809Y-69016190D01*
X87760714Y-69492381D02*
X87760714Y-68492381D01*
X88141667Y-68492381D01*
X88236905Y-68540000D01*
X88284524Y-68587619D01*
X88332143Y-68682857D01*
X88332143Y-68825714D01*
X88284524Y-68920952D01*
X88236905Y-68968571D01*
X88141667Y-69016190D01*
X87760714Y-69016190D01*
X89284524Y-69492381D02*
X88713095Y-69492381D01*
X88998809Y-69492381D02*
X88998809Y-68492381D01*
X88903571Y-68635238D01*
X88808333Y-68730476D01*
X88713095Y-68778095D01*
X89617857Y-68492381D02*
X90236905Y-68492381D01*
X89903571Y-68873333D01*
X90046429Y-68873333D01*
X90141667Y-68920952D01*
X90189286Y-68968571D01*
X90236905Y-69063810D01*
X90236905Y-69301905D01*
X90189286Y-69397143D01*
X90141667Y-69444762D01*
X90046429Y-69492381D01*
X89760714Y-69492381D01*
X89665476Y-69444762D01*
X89617857Y-69397143D01*
X78807143Y-70127381D02*
X78473809Y-69651190D01*
X78235714Y-70127381D02*
X78235714Y-69127381D01*
X78616667Y-69127381D01*
X78711905Y-69175000D01*
X78759524Y-69222619D01*
X78807143Y-69317857D01*
X78807143Y-69460714D01*
X78759524Y-69555952D01*
X78711905Y-69603571D01*
X78616667Y-69651190D01*
X78235714Y-69651190D01*
X79759524Y-70127381D02*
X79188095Y-70127381D01*
X79473809Y-70127381D02*
X79473809Y-69127381D01*
X79378571Y-69270238D01*
X79283333Y-69365476D01*
X79188095Y-69413095D01*
X80616667Y-69460714D02*
X80616667Y-70127381D01*
X80378571Y-69079762D02*
X80140476Y-69794048D01*
X80759524Y-69794048D01*
X78807143Y-62507381D02*
X78473809Y-62031190D01*
X78235714Y-62507381D02*
X78235714Y-61507381D01*
X78616667Y-61507381D01*
X78711905Y-61555000D01*
X78759524Y-61602619D01*
X78807143Y-61697857D01*
X78807143Y-61840714D01*
X78759524Y-61935952D01*
X78711905Y-61983571D01*
X78616667Y-62031190D01*
X78235714Y-62031190D01*
X79759524Y-62507381D02*
X79188095Y-62507381D01*
X79473809Y-62507381D02*
X79473809Y-61507381D01*
X79378571Y-61650238D01*
X79283333Y-61745476D01*
X79188095Y-61793095D01*
X80664286Y-61507381D02*
X80188095Y-61507381D01*
X80140476Y-61983571D01*
X80188095Y-61935952D01*
X80283333Y-61888333D01*
X80521429Y-61888333D01*
X80616667Y-61935952D01*
X80664286Y-61983571D01*
X80711905Y-62078810D01*
X80711905Y-62316905D01*
X80664286Y-62412143D01*
X80616667Y-62459762D01*
X80521429Y-62507381D01*
X80283333Y-62507381D01*
X80188095Y-62459762D01*
X80140476Y-62412143D01*
X88332143Y-61237381D02*
X87998809Y-60761190D01*
X87760714Y-61237381D02*
X87760714Y-60237381D01*
X88141667Y-60237381D01*
X88236905Y-60285000D01*
X88284524Y-60332619D01*
X88332143Y-60427857D01*
X88332143Y-60570714D01*
X88284524Y-60665952D01*
X88236905Y-60713571D01*
X88141667Y-60761190D01*
X87760714Y-60761190D01*
X89284524Y-61237381D02*
X88713095Y-61237381D01*
X88998809Y-61237381D02*
X88998809Y-60237381D01*
X88903571Y-60380238D01*
X88808333Y-60475476D01*
X88713095Y-60523095D01*
X90141667Y-60237381D02*
X89951190Y-60237381D01*
X89855952Y-60285000D01*
X89808333Y-60332619D01*
X89713095Y-60475476D01*
X89665476Y-60665952D01*
X89665476Y-61046905D01*
X89713095Y-61142143D01*
X89760714Y-61189762D01*
X89855952Y-61237381D01*
X90046429Y-61237381D01*
X90141667Y-61189762D01*
X90189286Y-61142143D01*
X90236905Y-61046905D01*
X90236905Y-60808810D01*
X90189286Y-60713571D01*
X90141667Y-60665952D01*
X90046429Y-60618333D01*
X89855952Y-60618333D01*
X89760714Y-60665952D01*
X89713095Y-60713571D01*
X89665476Y-60808810D01*
X88332143Y-65682381D02*
X87998809Y-65206190D01*
X87760714Y-65682381D02*
X87760714Y-64682381D01*
X88141667Y-64682381D01*
X88236905Y-64730000D01*
X88284524Y-64777619D01*
X88332143Y-64872857D01*
X88332143Y-65015714D01*
X88284524Y-65110952D01*
X88236905Y-65158571D01*
X88141667Y-65206190D01*
X87760714Y-65206190D01*
X89284524Y-65682381D02*
X88713095Y-65682381D01*
X88998809Y-65682381D02*
X88998809Y-64682381D01*
X88903571Y-64825238D01*
X88808333Y-64920476D01*
X88713095Y-64968095D01*
X89617857Y-64682381D02*
X90284524Y-64682381D01*
X89855952Y-65682381D01*
X88332143Y-63777381D02*
X87998809Y-63301190D01*
X87760714Y-63777381D02*
X87760714Y-62777381D01*
X88141667Y-62777381D01*
X88236905Y-62825000D01*
X88284524Y-62872619D01*
X88332143Y-62967857D01*
X88332143Y-63110714D01*
X88284524Y-63205952D01*
X88236905Y-63253571D01*
X88141667Y-63301190D01*
X87760714Y-63301190D01*
X89284524Y-63777381D02*
X88713095Y-63777381D01*
X88998809Y-63777381D02*
X88998809Y-62777381D01*
X88903571Y-62920238D01*
X88808333Y-63015476D01*
X88713095Y-63063095D01*
X89855952Y-63205952D02*
X89760714Y-63158333D01*
X89713095Y-63110714D01*
X89665476Y-63015476D01*
X89665476Y-62967857D01*
X89713095Y-62872619D01*
X89760714Y-62825000D01*
X89855952Y-62777381D01*
X90046429Y-62777381D01*
X90141667Y-62825000D01*
X90189286Y-62872619D01*
X90236905Y-62967857D01*
X90236905Y-63015476D01*
X90189286Y-63110714D01*
X90141667Y-63158333D01*
X90046429Y-63205952D01*
X89855952Y-63205952D01*
X89760714Y-63253571D01*
X89713095Y-63301190D01*
X89665476Y-63396429D01*
X89665476Y-63586905D01*
X89713095Y-63682143D01*
X89760714Y-63729762D01*
X89855952Y-63777381D01*
X90046429Y-63777381D01*
X90141667Y-63729762D01*
X90189286Y-63682143D01*
X90236905Y-63586905D01*
X90236905Y-63396429D01*
X90189286Y-63301190D01*
X90141667Y-63253571D01*
X90046429Y-63205952D01*
X78807143Y-65047381D02*
X78473809Y-64571190D01*
X78235714Y-65047381D02*
X78235714Y-64047381D01*
X78616667Y-64047381D01*
X78711905Y-64095000D01*
X78759524Y-64142619D01*
X78807143Y-64237857D01*
X78807143Y-64380714D01*
X78759524Y-64475952D01*
X78711905Y-64523571D01*
X78616667Y-64571190D01*
X78235714Y-64571190D01*
X79759524Y-65047381D02*
X79188095Y-65047381D01*
X79473809Y-65047381D02*
X79473809Y-64047381D01*
X79378571Y-64190238D01*
X79283333Y-64285476D01*
X79188095Y-64333095D01*
X80235714Y-65047381D02*
X80426190Y-65047381D01*
X80521429Y-64999762D01*
X80569048Y-64952143D01*
X80664286Y-64809286D01*
X80711905Y-64618810D01*
X80711905Y-64237857D01*
X80664286Y-64142619D01*
X80616667Y-64095000D01*
X80521429Y-64047381D01*
X80330952Y-64047381D01*
X80235714Y-64095000D01*
X80188095Y-64142619D01*
X80140476Y-64237857D01*
X80140476Y-64475952D01*
X80188095Y-64571190D01*
X80235714Y-64618810D01*
X80330952Y-64666429D01*
X80521429Y-64666429D01*
X80616667Y-64618810D01*
X80664286Y-64571190D01*
X80711905Y-64475952D01*
X78807143Y-67587381D02*
X78473809Y-67111190D01*
X78235714Y-67587381D02*
X78235714Y-66587381D01*
X78616667Y-66587381D01*
X78711905Y-66635000D01*
X78759524Y-66682619D01*
X78807143Y-66777857D01*
X78807143Y-66920714D01*
X78759524Y-67015952D01*
X78711905Y-67063571D01*
X78616667Y-67111190D01*
X78235714Y-67111190D01*
X79188095Y-66682619D02*
X79235714Y-66635000D01*
X79330952Y-66587381D01*
X79569048Y-66587381D01*
X79664286Y-66635000D01*
X79711905Y-66682619D01*
X79759524Y-66777857D01*
X79759524Y-66873095D01*
X79711905Y-67015952D01*
X79140476Y-67587381D01*
X79759524Y-67587381D01*
X80378571Y-66587381D02*
X80473810Y-66587381D01*
X80569048Y-66635000D01*
X80616667Y-66682619D01*
X80664286Y-66777857D01*
X80711905Y-66968333D01*
X80711905Y-67206429D01*
X80664286Y-67396905D01*
X80616667Y-67492143D01*
X80569048Y-67539762D01*
X80473810Y-67587381D01*
X80378571Y-67587381D01*
X80283333Y-67539762D01*
X80235714Y-67492143D01*
X80188095Y-67396905D01*
X80140476Y-67206429D01*
X80140476Y-66968333D01*
X80188095Y-66777857D01*
X80235714Y-66682619D01*
X80283333Y-66635000D01*
X80378571Y-66587381D01*
X114367143Y-60602381D02*
X114033809Y-60126190D01*
X113795714Y-60602381D02*
X113795714Y-59602381D01*
X114176667Y-59602381D01*
X114271905Y-59650000D01*
X114319524Y-59697619D01*
X114367143Y-59792857D01*
X114367143Y-59935714D01*
X114319524Y-60030952D01*
X114271905Y-60078571D01*
X114176667Y-60126190D01*
X113795714Y-60126190D01*
X114748095Y-59697619D02*
X114795714Y-59650000D01*
X114890952Y-59602381D01*
X115129048Y-59602381D01*
X115224286Y-59650000D01*
X115271905Y-59697619D01*
X115319524Y-59792857D01*
X115319524Y-59888095D01*
X115271905Y-60030952D01*
X114700476Y-60602381D01*
X115319524Y-60602381D01*
X115700476Y-59697619D02*
X115748095Y-59650000D01*
X115843333Y-59602381D01*
X116081429Y-59602381D01*
X116176667Y-59650000D01*
X116224286Y-59697619D01*
X116271905Y-59792857D01*
X116271905Y-59888095D01*
X116224286Y-60030952D01*
X115652857Y-60602381D01*
X116271905Y-60602381D01*
X114367143Y-58697381D02*
X114033809Y-58221190D01*
X113795714Y-58697381D02*
X113795714Y-57697381D01*
X114176667Y-57697381D01*
X114271905Y-57745000D01*
X114319524Y-57792619D01*
X114367143Y-57887857D01*
X114367143Y-58030714D01*
X114319524Y-58125952D01*
X114271905Y-58173571D01*
X114176667Y-58221190D01*
X113795714Y-58221190D01*
X114748095Y-57792619D02*
X114795714Y-57745000D01*
X114890952Y-57697381D01*
X115129048Y-57697381D01*
X115224286Y-57745000D01*
X115271905Y-57792619D01*
X115319524Y-57887857D01*
X115319524Y-57983095D01*
X115271905Y-58125952D01*
X114700476Y-58697381D01*
X115319524Y-58697381D01*
X115652857Y-57697381D02*
X116271905Y-57697381D01*
X115938571Y-58078333D01*
X116081429Y-58078333D01*
X116176667Y-58125952D01*
X116224286Y-58173571D01*
X116271905Y-58268810D01*
X116271905Y-58506905D01*
X116224286Y-58602143D01*
X116176667Y-58649762D01*
X116081429Y-58697381D01*
X115795714Y-58697381D01*
X115700476Y-58649762D01*
X115652857Y-58602143D01*
X105477143Y-55522381D02*
X105143809Y-55046190D01*
X104905714Y-55522381D02*
X104905714Y-54522381D01*
X105286667Y-54522381D01*
X105381905Y-54570000D01*
X105429524Y-54617619D01*
X105477143Y-54712857D01*
X105477143Y-54855714D01*
X105429524Y-54950952D01*
X105381905Y-54998571D01*
X105286667Y-55046190D01*
X104905714Y-55046190D01*
X105858095Y-54617619D02*
X105905714Y-54570000D01*
X106000952Y-54522381D01*
X106239048Y-54522381D01*
X106334286Y-54570000D01*
X106381905Y-54617619D01*
X106429524Y-54712857D01*
X106429524Y-54808095D01*
X106381905Y-54950952D01*
X105810476Y-55522381D01*
X106429524Y-55522381D01*
X107286667Y-54855714D02*
X107286667Y-55522381D01*
X107048571Y-54474762D02*
X106810476Y-55189048D01*
X107429524Y-55189048D01*
X98952381Y-51267857D02*
X98476190Y-51601191D01*
X98952381Y-51839286D02*
X97952381Y-51839286D01*
X97952381Y-51458333D01*
X98000000Y-51363095D01*
X98047619Y-51315476D01*
X98142857Y-51267857D01*
X98285714Y-51267857D01*
X98380952Y-51315476D01*
X98428571Y-51363095D01*
X98476190Y-51458333D01*
X98476190Y-51839286D01*
X98047619Y-50886905D02*
X98000000Y-50839286D01*
X97952381Y-50744048D01*
X97952381Y-50505952D01*
X98000000Y-50410714D01*
X98047619Y-50363095D01*
X98142857Y-50315476D01*
X98238095Y-50315476D01*
X98380952Y-50363095D01*
X98952381Y-50934524D01*
X98952381Y-50315476D01*
X97952381Y-49410714D02*
X97952381Y-49886905D01*
X98428571Y-49934524D01*
X98380952Y-49886905D01*
X98333333Y-49791667D01*
X98333333Y-49553571D01*
X98380952Y-49458333D01*
X98428571Y-49410714D01*
X98523810Y-49363095D01*
X98761905Y-49363095D01*
X98857143Y-49410714D01*
X98904762Y-49458333D01*
X98952381Y-49553571D01*
X98952381Y-49791667D01*
X98904762Y-49886905D01*
X98857143Y-49934524D01*
X97047381Y-51267857D02*
X96571190Y-51601191D01*
X97047381Y-51839286D02*
X96047381Y-51839286D01*
X96047381Y-51458333D01*
X96095000Y-51363095D01*
X96142619Y-51315476D01*
X96237857Y-51267857D01*
X96380714Y-51267857D01*
X96475952Y-51315476D01*
X96523571Y-51363095D01*
X96571190Y-51458333D01*
X96571190Y-51839286D01*
X96142619Y-50886905D02*
X96095000Y-50839286D01*
X96047381Y-50744048D01*
X96047381Y-50505952D01*
X96095000Y-50410714D01*
X96142619Y-50363095D01*
X96237857Y-50315476D01*
X96333095Y-50315476D01*
X96475952Y-50363095D01*
X97047381Y-50934524D01*
X97047381Y-50315476D01*
X96047381Y-49458333D02*
X96047381Y-49648810D01*
X96095000Y-49744048D01*
X96142619Y-49791667D01*
X96285476Y-49886905D01*
X96475952Y-49934524D01*
X96856905Y-49934524D01*
X96952143Y-49886905D01*
X96999762Y-49839286D01*
X97047381Y-49744048D01*
X97047381Y-49553571D01*
X96999762Y-49458333D01*
X96952143Y-49410714D01*
X96856905Y-49363095D01*
X96618810Y-49363095D01*
X96523571Y-49410714D01*
X96475952Y-49458333D01*
X96428333Y-49553571D01*
X96428333Y-49744048D01*
X96475952Y-49839286D01*
X96523571Y-49886905D01*
X96618810Y-49934524D01*
X95142381Y-51267857D02*
X94666190Y-51601191D01*
X95142381Y-51839286D02*
X94142381Y-51839286D01*
X94142381Y-51458333D01*
X94190000Y-51363095D01*
X94237619Y-51315476D01*
X94332857Y-51267857D01*
X94475714Y-51267857D01*
X94570952Y-51315476D01*
X94618571Y-51363095D01*
X94666190Y-51458333D01*
X94666190Y-51839286D01*
X94237619Y-50886905D02*
X94190000Y-50839286D01*
X94142381Y-50744048D01*
X94142381Y-50505952D01*
X94190000Y-50410714D01*
X94237619Y-50363095D01*
X94332857Y-50315476D01*
X94428095Y-50315476D01*
X94570952Y-50363095D01*
X95142381Y-50934524D01*
X95142381Y-50315476D01*
X94142381Y-49982143D02*
X94142381Y-49315476D01*
X95142381Y-49744048D01*
X88332143Y-92987381D02*
X87998809Y-92511190D01*
X87760714Y-92987381D02*
X87760714Y-91987381D01*
X88141667Y-91987381D01*
X88236905Y-92035000D01*
X88284524Y-92082619D01*
X88332143Y-92177857D01*
X88332143Y-92320714D01*
X88284524Y-92415952D01*
X88236905Y-92463571D01*
X88141667Y-92511190D01*
X87760714Y-92511190D01*
X88713095Y-92082619D02*
X88760714Y-92035000D01*
X88855952Y-91987381D01*
X89094048Y-91987381D01*
X89189286Y-92035000D01*
X89236905Y-92082619D01*
X89284524Y-92177857D01*
X89284524Y-92273095D01*
X89236905Y-92415952D01*
X88665476Y-92987381D01*
X89284524Y-92987381D01*
X89760714Y-92987381D02*
X89951190Y-92987381D01*
X90046429Y-92939762D01*
X90094048Y-92892143D01*
X90189286Y-92749286D01*
X90236905Y-92558810D01*
X90236905Y-92177857D01*
X90189286Y-92082619D01*
X90141667Y-92035000D01*
X90046429Y-91987381D01*
X89855952Y-91987381D01*
X89760714Y-92035000D01*
X89713095Y-92082619D01*
X89665476Y-92177857D01*
X89665476Y-92415952D01*
X89713095Y-92511190D01*
X89760714Y-92558810D01*
X89855952Y-92606429D01*
X90046429Y-92606429D01*
X90141667Y-92558810D01*
X90189286Y-92511190D01*
X90236905Y-92415952D01*
X88332143Y-94257381D02*
X87998809Y-93781190D01*
X87760714Y-94257381D02*
X87760714Y-93257381D01*
X88141667Y-93257381D01*
X88236905Y-93305000D01*
X88284524Y-93352619D01*
X88332143Y-93447857D01*
X88332143Y-93590714D01*
X88284524Y-93685952D01*
X88236905Y-93733571D01*
X88141667Y-93781190D01*
X87760714Y-93781190D01*
X88665476Y-93257381D02*
X89284524Y-93257381D01*
X88951190Y-93638333D01*
X89094048Y-93638333D01*
X89189286Y-93685952D01*
X89236905Y-93733571D01*
X89284524Y-93828810D01*
X89284524Y-94066905D01*
X89236905Y-94162143D01*
X89189286Y-94209762D01*
X89094048Y-94257381D01*
X88808333Y-94257381D01*
X88713095Y-94209762D01*
X88665476Y-94162143D01*
X89903571Y-93257381D02*
X89998810Y-93257381D01*
X90094048Y-93305000D01*
X90141667Y-93352619D01*
X90189286Y-93447857D01*
X90236905Y-93638333D01*
X90236905Y-93876429D01*
X90189286Y-94066905D01*
X90141667Y-94162143D01*
X90094048Y-94209762D01*
X89998810Y-94257381D01*
X89903571Y-94257381D01*
X89808333Y-94209762D01*
X89760714Y-94162143D01*
X89713095Y-94066905D01*
X89665476Y-93876429D01*
X89665476Y-93638333D01*
X89713095Y-93447857D01*
X89760714Y-93352619D01*
X89808333Y-93305000D01*
X89903571Y-93257381D01*
X88332143Y-86637381D02*
X87998809Y-86161190D01*
X87760714Y-86637381D02*
X87760714Y-85637381D01*
X88141667Y-85637381D01*
X88236905Y-85685000D01*
X88284524Y-85732619D01*
X88332143Y-85827857D01*
X88332143Y-85970714D01*
X88284524Y-86065952D01*
X88236905Y-86113571D01*
X88141667Y-86161190D01*
X87760714Y-86161190D01*
X88665476Y-85637381D02*
X89284524Y-85637381D01*
X88951190Y-86018333D01*
X89094048Y-86018333D01*
X89189286Y-86065952D01*
X89236905Y-86113571D01*
X89284524Y-86208810D01*
X89284524Y-86446905D01*
X89236905Y-86542143D01*
X89189286Y-86589762D01*
X89094048Y-86637381D01*
X88808333Y-86637381D01*
X88713095Y-86589762D01*
X88665476Y-86542143D01*
X90236905Y-86637381D02*
X89665476Y-86637381D01*
X89951190Y-86637381D02*
X89951190Y-85637381D01*
X89855952Y-85780238D01*
X89760714Y-85875476D01*
X89665476Y-85923095D01*
X88332143Y-85367381D02*
X87998809Y-84891190D01*
X87760714Y-85367381D02*
X87760714Y-84367381D01*
X88141667Y-84367381D01*
X88236905Y-84415000D01*
X88284524Y-84462619D01*
X88332143Y-84557857D01*
X88332143Y-84700714D01*
X88284524Y-84795952D01*
X88236905Y-84843571D01*
X88141667Y-84891190D01*
X87760714Y-84891190D01*
X88665476Y-84367381D02*
X89284524Y-84367381D01*
X88951190Y-84748333D01*
X89094048Y-84748333D01*
X89189286Y-84795952D01*
X89236905Y-84843571D01*
X89284524Y-84938810D01*
X89284524Y-85176905D01*
X89236905Y-85272143D01*
X89189286Y-85319762D01*
X89094048Y-85367381D01*
X88808333Y-85367381D01*
X88713095Y-85319762D01*
X88665476Y-85272143D01*
X89665476Y-84462619D02*
X89713095Y-84415000D01*
X89808333Y-84367381D01*
X90046429Y-84367381D01*
X90141667Y-84415000D01*
X90189286Y-84462619D01*
X90236905Y-84557857D01*
X90236905Y-84653095D01*
X90189286Y-84795952D01*
X89617857Y-85367381D01*
X90236905Y-85367381D01*
X88332143Y-90447381D02*
X87998809Y-89971190D01*
X87760714Y-90447381D02*
X87760714Y-89447381D01*
X88141667Y-89447381D01*
X88236905Y-89495000D01*
X88284524Y-89542619D01*
X88332143Y-89637857D01*
X88332143Y-89780714D01*
X88284524Y-89875952D01*
X88236905Y-89923571D01*
X88141667Y-89971190D01*
X87760714Y-89971190D01*
X88665476Y-89447381D02*
X89284524Y-89447381D01*
X88951190Y-89828333D01*
X89094048Y-89828333D01*
X89189286Y-89875952D01*
X89236905Y-89923571D01*
X89284524Y-90018810D01*
X89284524Y-90256905D01*
X89236905Y-90352143D01*
X89189286Y-90399762D01*
X89094048Y-90447381D01*
X88808333Y-90447381D01*
X88713095Y-90399762D01*
X88665476Y-90352143D01*
X89617857Y-89447381D02*
X90236905Y-89447381D01*
X89903571Y-89828333D01*
X90046429Y-89828333D01*
X90141667Y-89875952D01*
X90189286Y-89923571D01*
X90236905Y-90018810D01*
X90236905Y-90256905D01*
X90189286Y-90352143D01*
X90141667Y-90399762D01*
X90046429Y-90447381D01*
X89760714Y-90447381D01*
X89665476Y-90399762D01*
X89617857Y-90352143D01*
X88332143Y-87907381D02*
X87998809Y-87431190D01*
X87760714Y-87907381D02*
X87760714Y-86907381D01*
X88141667Y-86907381D01*
X88236905Y-86955000D01*
X88284524Y-87002619D01*
X88332143Y-87097857D01*
X88332143Y-87240714D01*
X88284524Y-87335952D01*
X88236905Y-87383571D01*
X88141667Y-87431190D01*
X87760714Y-87431190D01*
X88665476Y-86907381D02*
X89284524Y-86907381D01*
X88951190Y-87288333D01*
X89094048Y-87288333D01*
X89189286Y-87335952D01*
X89236905Y-87383571D01*
X89284524Y-87478810D01*
X89284524Y-87716905D01*
X89236905Y-87812143D01*
X89189286Y-87859762D01*
X89094048Y-87907381D01*
X88808333Y-87907381D01*
X88713095Y-87859762D01*
X88665476Y-87812143D01*
X90141667Y-87240714D02*
X90141667Y-87907381D01*
X89903571Y-86859762D02*
X89665476Y-87574048D01*
X90284524Y-87574048D01*
X88332143Y-89177381D02*
X87998809Y-88701190D01*
X87760714Y-89177381D02*
X87760714Y-88177381D01*
X88141667Y-88177381D01*
X88236905Y-88225000D01*
X88284524Y-88272619D01*
X88332143Y-88367857D01*
X88332143Y-88510714D01*
X88284524Y-88605952D01*
X88236905Y-88653571D01*
X88141667Y-88701190D01*
X87760714Y-88701190D01*
X88665476Y-88177381D02*
X89284524Y-88177381D01*
X88951190Y-88558333D01*
X89094048Y-88558333D01*
X89189286Y-88605952D01*
X89236905Y-88653571D01*
X89284524Y-88748810D01*
X89284524Y-88986905D01*
X89236905Y-89082143D01*
X89189286Y-89129762D01*
X89094048Y-89177381D01*
X88808333Y-89177381D01*
X88713095Y-89129762D01*
X88665476Y-89082143D01*
X90189286Y-88177381D02*
X89713095Y-88177381D01*
X89665476Y-88653571D01*
X89713095Y-88605952D01*
X89808333Y-88558333D01*
X90046429Y-88558333D01*
X90141667Y-88605952D01*
X90189286Y-88653571D01*
X90236905Y-88748810D01*
X90236905Y-88986905D01*
X90189286Y-89082143D01*
X90141667Y-89129762D01*
X90046429Y-89177381D01*
X89808333Y-89177381D01*
X89713095Y-89129762D01*
X89665476Y-89082143D01*
X88332143Y-91717381D02*
X87998809Y-91241190D01*
X87760714Y-91717381D02*
X87760714Y-90717381D01*
X88141667Y-90717381D01*
X88236905Y-90765000D01*
X88284524Y-90812619D01*
X88332143Y-90907857D01*
X88332143Y-91050714D01*
X88284524Y-91145952D01*
X88236905Y-91193571D01*
X88141667Y-91241190D01*
X87760714Y-91241190D01*
X88665476Y-90717381D02*
X89284524Y-90717381D01*
X88951190Y-91098333D01*
X89094048Y-91098333D01*
X89189286Y-91145952D01*
X89236905Y-91193571D01*
X89284524Y-91288810D01*
X89284524Y-91526905D01*
X89236905Y-91622143D01*
X89189286Y-91669762D01*
X89094048Y-91717381D01*
X88808333Y-91717381D01*
X88713095Y-91669762D01*
X88665476Y-91622143D01*
X90141667Y-90717381D02*
X89951190Y-90717381D01*
X89855952Y-90765000D01*
X89808333Y-90812619D01*
X89713095Y-90955476D01*
X89665476Y-91145952D01*
X89665476Y-91526905D01*
X89713095Y-91622143D01*
X89760714Y-91669762D01*
X89855952Y-91717381D01*
X90046429Y-91717381D01*
X90141667Y-91669762D01*
X90189286Y-91622143D01*
X90236905Y-91526905D01*
X90236905Y-91288810D01*
X90189286Y-91193571D01*
X90141667Y-91145952D01*
X90046429Y-91098333D01*
X89855952Y-91098333D01*
X89760714Y-91145952D01*
X89713095Y-91193571D01*
X89665476Y-91288810D01*
X90237143Y-110132381D02*
X89903809Y-109656190D01*
X89665714Y-110132381D02*
X89665714Y-109132381D01*
X90046667Y-109132381D01*
X90141905Y-109180000D01*
X90189524Y-109227619D01*
X90237143Y-109322857D01*
X90237143Y-109465714D01*
X90189524Y-109560952D01*
X90141905Y-109608571D01*
X90046667Y-109656190D01*
X89665714Y-109656190D01*
X90570476Y-109132381D02*
X91189524Y-109132381D01*
X90856190Y-109513333D01*
X90999048Y-109513333D01*
X91094286Y-109560952D01*
X91141905Y-109608571D01*
X91189524Y-109703810D01*
X91189524Y-109941905D01*
X91141905Y-110037143D01*
X91094286Y-110084762D01*
X90999048Y-110132381D01*
X90713333Y-110132381D01*
X90618095Y-110084762D01*
X90570476Y-110037143D01*
X91522857Y-109132381D02*
X92189524Y-109132381D01*
X91760952Y-110132381D01*
X90237143Y-106322381D02*
X89903809Y-105846190D01*
X89665714Y-106322381D02*
X89665714Y-105322381D01*
X90046667Y-105322381D01*
X90141905Y-105370000D01*
X90189524Y-105417619D01*
X90237143Y-105512857D01*
X90237143Y-105655714D01*
X90189524Y-105750952D01*
X90141905Y-105798571D01*
X90046667Y-105846190D01*
X89665714Y-105846190D01*
X90570476Y-105322381D02*
X91189524Y-105322381D01*
X90856190Y-105703333D01*
X90999048Y-105703333D01*
X91094286Y-105750952D01*
X91141905Y-105798571D01*
X91189524Y-105893810D01*
X91189524Y-106131905D01*
X91141905Y-106227143D01*
X91094286Y-106274762D01*
X90999048Y-106322381D01*
X90713333Y-106322381D01*
X90618095Y-106274762D01*
X90570476Y-106227143D01*
X91760952Y-105750952D02*
X91665714Y-105703333D01*
X91618095Y-105655714D01*
X91570476Y-105560476D01*
X91570476Y-105512857D01*
X91618095Y-105417619D01*
X91665714Y-105370000D01*
X91760952Y-105322381D01*
X91951429Y-105322381D01*
X92046667Y-105370000D01*
X92094286Y-105417619D01*
X92141905Y-105512857D01*
X92141905Y-105560476D01*
X92094286Y-105655714D01*
X92046667Y-105703333D01*
X91951429Y-105750952D01*
X91760952Y-105750952D01*
X91665714Y-105798571D01*
X91618095Y-105846190D01*
X91570476Y-105941429D01*
X91570476Y-106131905D01*
X91618095Y-106227143D01*
X91665714Y-106274762D01*
X91760952Y-106322381D01*
X91951429Y-106322381D01*
X92046667Y-106274762D01*
X92094286Y-106227143D01*
X92141905Y-106131905D01*
X92141905Y-105941429D01*
X92094286Y-105846190D01*
X92046667Y-105798571D01*
X91951429Y-105750952D01*
X109112381Y-72222857D02*
X108636190Y-72556191D01*
X109112381Y-72794286D02*
X108112381Y-72794286D01*
X108112381Y-72413333D01*
X108160000Y-72318095D01*
X108207619Y-72270476D01*
X108302857Y-72222857D01*
X108445714Y-72222857D01*
X108540952Y-72270476D01*
X108588571Y-72318095D01*
X108636190Y-72413333D01*
X108636190Y-72794286D01*
X108445714Y-71365714D02*
X109112381Y-71365714D01*
X108064762Y-71603810D02*
X108779048Y-71841905D01*
X108779048Y-71222857D01*
X108112381Y-70651429D02*
X108112381Y-70556190D01*
X108160000Y-70460952D01*
X108207619Y-70413333D01*
X108302857Y-70365714D01*
X108493333Y-70318095D01*
X108731429Y-70318095D01*
X108921905Y-70365714D01*
X109017143Y-70413333D01*
X109064762Y-70460952D01*
X109112381Y-70556190D01*
X109112381Y-70651429D01*
X109064762Y-70746667D01*
X109017143Y-70794286D01*
X108921905Y-70841905D01*
X108731429Y-70889524D01*
X108493333Y-70889524D01*
X108302857Y-70841905D01*
X108207619Y-70794286D01*
X108160000Y-70746667D01*
X108112381Y-70651429D01*
X112922381Y-75397857D02*
X112446190Y-75731191D01*
X112922381Y-75969286D02*
X111922381Y-75969286D01*
X111922381Y-75588333D01*
X111970000Y-75493095D01*
X112017619Y-75445476D01*
X112112857Y-75397857D01*
X112255714Y-75397857D01*
X112350952Y-75445476D01*
X112398571Y-75493095D01*
X112446190Y-75588333D01*
X112446190Y-75969286D01*
X112255714Y-74540714D02*
X112922381Y-74540714D01*
X111874762Y-74778810D02*
X112589048Y-75016905D01*
X112589048Y-74397857D01*
X112922381Y-73493095D02*
X112922381Y-74064524D01*
X112922381Y-73778810D02*
X111922381Y-73778810D01*
X112065238Y-73874048D01*
X112160476Y-73969286D01*
X112208095Y-74064524D01*
X107207381Y-72222857D02*
X106731190Y-72556191D01*
X107207381Y-72794286D02*
X106207381Y-72794286D01*
X106207381Y-72413333D01*
X106255000Y-72318095D01*
X106302619Y-72270476D01*
X106397857Y-72222857D01*
X106540714Y-72222857D01*
X106635952Y-72270476D01*
X106683571Y-72318095D01*
X106731190Y-72413333D01*
X106731190Y-72794286D01*
X106540714Y-71365714D02*
X107207381Y-71365714D01*
X106159762Y-71603810D02*
X106874048Y-71841905D01*
X106874048Y-71222857D01*
X106302619Y-70889524D02*
X106255000Y-70841905D01*
X106207381Y-70746667D01*
X106207381Y-70508571D01*
X106255000Y-70413333D01*
X106302619Y-70365714D01*
X106397857Y-70318095D01*
X106493095Y-70318095D01*
X106635952Y-70365714D01*
X107207381Y-70937143D01*
X107207381Y-70318095D01*
X101048810Y-108227381D02*
X101048810Y-107227381D01*
X101382144Y-107941667D01*
X101715477Y-107227381D01*
X101715477Y-108227381D01*
X102525001Y-107703571D02*
X102191667Y-107703571D01*
X102191667Y-108227381D02*
X102191667Y-107227381D01*
X102667858Y-107227381D01*
X103048810Y-107846429D02*
X103810715Y-107846429D01*
X104239286Y-108179762D02*
X104382143Y-108227381D01*
X104620239Y-108227381D01*
X104715477Y-108179762D01*
X104763096Y-108132143D01*
X104810715Y-108036905D01*
X104810715Y-107941667D01*
X104763096Y-107846429D01*
X104715477Y-107798810D01*
X104620239Y-107751190D01*
X104429762Y-107703571D01*
X104334524Y-107655952D01*
X104286905Y-107608333D01*
X104239286Y-107513095D01*
X104239286Y-107417857D01*
X104286905Y-107322619D01*
X104334524Y-107275000D01*
X104429762Y-107227381D01*
X104667858Y-107227381D01*
X104810715Y-107275000D01*
X105144048Y-107227381D02*
X105382143Y-108227381D01*
X105572620Y-107513095D01*
X105763096Y-108227381D01*
X106001191Y-107227381D01*
X106382143Y-107846429D02*
X107144048Y-107846429D01*
X107477381Y-107227381D02*
X108048810Y-107227381D01*
X107763095Y-108227381D02*
X107763095Y-107227381D01*
X108334524Y-107941667D02*
X108810715Y-107941667D01*
X108239286Y-108227381D02*
X108572619Y-107227381D01*
X108905953Y-108227381D01*
X109810715Y-108132143D02*
X109763096Y-108179762D01*
X109620239Y-108227381D01*
X109525001Y-108227381D01*
X109382143Y-108179762D01*
X109286905Y-108084524D01*
X109239286Y-107989286D01*
X109191667Y-107798810D01*
X109191667Y-107655952D01*
X109239286Y-107465476D01*
X109286905Y-107370238D01*
X109382143Y-107275000D01*
X109525001Y-107227381D01*
X109620239Y-107227381D01*
X109763096Y-107275000D01*
X109810715Y-107322619D01*
X110096429Y-107227381D02*
X110667858Y-107227381D01*
X110382143Y-108227381D02*
X110382143Y-107227381D01*
X111001191Y-107846429D02*
X111763096Y-107846429D01*
X112667858Y-107227381D02*
X112477381Y-107227381D01*
X112382143Y-107275000D01*
X112334524Y-107322619D01*
X112239286Y-107465476D01*
X112191667Y-107655952D01*
X112191667Y-108036905D01*
X112239286Y-108132143D01*
X112286905Y-108179762D01*
X112382143Y-108227381D01*
X112572620Y-108227381D01*
X112667858Y-108179762D01*
X112715477Y-108132143D01*
X112763096Y-108036905D01*
X112763096Y-107798810D01*
X112715477Y-107703571D01*
X112667858Y-107655952D01*
X112572620Y-107608333D01*
X112382143Y-107608333D01*
X112286905Y-107655952D01*
X112239286Y-107703571D01*
X112191667Y-107798810D01*
X113191667Y-108227381D02*
X113191667Y-107227381D01*
X113525001Y-107941667D01*
X113858334Y-107227381D01*
X113858334Y-108227381D01*
X114334524Y-108227381D02*
X114334524Y-107227381D01*
X114667858Y-107941667D01*
X115001191Y-107227381D01*
X115001191Y-108227381D01*
X101048810Y-92352381D02*
X101048810Y-91352381D01*
X101382144Y-92066667D01*
X101715477Y-91352381D01*
X101715477Y-92352381D01*
X102525001Y-91828571D02*
X102191667Y-91828571D01*
X102191667Y-92352381D02*
X102191667Y-91352381D01*
X102667858Y-91352381D01*
X103048810Y-91971429D02*
X103810715Y-91971429D01*
X104239286Y-92304762D02*
X104382143Y-92352381D01*
X104620239Y-92352381D01*
X104715477Y-92304762D01*
X104763096Y-92257143D01*
X104810715Y-92161905D01*
X104810715Y-92066667D01*
X104763096Y-91971429D01*
X104715477Y-91923810D01*
X104620239Y-91876190D01*
X104429762Y-91828571D01*
X104334524Y-91780952D01*
X104286905Y-91733333D01*
X104239286Y-91638095D01*
X104239286Y-91542857D01*
X104286905Y-91447619D01*
X104334524Y-91400000D01*
X104429762Y-91352381D01*
X104667858Y-91352381D01*
X104810715Y-91400000D01*
X105144048Y-91352381D02*
X105382143Y-92352381D01*
X105572620Y-91638095D01*
X105763096Y-92352381D01*
X106001191Y-91352381D01*
X106382143Y-91971429D02*
X107144048Y-91971429D01*
X107477381Y-91352381D02*
X108048810Y-91352381D01*
X107763095Y-92352381D02*
X107763095Y-91352381D01*
X108334524Y-92066667D02*
X108810715Y-92066667D01*
X108239286Y-92352381D02*
X108572619Y-91352381D01*
X108905953Y-92352381D01*
X109810715Y-92257143D02*
X109763096Y-92304762D01*
X109620239Y-92352381D01*
X109525001Y-92352381D01*
X109382143Y-92304762D01*
X109286905Y-92209524D01*
X109239286Y-92114286D01*
X109191667Y-91923810D01*
X109191667Y-91780952D01*
X109239286Y-91590476D01*
X109286905Y-91495238D01*
X109382143Y-91400000D01*
X109525001Y-91352381D01*
X109620239Y-91352381D01*
X109763096Y-91400000D01*
X109810715Y-91447619D01*
X110096429Y-91352381D02*
X110667858Y-91352381D01*
X110382143Y-92352381D02*
X110382143Y-91352381D01*
X111001191Y-91971429D02*
X111763096Y-91971429D01*
X112667858Y-91352381D02*
X112477381Y-91352381D01*
X112382143Y-91400000D01*
X112334524Y-91447619D01*
X112239286Y-91590476D01*
X112191667Y-91780952D01*
X112191667Y-92161905D01*
X112239286Y-92257143D01*
X112286905Y-92304762D01*
X112382143Y-92352381D01*
X112572620Y-92352381D01*
X112667858Y-92304762D01*
X112715477Y-92257143D01*
X112763096Y-92161905D01*
X112763096Y-91923810D01*
X112715477Y-91828571D01*
X112667858Y-91780952D01*
X112572620Y-91733333D01*
X112382143Y-91733333D01*
X112286905Y-91780952D01*
X112239286Y-91828571D01*
X112191667Y-91923810D01*
X113191667Y-92352381D02*
X113191667Y-91352381D01*
X113525001Y-92066667D01*
X113858334Y-91352381D01*
X113858334Y-92352381D01*
X114334524Y-92352381D02*
X114334524Y-91352381D01*
X114667858Y-92066667D01*
X115001191Y-91352381D01*
X115001191Y-92352381D01*
X82633810Y-117117381D02*
X82633810Y-116117381D01*
X82967144Y-116831667D01*
X83300477Y-116117381D01*
X83300477Y-117117381D01*
X84110001Y-116593571D02*
X83776667Y-116593571D01*
X83776667Y-117117381D02*
X83776667Y-116117381D01*
X84252858Y-116117381D01*
X84633810Y-116736429D02*
X85395715Y-116736429D01*
X85824286Y-117069762D02*
X85967143Y-117117381D01*
X86205239Y-117117381D01*
X86300477Y-117069762D01*
X86348096Y-117022143D01*
X86395715Y-116926905D01*
X86395715Y-116831667D01*
X86348096Y-116736429D01*
X86300477Y-116688810D01*
X86205239Y-116641190D01*
X86014762Y-116593571D01*
X85919524Y-116545952D01*
X85871905Y-116498333D01*
X85824286Y-116403095D01*
X85824286Y-116307857D01*
X85871905Y-116212619D01*
X85919524Y-116165000D01*
X86014762Y-116117381D01*
X86252858Y-116117381D01*
X86395715Y-116165000D01*
X86729048Y-116117381D02*
X86967143Y-117117381D01*
X87157620Y-116403095D01*
X87348096Y-117117381D01*
X87586191Y-116117381D01*
X87967143Y-116736429D02*
X88729048Y-116736429D01*
X89062381Y-116117381D02*
X89633810Y-116117381D01*
X89348095Y-117117381D02*
X89348095Y-116117381D01*
X89919524Y-116831667D02*
X90395715Y-116831667D01*
X89824286Y-117117381D02*
X90157619Y-116117381D01*
X90490953Y-117117381D01*
X91395715Y-117022143D02*
X91348096Y-117069762D01*
X91205239Y-117117381D01*
X91110001Y-117117381D01*
X90967143Y-117069762D01*
X90871905Y-116974524D01*
X90824286Y-116879286D01*
X90776667Y-116688810D01*
X90776667Y-116545952D01*
X90824286Y-116355476D01*
X90871905Y-116260238D01*
X90967143Y-116165000D01*
X91110001Y-116117381D01*
X91205239Y-116117381D01*
X91348096Y-116165000D01*
X91395715Y-116212619D01*
X91681429Y-116117381D02*
X92252858Y-116117381D01*
X91967143Y-117117381D02*
X91967143Y-116117381D01*
X92586191Y-116736429D02*
X93348096Y-116736429D01*
X94252858Y-116117381D02*
X94062381Y-116117381D01*
X93967143Y-116165000D01*
X93919524Y-116212619D01*
X93824286Y-116355476D01*
X93776667Y-116545952D01*
X93776667Y-116926905D01*
X93824286Y-117022143D01*
X93871905Y-117069762D01*
X93967143Y-117117381D01*
X94157620Y-117117381D01*
X94252858Y-117069762D01*
X94300477Y-117022143D01*
X94348096Y-116926905D01*
X94348096Y-116688810D01*
X94300477Y-116593571D01*
X94252858Y-116545952D01*
X94157620Y-116498333D01*
X93967143Y-116498333D01*
X93871905Y-116545952D01*
X93824286Y-116593571D01*
X93776667Y-116688810D01*
X94776667Y-117117381D02*
X94776667Y-116117381D01*
X95110001Y-116831667D01*
X95443334Y-116117381D01*
X95443334Y-117117381D01*
X95919524Y-117117381D02*
X95919524Y-116117381D01*
X96252858Y-116831667D01*
X96586191Y-116117381D01*
X96586191Y-117117381D01*
X60487381Y-105996905D02*
X61296905Y-105996905D01*
X61392143Y-105949286D01*
X61439762Y-105901667D01*
X61487381Y-105806429D01*
X61487381Y-105615952D01*
X61439762Y-105520714D01*
X61392143Y-105473095D01*
X61296905Y-105425476D01*
X60487381Y-105425476D01*
X61487381Y-104425476D02*
X61487381Y-104996905D01*
X61487381Y-104711191D02*
X60487381Y-104711191D01*
X60630238Y-104806429D01*
X60725476Y-104901667D01*
X60773095Y-104996905D01*
X40597381Y-115981667D02*
X41597381Y-115648334D01*
X40597381Y-115315000D01*
X41597381Y-114981667D02*
X40597381Y-114981667D01*
X41597381Y-114410238D01*
X40597381Y-114410238D01*
X41597381Y-113934048D02*
X40597381Y-113934048D01*
X41073571Y-113934048D02*
X41073571Y-113362619D01*
X41597381Y-113362619D02*
X40597381Y-113362619D01*
X40597381Y-112410238D02*
X40597381Y-112886429D01*
X41073571Y-112934048D01*
X41025952Y-112886429D01*
X40978333Y-112791191D01*
X40978333Y-112553095D01*
X41025952Y-112457857D01*
X41073571Y-112410238D01*
X41168810Y-112362619D01*
X41406905Y-112362619D01*
X41502143Y-112410238D01*
X41549762Y-112457857D01*
X41597381Y-112553095D01*
X41597381Y-112791191D01*
X41549762Y-112886429D01*
X41502143Y-112934048D01*
X40597381Y-111743572D02*
X40597381Y-111648333D01*
X40645000Y-111553095D01*
X40692619Y-111505476D01*
X40787857Y-111457857D01*
X40978333Y-111410238D01*
X41216429Y-111410238D01*
X41406905Y-111457857D01*
X41502143Y-111505476D01*
X41549762Y-111553095D01*
X41597381Y-111648333D01*
X41597381Y-111743572D01*
X41549762Y-111838810D01*
X41502143Y-111886429D01*
X41406905Y-111934048D01*
X41216429Y-111981667D01*
X40978333Y-111981667D01*
X40787857Y-111934048D01*
X40692619Y-111886429D01*
X40645000Y-111838810D01*
X40597381Y-111743572D01*
X41597381Y-110457857D02*
X41597381Y-111029286D01*
X41597381Y-110743572D02*
X40597381Y-110743572D01*
X40740238Y-110838810D01*
X40835476Y-110934048D01*
X40883095Y-111029286D01*
X41597381Y-109981667D02*
X41597381Y-109791191D01*
X41549762Y-109695952D01*
X41502143Y-109648333D01*
X41359286Y-109553095D01*
X41168810Y-109505476D01*
X40787857Y-109505476D01*
X40692619Y-109553095D01*
X40645000Y-109600714D01*
X40597381Y-109695952D01*
X40597381Y-109886429D01*
X40645000Y-109981667D01*
X40692619Y-110029286D01*
X40787857Y-110076905D01*
X41025952Y-110076905D01*
X41121190Y-110029286D01*
X41168810Y-109981667D01*
X41216429Y-109886429D01*
X41216429Y-109695952D01*
X41168810Y-109600714D01*
X41121190Y-109553095D01*
X41025952Y-109505476D01*
X41311667Y-109124524D02*
X41311667Y-108648333D01*
X41597381Y-109219762D02*
X40597381Y-108886429D01*
X41597381Y-108553095D01*
X40597381Y-108362619D02*
X40597381Y-107791190D01*
X41597381Y-108076905D02*
X40597381Y-108076905D01*
X41597381Y-106886428D02*
X41121190Y-107219762D01*
X41597381Y-107457857D02*
X40597381Y-107457857D01*
X40597381Y-107076904D01*
X40645000Y-106981666D01*
X40692619Y-106934047D01*
X40787857Y-106886428D01*
X40930714Y-106886428D01*
X41025952Y-106934047D01*
X41073571Y-106981666D01*
X41121190Y-107076904D01*
X41121190Y-107457857D01*
X41216429Y-106457857D02*
X41216429Y-105695952D01*
X41073571Y-105219762D02*
X41073571Y-104886428D01*
X41597381Y-104743571D02*
X41597381Y-105219762D01*
X40597381Y-105219762D01*
X40597381Y-104743571D01*
X63448095Y-55157381D02*
X63448095Y-55966905D01*
X63495714Y-56062143D01*
X63543333Y-56109762D01*
X63638571Y-56157381D01*
X63829048Y-56157381D01*
X63924286Y-56109762D01*
X63971905Y-56062143D01*
X64019524Y-55966905D01*
X64019524Y-55157381D01*
X64400476Y-55157381D02*
X65019524Y-55157381D01*
X64686190Y-55538333D01*
X64829048Y-55538333D01*
X64924286Y-55585952D01*
X64971905Y-55633571D01*
X65019524Y-55728810D01*
X65019524Y-55966905D01*
X64971905Y-56062143D01*
X64924286Y-56109762D01*
X64829048Y-56157381D01*
X64543333Y-56157381D01*
X64448095Y-56109762D01*
X64400476Y-56062143D01*
X63623333Y-75047381D02*
X63956666Y-76047381D01*
X64290000Y-75047381D01*
X64623333Y-76047381D02*
X64623333Y-75047381D01*
X65194762Y-76047381D01*
X65194762Y-75047381D01*
X65670952Y-76047381D02*
X65670952Y-75047381D01*
X65670952Y-75523571D02*
X66242381Y-75523571D01*
X66242381Y-76047381D02*
X66242381Y-75047381D01*
X67194762Y-75047381D02*
X66718571Y-75047381D01*
X66670952Y-75523571D01*
X66718571Y-75475952D01*
X66813809Y-75428333D01*
X67051905Y-75428333D01*
X67147143Y-75475952D01*
X67194762Y-75523571D01*
X67242381Y-75618810D01*
X67242381Y-75856905D01*
X67194762Y-75952143D01*
X67147143Y-75999762D01*
X67051905Y-76047381D01*
X66813809Y-76047381D01*
X66718571Y-75999762D01*
X66670952Y-75952143D01*
X67861428Y-75047381D02*
X67956667Y-75047381D01*
X68051905Y-75095000D01*
X68099524Y-75142619D01*
X68147143Y-75237857D01*
X68194762Y-75428333D01*
X68194762Y-75666429D01*
X68147143Y-75856905D01*
X68099524Y-75952143D01*
X68051905Y-75999762D01*
X67956667Y-76047381D01*
X67861428Y-76047381D01*
X67766190Y-75999762D01*
X67718571Y-75952143D01*
X67670952Y-75856905D01*
X67623333Y-75666429D01*
X67623333Y-75428333D01*
X67670952Y-75237857D01*
X67718571Y-75142619D01*
X67766190Y-75095000D01*
X67861428Y-75047381D01*
X69147143Y-76047381D02*
X68575714Y-76047381D01*
X68861428Y-76047381D02*
X68861428Y-75047381D01*
X68766190Y-75190238D01*
X68670952Y-75285476D01*
X68575714Y-75333095D01*
X69623333Y-76047381D02*
X69813809Y-76047381D01*
X69909048Y-75999762D01*
X69956667Y-75952143D01*
X70051905Y-75809286D01*
X70099524Y-75618810D01*
X70099524Y-75237857D01*
X70051905Y-75142619D01*
X70004286Y-75095000D01*
X69909048Y-75047381D01*
X69718571Y-75047381D01*
X69623333Y-75095000D01*
X69575714Y-75142619D01*
X69528095Y-75237857D01*
X69528095Y-75475952D01*
X69575714Y-75571190D01*
X69623333Y-75618810D01*
X69718571Y-75666429D01*
X69909048Y-75666429D01*
X70004286Y-75618810D01*
X70051905Y-75571190D01*
X70099524Y-75475952D01*
X70480476Y-75761667D02*
X70956667Y-75761667D01*
X70385238Y-76047381D02*
X70718571Y-75047381D01*
X71051905Y-76047381D01*
X71242381Y-75047381D02*
X71813810Y-75047381D01*
X71528095Y-76047381D02*
X71528095Y-75047381D01*
X72718572Y-76047381D02*
X72385238Y-75571190D01*
X72147143Y-76047381D02*
X72147143Y-75047381D01*
X72528096Y-75047381D01*
X72623334Y-75095000D01*
X72670953Y-75142619D01*
X72718572Y-75237857D01*
X72718572Y-75380714D01*
X72670953Y-75475952D01*
X72623334Y-75523571D01*
X72528096Y-75571190D01*
X72147143Y-75571190D01*
X73147143Y-75666429D02*
X73909048Y-75666429D01*
X74385238Y-75523571D02*
X74718572Y-75523571D01*
X74861429Y-76047381D02*
X74385238Y-76047381D01*
X74385238Y-75047381D01*
X74861429Y-75047381D01*
X112557381Y-92026905D02*
X113366905Y-92026905D01*
X113462143Y-91979286D01*
X113509762Y-91931667D01*
X113557381Y-91836429D01*
X113557381Y-91645952D01*
X113509762Y-91550714D01*
X113462143Y-91503095D01*
X113366905Y-91455476D01*
X112557381Y-91455476D01*
X112890714Y-90550714D02*
X113557381Y-90550714D01*
X112509762Y-90788810D02*
X113224048Y-91026905D01*
X113224048Y-90407857D01*
X98786429Y-83617381D02*
X98453095Y-83141190D01*
X98215000Y-83617381D02*
X98215000Y-82617381D01*
X98595953Y-82617381D01*
X98691191Y-82665000D01*
X98738810Y-82712619D01*
X98786429Y-82807857D01*
X98786429Y-82950714D01*
X98738810Y-83045952D01*
X98691191Y-83093571D01*
X98595953Y-83141190D01*
X98215000Y-83141190D01*
X99119762Y-82617381D02*
X99786429Y-83617381D01*
X99786429Y-82617381D02*
X99119762Y-83617381D01*
X100167381Y-83617381D02*
X100167381Y-82617381D01*
X100500715Y-83331667D01*
X100834048Y-82617381D01*
X100834048Y-83617381D01*
X101310238Y-83236429D02*
X102072143Y-83236429D01*
X103072143Y-82665000D02*
X102976905Y-82617381D01*
X102834048Y-82617381D01*
X102691190Y-82665000D01*
X102595952Y-82760238D01*
X102548333Y-82855476D01*
X102500714Y-83045952D01*
X102500714Y-83188810D01*
X102548333Y-83379286D01*
X102595952Y-83474524D01*
X102691190Y-83569762D01*
X102834048Y-83617381D01*
X102929286Y-83617381D01*
X103072143Y-83569762D01*
X103119762Y-83522143D01*
X103119762Y-83188810D01*
X102929286Y-83188810D01*
X103548333Y-83617381D02*
X103548333Y-82617381D01*
X103929286Y-82617381D01*
X104024524Y-82665000D01*
X104072143Y-82712619D01*
X104119762Y-82807857D01*
X104119762Y-82950714D01*
X104072143Y-83045952D01*
X104024524Y-83093571D01*
X103929286Y-83141190D01*
X103548333Y-83141190D01*
X104500714Y-83569762D02*
X104643571Y-83617381D01*
X104881667Y-83617381D01*
X104976905Y-83569762D01*
X105024524Y-83522143D01*
X105072143Y-83426905D01*
X105072143Y-83331667D01*
X105024524Y-83236429D01*
X104976905Y-83188810D01*
X104881667Y-83141190D01*
X104691190Y-83093571D01*
X104595952Y-83045952D01*
X104548333Y-82998333D01*
X104500714Y-82903095D01*
X104500714Y-82807857D01*
X104548333Y-82712619D01*
X104595952Y-82665000D01*
X104691190Y-82617381D01*
X104929286Y-82617381D01*
X105072143Y-82665000D01*
X105500714Y-83236429D02*
X106262619Y-83236429D01*
X107310238Y-83617381D02*
X106976904Y-83141190D01*
X106738809Y-83617381D02*
X106738809Y-82617381D01*
X107119762Y-82617381D01*
X107215000Y-82665000D01*
X107262619Y-82712619D01*
X107310238Y-82807857D01*
X107310238Y-82950714D01*
X107262619Y-83045952D01*
X107215000Y-83093571D01*
X107119762Y-83141190D01*
X106738809Y-83141190D01*
X108167381Y-82950714D02*
X108167381Y-83617381D01*
X107929285Y-82569762D02*
X107691190Y-83284048D01*
X108310238Y-83284048D01*
X108691190Y-83236429D02*
X109453095Y-83236429D01*
X109786428Y-82617381D02*
X110357857Y-82617381D01*
X110072142Y-83617381D02*
X110072142Y-82617381D01*
X63448095Y-79287381D02*
X63448095Y-80096905D01*
X63495714Y-80192143D01*
X63543333Y-80239762D01*
X63638571Y-80287381D01*
X63829048Y-80287381D01*
X63924286Y-80239762D01*
X63971905Y-80192143D01*
X64019524Y-80096905D01*
X64019524Y-79287381D01*
X64971905Y-79287381D02*
X64495714Y-79287381D01*
X64448095Y-79763571D01*
X64495714Y-79715952D01*
X64590952Y-79668333D01*
X64829048Y-79668333D01*
X64924286Y-79715952D01*
X64971905Y-79763571D01*
X65019524Y-79858810D01*
X65019524Y-80096905D01*
X64971905Y-80192143D01*
X64924286Y-80239762D01*
X64829048Y-80287381D01*
X64590952Y-80287381D01*
X64495714Y-80239762D01*
X64448095Y-80192143D01*
X63623333Y-99177381D02*
X63956666Y-100177381D01*
X64290000Y-99177381D01*
X64623333Y-100177381D02*
X64623333Y-99177381D01*
X65194762Y-100177381D01*
X65194762Y-99177381D01*
X65670952Y-100177381D02*
X65670952Y-99177381D01*
X65670952Y-99653571D02*
X66242381Y-99653571D01*
X66242381Y-100177381D02*
X66242381Y-99177381D01*
X67194762Y-99177381D02*
X66718571Y-99177381D01*
X66670952Y-99653571D01*
X66718571Y-99605952D01*
X66813809Y-99558333D01*
X67051905Y-99558333D01*
X67147143Y-99605952D01*
X67194762Y-99653571D01*
X67242381Y-99748810D01*
X67242381Y-99986905D01*
X67194762Y-100082143D01*
X67147143Y-100129762D01*
X67051905Y-100177381D01*
X66813809Y-100177381D01*
X66718571Y-100129762D01*
X66670952Y-100082143D01*
X67861428Y-99177381D02*
X67956667Y-99177381D01*
X68051905Y-99225000D01*
X68099524Y-99272619D01*
X68147143Y-99367857D01*
X68194762Y-99558333D01*
X68194762Y-99796429D01*
X68147143Y-99986905D01*
X68099524Y-100082143D01*
X68051905Y-100129762D01*
X67956667Y-100177381D01*
X67861428Y-100177381D01*
X67766190Y-100129762D01*
X67718571Y-100082143D01*
X67670952Y-99986905D01*
X67623333Y-99796429D01*
X67623333Y-99558333D01*
X67670952Y-99367857D01*
X67718571Y-99272619D01*
X67766190Y-99225000D01*
X67861428Y-99177381D01*
X69147143Y-100177381D02*
X68575714Y-100177381D01*
X68861428Y-100177381D02*
X68861428Y-99177381D01*
X68766190Y-99320238D01*
X68670952Y-99415476D01*
X68575714Y-99463095D01*
X69623333Y-100177381D02*
X69813809Y-100177381D01*
X69909048Y-100129762D01*
X69956667Y-100082143D01*
X70051905Y-99939286D01*
X70099524Y-99748810D01*
X70099524Y-99367857D01*
X70051905Y-99272619D01*
X70004286Y-99225000D01*
X69909048Y-99177381D01*
X69718571Y-99177381D01*
X69623333Y-99225000D01*
X69575714Y-99272619D01*
X69528095Y-99367857D01*
X69528095Y-99605952D01*
X69575714Y-99701190D01*
X69623333Y-99748810D01*
X69718571Y-99796429D01*
X69909048Y-99796429D01*
X70004286Y-99748810D01*
X70051905Y-99701190D01*
X70099524Y-99605952D01*
X70480476Y-99891667D02*
X70956667Y-99891667D01*
X70385238Y-100177381D02*
X70718571Y-99177381D01*
X71051905Y-100177381D01*
X71242381Y-99177381D02*
X71813810Y-99177381D01*
X71528095Y-100177381D02*
X71528095Y-99177381D01*
X72718572Y-100177381D02*
X72385238Y-99701190D01*
X72147143Y-100177381D02*
X72147143Y-99177381D01*
X72528096Y-99177381D01*
X72623334Y-99225000D01*
X72670953Y-99272619D01*
X72718572Y-99367857D01*
X72718572Y-99510714D01*
X72670953Y-99605952D01*
X72623334Y-99653571D01*
X72528096Y-99701190D01*
X72147143Y-99701190D01*
X73147143Y-99796429D02*
X73909048Y-99796429D01*
X74385238Y-99653571D02*
X74718572Y-99653571D01*
X74861429Y-100177381D02*
X74385238Y-100177381D01*
X74385238Y-99177381D01*
X74861429Y-99177381D01*
X105310476Y-46902381D02*
X105977143Y-47902381D01*
X105977143Y-46902381D02*
X105310476Y-47902381D01*
X106881905Y-47902381D02*
X106310476Y-47902381D01*
X106596190Y-47902381D02*
X106596190Y-46902381D01*
X106500952Y-47045238D01*
X106405714Y-47140476D01*
X106310476Y-47188095D01*
D20*
X41694714Y-122307428D02*
X40932714Y-122307428D01*
X40932714Y-122126000D01*
X40969000Y-122017143D01*
X41041571Y-121944571D01*
X41114143Y-121908286D01*
X41259286Y-121872000D01*
X41368143Y-121872000D01*
X41513286Y-121908286D01*
X41585857Y-121944571D01*
X41658429Y-122017143D01*
X41694714Y-122126000D01*
X41694714Y-122307428D01*
X40932714Y-121182571D02*
X40932714Y-121545428D01*
X41295571Y-121581714D01*
X41259286Y-121545428D01*
X41223000Y-121472857D01*
X41223000Y-121291428D01*
X41259286Y-121218857D01*
X41295571Y-121182571D01*
X41368143Y-121146286D01*
X41549571Y-121146286D01*
X41622143Y-121182571D01*
X41658429Y-121218857D01*
X41694714Y-121291428D01*
X41694714Y-121472857D01*
X41658429Y-121545428D01*
X41622143Y-121581714D01*
X89954714Y-80397428D02*
X89192714Y-80397428D01*
X89192714Y-80216000D01*
X89229000Y-80107143D01*
X89301571Y-80034571D01*
X89374143Y-79998286D01*
X89519286Y-79962000D01*
X89628143Y-79962000D01*
X89773286Y-79998286D01*
X89845857Y-80034571D01*
X89918429Y-80107143D01*
X89954714Y-80216000D01*
X89954714Y-80397428D01*
X89192714Y-79308857D02*
X89192714Y-79454000D01*
X89229000Y-79526571D01*
X89265286Y-79562857D01*
X89374143Y-79635428D01*
X89519286Y-79671714D01*
X89809571Y-79671714D01*
X89882143Y-79635428D01*
X89918429Y-79599143D01*
X89954714Y-79526571D01*
X89954714Y-79381428D01*
X89918429Y-79308857D01*
X89882143Y-79272571D01*
X89809571Y-79236286D01*
X89628143Y-79236286D01*
X89555571Y-79272571D01*
X89519286Y-79308857D01*
X89483000Y-79381428D01*
X89483000Y-79526571D01*
X89519286Y-79599143D01*
X89555571Y-79635428D01*
X89628143Y-79671714D01*
X95034714Y-83572428D02*
X94272714Y-83572428D01*
X94272714Y-83391000D01*
X94309000Y-83282143D01*
X94381571Y-83209571D01*
X94454143Y-83173286D01*
X94599286Y-83137000D01*
X94708143Y-83137000D01*
X94853286Y-83173286D01*
X94925857Y-83209571D01*
X94998429Y-83282143D01*
X95034714Y-83391000D01*
X95034714Y-83572428D01*
X94272714Y-82883000D02*
X94272714Y-82375000D01*
X95034714Y-82701571D01*
X80208734Y-109506917D02*
X80970734Y-109252917D01*
X80208734Y-108998917D01*
X80970734Y-108309488D02*
X80607877Y-108563488D01*
X80970734Y-108744916D02*
X80208734Y-108744916D01*
X80208734Y-108454631D01*
X80245020Y-108382059D01*
X80281306Y-108345774D01*
X80353877Y-108309488D01*
X80462734Y-108309488D01*
X80535306Y-108345774D01*
X80571591Y-108382059D01*
X80607877Y-108454631D01*
X80607877Y-108744916D01*
X80970734Y-107583774D02*
X80970734Y-108019202D01*
X80970734Y-107801488D02*
X80208734Y-107801488D01*
X80317591Y-107874059D01*
X80390163Y-107946631D01*
X80426449Y-108019202D01*
D10*
X113097143Y-126007381D02*
X112763809Y-125531190D01*
X112525714Y-126007381D02*
X112525714Y-125007381D01*
X112906667Y-125007381D01*
X113001905Y-125055000D01*
X113049524Y-125102619D01*
X113097143Y-125197857D01*
X113097143Y-125340714D01*
X113049524Y-125435952D01*
X113001905Y-125483571D01*
X112906667Y-125531190D01*
X112525714Y-125531190D01*
X113478095Y-125102619D02*
X113525714Y-125055000D01*
X113620952Y-125007381D01*
X113859048Y-125007381D01*
X113954286Y-125055000D01*
X114001905Y-125102619D01*
X114049524Y-125197857D01*
X114049524Y-125293095D01*
X114001905Y-125435952D01*
X113430476Y-126007381D01*
X114049524Y-126007381D01*
X115001905Y-126007381D02*
X114430476Y-126007381D01*
X114716190Y-126007381D02*
X114716190Y-125007381D01*
X114620952Y-125150238D01*
X114525714Y-125245476D01*
X114430476Y-125293095D01*
X90237143Y-108227381D02*
X89903809Y-107751190D01*
X89665714Y-108227381D02*
X89665714Y-107227381D01*
X90046667Y-107227381D01*
X90141905Y-107275000D01*
X90189524Y-107322619D01*
X90237143Y-107417857D01*
X90237143Y-107560714D01*
X90189524Y-107655952D01*
X90141905Y-107703571D01*
X90046667Y-107751190D01*
X89665714Y-107751190D01*
X90618095Y-107322619D02*
X90665714Y-107275000D01*
X90760952Y-107227381D01*
X90999048Y-107227381D01*
X91094286Y-107275000D01*
X91141905Y-107322619D01*
X91189524Y-107417857D01*
X91189524Y-107513095D01*
X91141905Y-107655952D01*
X90570476Y-108227381D01*
X91189524Y-108227381D01*
X91760952Y-107655952D02*
X91665714Y-107608333D01*
X91618095Y-107560714D01*
X91570476Y-107465476D01*
X91570476Y-107417857D01*
X91618095Y-107322619D01*
X91665714Y-107275000D01*
X91760952Y-107227381D01*
X91951429Y-107227381D01*
X92046667Y-107275000D01*
X92094286Y-107322619D01*
X92141905Y-107417857D01*
X92141905Y-107465476D01*
X92094286Y-107560714D01*
X92046667Y-107608333D01*
X91951429Y-107655952D01*
X91760952Y-107655952D01*
X91665714Y-107703571D01*
X91618095Y-107751190D01*
X91570476Y-107846429D01*
X91570476Y-108036905D01*
X91618095Y-108132143D01*
X91665714Y-108179762D01*
X91760952Y-108227381D01*
X91951429Y-108227381D01*
X92046667Y-108179762D01*
X92094286Y-108132143D01*
X92141905Y-108036905D01*
X92141905Y-107846429D01*
X92094286Y-107751190D01*
X92046667Y-107703571D01*
X91951429Y-107655952D01*
X96468095Y-105957381D02*
X96468095Y-106766905D01*
X96515714Y-106862143D01*
X96563333Y-106909762D01*
X96658571Y-106957381D01*
X96849048Y-106957381D01*
X96944286Y-106909762D01*
X96991905Y-106862143D01*
X97039524Y-106766905D01*
X97039524Y-105957381D01*
X97944286Y-105957381D02*
X97753809Y-105957381D01*
X97658571Y-106005000D01*
X97610952Y-106052619D01*
X97515714Y-106195476D01*
X97468095Y-106385952D01*
X97468095Y-106766905D01*
X97515714Y-106862143D01*
X97563333Y-106909762D01*
X97658571Y-106957381D01*
X97849048Y-106957381D01*
X97944286Y-106909762D01*
X97991905Y-106862143D01*
X98039524Y-106766905D01*
X98039524Y-106528810D01*
X97991905Y-106433571D01*
X97944286Y-106385952D01*
X97849048Y-106338333D01*
X97658571Y-106338333D01*
X97563333Y-106385952D01*
X97515714Y-106433571D01*
X97468095Y-106528810D01*
X110557143Y-117657143D02*
X110509524Y-117704762D01*
X110366667Y-117752381D01*
X110271429Y-117752381D01*
X110128571Y-117704762D01*
X110033333Y-117609524D01*
X109985714Y-117514286D01*
X109938095Y-117323810D01*
X109938095Y-117180952D01*
X109985714Y-116990476D01*
X110033333Y-116895238D01*
X110128571Y-116800000D01*
X110271429Y-116752381D01*
X110366667Y-116752381D01*
X110509524Y-116800000D01*
X110557143Y-116847619D01*
X111509524Y-117752381D02*
X110938095Y-117752381D01*
X111223809Y-117752381D02*
X111223809Y-116752381D01*
X111128571Y-116895238D01*
X111033333Y-116990476D01*
X110938095Y-117038095D01*
X112080952Y-117180952D02*
X111985714Y-117133333D01*
X111938095Y-117085714D01*
X111890476Y-116990476D01*
X111890476Y-116942857D01*
X111938095Y-116847619D01*
X111985714Y-116800000D01*
X112080952Y-116752381D01*
X112271429Y-116752381D01*
X112366667Y-116800000D01*
X112414286Y-116847619D01*
X112461905Y-116942857D01*
X112461905Y-116990476D01*
X112414286Y-117085714D01*
X112366667Y-117133333D01*
X112271429Y-117180952D01*
X112080952Y-117180952D01*
X111985714Y-117228571D01*
X111938095Y-117276190D01*
X111890476Y-117371429D01*
X111890476Y-117561905D01*
X111938095Y-117657143D01*
X111985714Y-117704762D01*
X112080952Y-117752381D01*
X112271429Y-117752381D01*
X112366667Y-117704762D01*
X112414286Y-117657143D01*
X112461905Y-117561905D01*
X112461905Y-117371429D01*
X112414286Y-117276190D01*
X112366667Y-117228571D01*
X112271429Y-117180952D01*
X110557143Y-122102143D02*
X110509524Y-122149762D01*
X110366667Y-122197381D01*
X110271429Y-122197381D01*
X110128571Y-122149762D01*
X110033333Y-122054524D01*
X109985714Y-121959286D01*
X109938095Y-121768810D01*
X109938095Y-121625952D01*
X109985714Y-121435476D01*
X110033333Y-121340238D01*
X110128571Y-121245000D01*
X110271429Y-121197381D01*
X110366667Y-121197381D01*
X110509524Y-121245000D01*
X110557143Y-121292619D01*
X111509524Y-122197381D02*
X110938095Y-122197381D01*
X111223809Y-122197381D02*
X111223809Y-121197381D01*
X111128571Y-121340238D01*
X111033333Y-121435476D01*
X110938095Y-121483095D01*
X111985714Y-122197381D02*
X112176190Y-122197381D01*
X112271429Y-122149762D01*
X112319048Y-122102143D01*
X112414286Y-121959286D01*
X112461905Y-121768810D01*
X112461905Y-121387857D01*
X112414286Y-121292619D01*
X112366667Y-121245000D01*
X112271429Y-121197381D01*
X112080952Y-121197381D01*
X111985714Y-121245000D01*
X111938095Y-121292619D01*
X111890476Y-121387857D01*
X111890476Y-121625952D01*
X111938095Y-121721190D01*
X111985714Y-121768810D01*
X112080952Y-121816429D01*
X112271429Y-121816429D01*
X112366667Y-121768810D01*
X112414286Y-121721190D01*
X112461905Y-121625952D01*
X84522143Y-106862143D02*
X84474524Y-106909762D01*
X84331667Y-106957381D01*
X84236429Y-106957381D01*
X84093571Y-106909762D01*
X83998333Y-106814524D01*
X83950714Y-106719286D01*
X83903095Y-106528810D01*
X83903095Y-106385952D01*
X83950714Y-106195476D01*
X83998333Y-106100238D01*
X84093571Y-106005000D01*
X84236429Y-105957381D01*
X84331667Y-105957381D01*
X84474524Y-106005000D01*
X84522143Y-106052619D01*
X84903095Y-106052619D02*
X84950714Y-106005000D01*
X85045952Y-105957381D01*
X85284048Y-105957381D01*
X85379286Y-106005000D01*
X85426905Y-106052619D01*
X85474524Y-106147857D01*
X85474524Y-106243095D01*
X85426905Y-106385952D01*
X84855476Y-106957381D01*
X85474524Y-106957381D01*
X86093571Y-105957381D02*
X86188810Y-105957381D01*
X86284048Y-106005000D01*
X86331667Y-106052619D01*
X86379286Y-106147857D01*
X86426905Y-106338333D01*
X86426905Y-106576429D01*
X86379286Y-106766905D01*
X86331667Y-106862143D01*
X86284048Y-106909762D01*
X86188810Y-106957381D01*
X86093571Y-106957381D01*
X85998333Y-106909762D01*
X85950714Y-106862143D01*
X85903095Y-106766905D01*
X85855476Y-106576429D01*
X85855476Y-106338333D01*
X85903095Y-106147857D01*
X85950714Y-106052619D01*
X85998333Y-106005000D01*
X86093571Y-105957381D01*
X91681667Y-91161667D02*
X91681667Y-90685476D01*
X91967381Y-91256905D02*
X90967381Y-90923572D01*
X91967381Y-90590238D01*
X91443571Y-90256905D02*
X91443571Y-89923571D01*
X91967381Y-89780714D02*
X91967381Y-90256905D01*
X90967381Y-90256905D01*
X90967381Y-89780714D01*
X91967381Y-88828333D02*
X91967381Y-89399762D01*
X91967381Y-89114048D02*
X90967381Y-89114048D01*
X91110238Y-89209286D01*
X91205476Y-89304524D01*
X91253095Y-89399762D01*
M02*
