M48
;DRILL file {KiCad 4.0.4+dfsg1-stable} date Sun Apr 30 12:20:12 2017
;FORMAT={2:4/ absolute / inch / suppress leading zeros}
FMAT,2
INCH,TZ
T1C0.014
T2C0.020
T3C0.040
T4C0.050
T5C0.130
%
G90
G05
M72
T1
X16530Y-50181
X16780Y-47431
X17780Y-38931
X18030Y-38681
X18030Y-39181
X18030Y-49431
X18280Y-38931
X18280Y-40431
X18280Y-40931
X18530Y-38681
X18530Y-39181
X18530Y-40681
X18780Y-38931
X18780Y-40431
X18780Y-40931
X19030Y-38681
X19030Y-39181
X19030Y-40681
X19030Y-49931
X19030Y-50681
X19280Y-38931
X19280Y-40431
X19280Y-40931
X19530Y-38681
X19530Y-39181
X19530Y-48681
X19780Y-38931
X20030Y-38681
X20030Y-39181
X20280Y-38931
X20530Y-38681
X20530Y-39181
X20530Y-48681
X20780Y-38931
X20780Y-49431
X21530Y-48931
X21530Y-50681
X21780Y-40431
X21780Y-40931
X22030Y-40681
X22280Y-40431
X22280Y-40931
X22530Y-22181
X22530Y-22681
X22530Y-23181
X22530Y-23681
X22530Y-24181
X22530Y-24681
X22530Y-25181
X22530Y-25681
X22530Y-26181
X22530Y-26681
X22530Y-27181
X22530Y-27681
X22530Y-28181
X22530Y-40681
X22780Y-21931
X22780Y-22431
X22780Y-22931
X22780Y-23431
X22780Y-23931
X22780Y-24431
X22780Y-24931
X22780Y-25431
X22780Y-25931
X22780Y-26431
X22780Y-26931
X22780Y-27431
X22780Y-27931
X22780Y-28431
X22780Y-32431
X22780Y-32931
X22780Y-33431
X22780Y-33931
X22780Y-34431
X22780Y-34931
X22780Y-35431
X22780Y-35931
X22780Y-36431
X22780Y-40431
X22780Y-40931
X23030Y-22181
X23030Y-22681
X23030Y-23181
X23030Y-23681
X23030Y-24181
X23030Y-24681
X23030Y-25181
X23030Y-25681
X23030Y-26181
X23030Y-26681
X23030Y-27181
X23030Y-27681
X23030Y-28181
X23030Y-28681
X23030Y-32681
X23030Y-33181
X23030Y-33681
X23030Y-34181
X23030Y-34681
X23030Y-35181
X23030Y-35681
X23030Y-36181
X23030Y-36681
X23030Y-48181
X23280Y-47681
X23530Y-47931
X23780Y-41431
X23780Y-41931
X23780Y-42431
X23780Y-42931
X23780Y-46931
X23780Y-48181
X24030Y-41681
X24030Y-42181
X24030Y-42681
X24030Y-46681
X24030Y-47181
X24030Y-48431
X24280Y-23181
X24280Y-23681
X24280Y-24181
X24280Y-26681
X24280Y-27181
X24280Y-27681
X24280Y-32931
X24280Y-33431
X24280Y-36181
X24280Y-36681
X24280Y-37181
X24280Y-46931
X24530Y-23431
X24530Y-23931
X24530Y-26931
X24530Y-27431
X24530Y-32681
X24530Y-33181
X24530Y-33681
X24530Y-36431
X24530Y-36931
X24530Y-46681
X24530Y-47181
X24780Y-23181
X24780Y-23681
X24780Y-24181
X24780Y-26681
X24780Y-27181
X24780Y-27681
X24780Y-31181
X24780Y-32931
X24780Y-33431
X24780Y-36181
X24780Y-36681
X24780Y-37181
X24780Y-46931
X25030Y-30931
X25280Y-18181
X25280Y-18681
X25280Y-19181
X25280Y-19681
X25280Y-20181
X25280Y-31181
X25280Y-38431
X25280Y-40181
X25280Y-40681
X25280Y-41181
X25530Y-14181
X25530Y-14681
X25530Y-15181
X25530Y-18431
X25530Y-18931
X25530Y-19431
X25530Y-19931
X25530Y-20431
X25530Y-21681
X25530Y-29181
X25530Y-30931
X25530Y-38681
X25530Y-40431
X25530Y-40931
X25780Y-13931
X25780Y-14431
X25780Y-14931
X25780Y-15431
X25780Y-18181
X25780Y-18681
X25780Y-19181
X25780Y-19681
X25780Y-20181
X25780Y-21431
X25780Y-21931
X25780Y-28931
X25780Y-29431
X25780Y-31181
X25780Y-38431
X25780Y-40181
X25780Y-40681
X25780Y-41181
X26030Y-14181
X26030Y-14681
X26030Y-15181
X26030Y-15681
X26030Y-19431
X26030Y-19931
X26030Y-20431
X26030Y-21681
X26030Y-29181
X26030Y-30931
X26030Y-38681
X26030Y-40431
X26030Y-40931
X26280Y-13931
X26280Y-14431
X26280Y-21431
X26280Y-21931
X26280Y-28931
X26280Y-29431
X26280Y-31181
X26280Y-38431
X26280Y-40181
X26280Y-40681
X26530Y-14181
X26530Y-21681
X26530Y-29181
X26530Y-30931
X26530Y-38681
X26530Y-40431
X26530Y-40931
X26780Y-13931
X26780Y-14431
X26780Y-38431
X27030Y-14181
X27280Y-14431
X27530Y-15931
X28280Y-47181
X29030Y-48931
X30280Y-28931
X30280Y-29431
X30530Y-21681
X30530Y-22181
X30530Y-28681
X30530Y-29181
X30530Y-29681
X30530Y-30931
X30530Y-31431
X30530Y-38181
X30530Y-38681
X30780Y-21431
X30780Y-21931
X30780Y-28931
X30780Y-29431
X30780Y-30681
X30780Y-31181
X30780Y-31681
X30780Y-37931
X30780Y-38431
X30780Y-38931
X31030Y-21681
X31030Y-22181
X31030Y-30931
X31030Y-31431
X31030Y-38181
X31030Y-38681
X31030Y-44431
X31280Y-20181
X31280Y-44681
X31530Y-44931
X31780Y-45181
X32530Y-13931
X32530Y-14431
X32530Y-32181
X32780Y-13681
X32780Y-14181
X32780Y-40681
X32780Y-41181
X33030Y-13931
X33030Y-14431
X33030Y-25431
X33030Y-26431
X33030Y-32181
X33030Y-34931
X33030Y-40431
X33030Y-40931
X33030Y-41431
X33280Y-13681
X33280Y-14181
X33280Y-40181
X33280Y-40681
X33280Y-41181
X33530Y-13931
X33530Y-14431
X33530Y-29931
X33530Y-31181
X33530Y-37181
X33530Y-39931
X33530Y-40431
X33530Y-40931
X33780Y-13681
X33780Y-14181
X33780Y-20431
X33780Y-20931
X33780Y-21431
X33780Y-21931
X33780Y-22431
X34030Y-13931
X34030Y-14431
X34030Y-20681
X34030Y-21181
X34030Y-21681
X34030Y-22181
X34030Y-22681
X34030Y-23181
X34030Y-24431
X34030Y-26931
X34030Y-29431
X34030Y-33931
X34030Y-36181
X34030Y-38431
X34030Y-42431
X34030Y-45431
X34280Y-13681
X34280Y-14181
X34280Y-20431
X34280Y-20931
X34280Y-21431
X34280Y-21931
X34280Y-22431
X34280Y-28181
X34280Y-45681
X34530Y-13931
X34530Y-14431
X34530Y-28431
X34530Y-45931
X34780Y-14181
X34780Y-23431
X34780Y-35431
X35030Y-28681
X35030Y-32681
X35030Y-34431
X35280Y-22931
X35280Y-43181
X35530Y-23681
X35530Y-33431
X35780Y-22681
X35780Y-40181
X35780Y-43681
X36030Y-24181
X36030Y-36931
X36030Y-40931
X36030Y-46431
X36280Y-25681
X36280Y-44431
X36530Y-19181
X36530Y-23181
X36530Y-24931
X36530Y-26431
X36530Y-27681
X36530Y-28931
X36530Y-40681
X36530Y-43931
X36780Y-23931
X36780Y-24681
X36780Y-25181
X36780Y-27431
X36780Y-27931
X36780Y-44681
X37030Y-24431
X37030Y-25931
X37030Y-27681
X37030Y-31181
X37030Y-41181
X37030Y-46181
X37030Y-50181
X37030Y-50681
X37280Y-25431
X37280Y-44931
X37530Y-25931
X37530Y-38681
X37530Y-45181
X37780Y-32931
X37780Y-33431
X37780Y-36181
X37780Y-43181
X37990Y-34892
X38030Y-19431
X38030Y-20931
X38030Y-31681
X38030Y-35931
X38280Y-29431
X38530Y-41681
X38780Y-19431
X39030Y-40931
X39030Y-41931
X39280Y-28931
X39530Y-20931
X39530Y-28181
X39780Y-19681
X39780Y-22931
X39780Y-28431
X40030Y-23681
X40030Y-24431
X40030Y-27181
X40030Y-28681
X40280Y-21181
X40280Y-23431
X40280Y-24181
X40530Y-28431
X40780Y-22681
X40780Y-28181
X41030Y-19681
X41030Y-25431
X41030Y-27181
X41030Y-27931
X41280Y-20181
X41280Y-25931
X41280Y-27431
X41280Y-28931
X41530Y-21431
X41530Y-23181
X41530Y-23931
X41530Y-30431
X41780Y-22681
X42030Y-27181
X42030Y-29931
X43280Y-21681
X43530Y-18181
X43530Y-40681
X43530Y-44431
X43780Y-50181
X43780Y-50681
X44030Y-18181
X44030Y-19931
X44280Y-13931
X44280Y-29681
X44280Y-33931
X44530Y-14181
X44530Y-22931
X44530Y-28181
X44530Y-34431
X44530Y-46681
X44530Y-47431
X44780Y-14931
X44780Y-23681
X44780Y-24431
X44780Y-26431
X44780Y-33431
X44780Y-33931
X45030Y-30431
X45030Y-39931
T3
X38280Y-39181
X38280Y-40181
X40030Y-29681
X41030Y-29681
T4
X17372Y-15000
X17372Y-16575
X18750Y-15000
X18750Y-16575
X20128Y-15000
X20128Y-16575
X21506Y-15000
X21506Y-16575
X22884Y-15000
X22884Y-16575
X24262Y-15000
X24262Y-16575
X36762Y-15000
X36762Y-16575
X38140Y-15000
X38140Y-16575
X39518Y-15000
X39518Y-16575
X40896Y-15000
X40896Y-16575
X42274Y-15000
X42274Y-16575
X43652Y-15000
X43652Y-16575
T5
X30512Y-15000
T2
X25729Y-50193G85X25729Y-50469
G05
X28130Y-50193G85X28130Y-50469
G05
T0
M30
